<?xml version="1.0" standalone="no"?>
<svg id="Frame4" width="85" height="24" viewBox="0 0 85 24" fill="none" xmlns="http://www.w3.org/2000/svg" style="max-width: 100%; max-height: 100%;">
<mask id="path-1-inside-1_1101_2965" fill="white">
<path fill-rule="evenodd" clip-rule="evenodd" d="M5.46023 10.4631C6.25237 10.4631 6.90199 10.3189 7.40909 10.0305C7.91619 9.73887 8.29072 9.34777 8.53267 8.85724C8.77794 8.36671 8.90057 7.8215 8.90057 7.22159C8.90057 6.62169 8.77794 6.07812 8.53267 5.59091C8.28741 5.10369 7.90956 4.71757 7.39915 4.43253C6.89205 4.14418 6.23911 4 5.44034 4H2V14.1818H3.23295V10.4631H5.46023ZM3.23295 9.36932H5.42045C5.96733 9.36932 6.40649 9.27486 6.73793 9.08594C7.06937 8.89702 7.30966 8.64181 7.45881 8.32031C7.61127 7.9955 7.6875 7.62926 7.6875 7.22159C7.6875 6.81392 7.61127 6.44934 7.45881 6.12784C7.30966 5.80634 7.06771 5.55445 6.73295 5.37216C6.3982 5.18655 5.95407 5.09375 5.40057 5.09375H3.23295V9.36932ZM10.7276 6.54545V14.1818H11.9009V9.34943C11.9009 9.11494 11.9393 8.89808 12.016 8.69886C12.052 8.60524 12.0965 8.51552 12.1495 8.42969C12.2694 8.23694 12.4193 8.07419 12.5992 7.94146C12.6729 7.88704 12.7517 7.83766 12.8356 7.79332C12.9509 7.73172 13.0725 7.68229 13.2003 7.64505C13.3108 7.61284 13.426 7.58974 13.5458 7.57576C13.6378 7.56503 13.7325 7.55966 13.8299 7.55966C13.9857 7.55966 14.1332 7.57126 14.2724 7.59446C14.4149 7.61435 14.506 7.62926 14.5458 7.6392V6.44602C14.4795 6.43939 14.3817 6.43442 14.2525 6.43111C14.1232 6.42779 14.0155 6.42614 13.9293 6.42614C13.8208 6.42614 13.7148 6.43277 13.6115 6.44602C13.5895 6.44885 13.5676 6.45197 13.5458 6.4554C13.3028 6.49362 13.0746 6.56931 12.8611 6.68245C12.831 6.69845 12.8011 6.71521 12.7714 6.73272C12.7462 6.74764 12.7212 6.76311 12.6964 6.77912C12.5932 6.8457 12.4991 6.91798 12.414 6.99597L12.4111 6.9986C12.1969 7.1957 12.0401 7.42912 11.9407 7.69886H11.8611V6.54545H10.7276ZM21.8292 8.32031C21.5408 7.72704 21.1365 7.26634 20.6161 6.93821C20.0991 6.61009 19.4959 6.44602 18.8065 6.44602C18.1171 6.44602 17.5122 6.61009 16.9918 6.93821C16.4748 7.26634 16.0704 7.72704 15.7788 8.32031C15.4904 8.91359 15.3462 9.60795 15.3462 10.4034C15.3462 11.1922 15.4904 11.8816 15.7788 12.4716C16.0704 13.0616 16.4748 13.5206 16.9918 13.8487C17.5122 14.1768 18.1171 14.3409 18.8065 14.3409C19.4959 14.3409 20.0991 14.1768 20.6161 13.8487C21.1365 13.5206 21.5408 13.0616 21.8292 12.4716C22.1209 11.8816 22.2667 11.1922 22.2667 10.4034C22.2667 9.60795 22.1209 8.91359 21.8292 8.32031ZM24.5748 6.54545H23.4213V7.53977H24.5748V12.3125C24.5748 12.7566 24.6775 13.1245 24.883 13.4162C25.0918 13.7079 25.3536 13.925 25.6685 14.0675C25.9484 14.1928 26.2333 14.263 26.5234 14.2781C26.5632 14.2802 26.603 14.2812 26.6429 14.2812C26.7634 14.2812 26.8724 14.2762 26.9698 14.2662C27.0491 14.258 27.1208 14.2464 27.1848 14.2315C27.3274 14.2017 27.4384 14.1719 27.5179 14.142L27.2793 13.0881L27.0804 13.1278C26.9976 13.1411 26.8915 13.1477 26.7623 13.1477C26.5899 13.1477 26.4258 13.1212 26.2701 13.0682C26.1176 13.0118 25.9917 12.9025 25.8922 12.7401C25.7961 12.5743 25.748 12.3258 25.748 11.9943V7.53977H27.3787V6.54545H25.748V4.71591H24.5748V6.54545ZM38.7923 12.9986C38.4973 12.7931 38.2968 12.485 38.1908 12.0741L37.0771 12.3523C37.093 12.4284 37.1115 12.5025 37.1326 12.5743C37.2106 12.8403 37.3238 13.0769 37.4723 13.2842C37.6259 13.4988 37.8174 13.682 38.0465 13.8338C38.5569 14.1719 39.2016 14.3409 39.9805 14.3409C40.5737 14.3409 41.0941 14.2415 41.5415 14.0426C41.989 13.8438 42.337 13.572 42.5856 13.2273C42.8375 12.8826 42.9634 12.4915 42.9634 12.054C42.9634 11.5204 42.796 11.0845 42.4613 10.7464C42.1265 10.4051 41.6178 10.1515 40.935 9.9858L39.8015 9.70739C39.3507 9.5947 39.0193 9.45384 38.8072 9.2848C38.5951 9.11577 38.489 8.88542 38.489 8.59375C38.489 8.26563 38.6431 7.9955 38.9513 7.78338C39.2629 7.56795 39.6523 7.46023 40.1197 7.46023C40.4611 7.46023 40.7411 7.51491 40.9599 7.62429C41.1786 7.73366 41.351 7.87287 41.4769 8.0419C41.6062 8.20762 41.704 8.37831 41.7702 8.55398L42.8242 8.25568C42.7096 7.91385 42.5451 7.61397 42.3309 7.35603C42.2044 7.2038 42.0606 7.06619 41.8995 6.94318C41.4686 6.61174 40.8754 6.44602 40.1197 6.44602C39.5827 6.44602 39.1022 6.54048 38.6779 6.7294C38.257 6.91832 37.9239 7.1785 37.6786 7.50994C37.4367 7.84138 37.3157 8.22254 37.3157 8.65341C37.3157 9.1804 37.4781 9.61955 37.8029 9.97088C38.131 10.3189 38.6448 10.5758 39.3441 10.7415L40.6168 11.0398C41.0013 11.1293 41.2863 11.2652 41.4719 11.4474C41.6576 11.6264 41.7504 11.8485 41.7504 12.1136C41.7504 12.4418 41.5879 12.7235 41.2631 12.9588C40.9416 13.1908 40.5075 13.3068 39.9606 13.3068C39.48 13.3068 39.0906 13.2041 38.7923 12.9986ZM54.2415 12.9986C53.9465 12.7931 53.746 12.485 53.64 12.0741L52.5263 12.3523C52.5422 12.4284 52.5607 12.5025 52.5818 12.5743C52.6598 12.8403 52.773 13.0769 52.9215 13.2842C53.0752 13.4988 53.2666 13.682 53.4957 13.8338C54.0062 14.1719 54.6508 14.3409 55.4297 14.3409C56.023 14.3409 56.5433 14.2415 56.9908 14.0426C57.4382 13.8438 57.7862 13.572 58.0348 13.2273C58.2867 12.8826 58.4126 12.4915 58.4126 12.054C58.4126 11.5204 58.2453 11.0845 57.9105 10.7464C57.5758 10.4051 57.067 10.1515 56.3842 9.9858L55.2507 9.70739C54.7999 9.5947 54.4685 9.45384 54.2564 9.2848C54.0443 9.11577 53.9382 8.88542 53.9382 8.59375C53.9382 8.26563 54.0923 7.9955 54.4006 7.78338C54.7121 7.56795 55.1016 7.46023 55.5689 7.46023C55.9103 7.46023 56.1903 7.51491 56.4091 7.62429C56.6278 7.73366 56.8002 7.87287 56.9261 8.0419C57.0554 8.20762 57.1532 8.37831 57.2195 8.55398L58.2734 8.25568C58.1588 7.91385 57.9944 7.61397 57.7801 7.35603C57.6536 7.2038 57.5099 7.06619 57.3487 6.94318C56.9179 6.61174 56.3246 6.44602 55.5689 6.44602C55.032 6.44602 54.5514 6.54048 54.1271 6.7294C53.7062 6.91832 53.3731 7.1785 53.1278 7.50994C52.8859 7.84138 52.7649 8.22254 52.7649 8.65341C52.7649 9.1804 52.9273 9.61955 53.2521 9.97088C53.5803 10.3189 54.094 10.5758 54.7933 10.7415L56.0661 11.0398C56.4505 11.1293 56.7356 11.2652 56.9212 11.4474C57.1068 11.6264 57.1996 11.8485 57.1996 12.1136C57.1996 12.4418 57.0372 12.7235 56.7124 12.9588C56.3909 13.1908 55.9567 13.3068 55.4098 13.3068C54.9292 13.3068 54.5398 13.2041 54.2415 12.9986ZM49.5421 14.1818H50.7154V6.54545H49.5421V11.0597C49.5421 11.3725 49.4972 11.649 49.4075 11.8892C49.3604 12.0155 49.3008 12.1317 49.2289 12.2379C49.1298 12.3865 49.0192 12.5166 48.8971 12.6282C48.7658 12.7482 48.6212 12.8468 48.4632 12.924C48.3278 12.991 48.1933 13.043 48.0598 13.0799C48.0579 13.0804 48.0559 13.0809 48.054 13.0815C48.0359 13.0864 48.0178 13.0911 47.9998 13.0954C47.8565 13.1303 47.7143 13.1477 47.5733 13.1477C47.0861 13.1477 46.6851 12.982 46.3702 12.6506C46.0587 12.3191 45.9029 11.875 45.9029 11.3182V6.54545H44.7296V11.3977C44.7296 12.0473 44.8356 12.5859 45.0478 13.0135C45.2599 13.4377 45.5515 13.7559 45.9228 13.968C46.294 14.1768 46.7182 14.2812 47.1955 14.2812C47.6521 14.2812 48.0464 14.1971 48.3784 14.0288C48.4347 14.0002 48.4893 13.9692 48.5421 13.9358C48.571 13.9174 48.5994 13.8984 48.6273 13.8786C48.7042 13.8233 48.7769 13.7656 48.8455 13.7055L48.8484 13.703C49.1158 13.4682 49.3205 13.197 49.4625 12.8892H49.5421V14.1818ZM29.1362 8.32031C29.4279 7.72704 29.8322 7.26634 30.3493 6.93821C30.8696 6.61009 31.4745 6.44602 32.1639 6.44602C32.8533 6.44602 33.4565 6.61009 33.9735 6.93821C34.4939 7.26634 34.8983 7.72704 35.1866 8.32031C35.4783 8.91359 35.6241 9.60795 35.6241 10.4034C35.6241 11.1922 35.4783 11.8816 35.1866 12.4716C34.8983 13.0616 34.4939 13.5206 33.9735 13.8487C33.4565 14.1768 32.8533 14.3409 32.1639 14.3409C31.4745 14.3409 30.8696 14.1768 30.3493 13.8487C29.8322 13.5206 29.4279 13.0616 29.1362 12.4716C28.8478 11.8816 28.7037 11.1922 28.7037 10.4034C28.7037 9.60795 28.8478 8.91359 29.1362 8.32031ZM20.0991 12.8842C19.761 13.1527 19.3301 13.2869 18.8065 13.2869C18.2828 13.2869 17.8519 13.1527 17.5138 12.8842C17.1758 12.6158 16.9255 12.2628 16.7631 11.8253C16.6007 11.3878 16.5195 10.9138 16.5195 10.4034C16.5195 9.89299 16.6007 9.41738 16.7631 8.97656C16.9255 8.53575 17.1758 8.17945 17.5138 7.90767C17.8519 7.63589 18.2828 7.5 18.8065 7.5C19.3301 7.5 19.761 7.63589 20.0991 7.90767C20.4371 8.17945 20.6874 8.53575 20.8498 8.97656C21.0122 9.41738 21.0934 9.89299 21.0934 10.4034C21.0934 10.9138 21.0122 11.3878 20.8498 11.8253C20.6874 12.2628 20.4371 12.6158 20.0991 12.8842ZM33.4565 12.8842C33.1184 13.1527 32.6876 13.2869 32.1639 13.2869C31.6402 13.2869 31.2093 13.1527 30.8713 12.8842C30.5332 12.6158 30.283 12.2628 30.1206 11.8253C29.9582 11.3878 29.877 10.9138 29.877 10.4034C29.877 9.89299 29.9582 9.41738 30.1206 8.97656C30.283 8.53575 30.5332 8.17945 30.8713 7.90767C31.2093 7.63589 31.6402 7.5 32.1639 7.5C32.6876 7.5 33.1184 7.63589 33.4565 7.90767C33.7946 8.17945 34.0448 8.53575 34.2072 8.97656C34.3696 9.41738 34.4508 9.89299 34.4508 10.4034C34.4508 10.9138 34.3696 11.3878 34.2072 11.8253C34.0448 12.2628 33.7946 12.6158 33.4565 12.8842Z" stroke-dasharray="0,0,110.08072900390627,189.0516867675781"><animate attributeType="XML" attributeName="stroke-dasharray" repeatCount="indefinite" dur="4.166666666666667s" values="0,0,110.08072900390627,189.0516867675781; 
          0,189.0516867675781,110.08072900390627,0; 
          110.08072900390627,189.0516867675781,0,0" keyTimes="0; 0.6319999999999999; 1" begin="0.06193383930688385s"></animate></path>
</mask>
<path fill-rule="evenodd" clip-rule="evenodd" d="M5.46023 10.4631C6.25237 10.4631 6.90199 10.3189 7.40909 10.0305C7.91619 9.73887 8.29072 9.34777 8.53267 8.85724C8.77794 8.36671 8.90057 7.8215 8.90057 7.22159C8.90057 6.62169 8.77794 6.07812 8.53267 5.59091C8.28741 5.10369 7.90956 4.71757 7.39915 4.43253C6.89205 4.14418 6.23911 4 5.44034 4H2V14.1818H3.23295V10.4631H5.46023ZM3.23295 9.36932H5.42045C5.96733 9.36932 6.40649 9.27486 6.73793 9.08594C7.06937 8.89702 7.30966 8.64181 7.45881 8.32031C7.61127 7.9955 7.6875 7.62926 7.6875 7.22159C7.6875 6.81392 7.61127 6.44934 7.45881 6.12784C7.30966 5.80634 7.06771 5.55445 6.73295 5.37216C6.3982 5.18655 5.95407 5.09375 5.40057 5.09375H3.23295V9.36932ZM10.7276 6.54545V14.1818H11.9009V9.34943C11.9009 9.11494 11.9393 8.89808 12.016 8.69886C12.052 8.60524 12.0965 8.51552 12.1495 8.42969C12.2694 8.23694 12.4193 8.07419 12.5992 7.94146C12.6729 7.88704 12.7517 7.83766 12.8356 7.79332C12.9509 7.73172 13.0725 7.68229 13.2003 7.64505C13.3108 7.61284 13.426 7.58974 13.5458 7.57576C13.6378 7.56503 13.7325 7.55966 13.8299 7.55966C13.9857 7.55966 14.1332 7.57126 14.2724 7.59446C14.4149 7.61435 14.506 7.62926 14.5458 7.6392V6.44602C14.4795 6.43939 14.3817 6.43442 14.2525 6.43111C14.1232 6.42779 14.0155 6.42614 13.9293 6.42614C13.8208 6.42614 13.7148 6.43277 13.6115 6.44602C13.5895 6.44885 13.5676 6.45197 13.5458 6.4554C13.3028 6.49362 13.0746 6.56931 12.8611 6.68245C12.831 6.69845 12.8011 6.71521 12.7714 6.73272C12.7462 6.74764 12.7212 6.76311 12.6964 6.77912C12.5932 6.8457 12.4991 6.91798 12.414 6.99597L12.4111 6.9986C12.1969 7.1957 12.0401 7.42912 11.9407 7.69886H11.8611V6.54545H10.7276ZM21.8292 8.32031C21.5408 7.72704 21.1365 7.26634 20.6161 6.93821C20.0991 6.61009 19.4959 6.44602 18.8065 6.44602C18.1171 6.44602 17.5122 6.61009 16.9918 6.93821C16.4748 7.26634 16.0704 7.72704 15.7788 8.32031C15.4904 8.91359 15.3462 9.60795 15.3462 10.4034C15.3462 11.1922 15.4904 11.8816 15.7788 12.4716C16.0704 13.0616 16.4748 13.5206 16.9918 13.8487C17.5122 14.1768 18.1171 14.3409 18.8065 14.3409C19.4959 14.3409 20.0991 14.1768 20.6161 13.8487C21.1365 13.5206 21.5408 13.0616 21.8292 12.4716C22.1209 11.8816 22.2667 11.1922 22.2667 10.4034C22.2667 9.60795 22.1209 8.91359 21.8292 8.32031ZM24.5748 6.54545H23.4213V7.53977H24.5748V12.3125C24.5748 12.7566 24.6775 13.1245 24.883 13.4162C25.0918 13.7079 25.3536 13.925 25.6685 14.0675C25.9484 14.1928 26.2333 14.263 26.5234 14.2781C26.5632 14.2802 26.603 14.2812 26.6429 14.2812C26.7634 14.2812 26.8724 14.2762 26.9698 14.2662C27.0491 14.258 27.1208 14.2464 27.1848 14.2315C27.3274 14.2017 27.4384 14.1719 27.5179 14.142L27.2793 13.0881L27.0804 13.1278C26.9976 13.1411 26.8915 13.1477 26.7623 13.1477C26.5899 13.1477 26.4258 13.1212 26.2701 13.0682C26.1176 13.0118 25.9917 12.9025 25.8922 12.7401C25.7961 12.5743 25.748 12.3258 25.748 11.9943V7.53977H27.3787V6.54545H25.748V4.71591H24.5748V6.54545ZM38.7923 12.9986C38.4973 12.7931 38.2968 12.485 38.1908 12.0741L37.0771 12.3523C37.093 12.4284 37.1115 12.5025 37.1326 12.5743C37.2106 12.8403 37.3238 13.0769 37.4723 13.2842C37.6259 13.4988 37.8174 13.682 38.0465 13.8338C38.5569 14.1719 39.2016 14.3409 39.9805 14.3409C40.5737 14.3409 41.0941 14.2415 41.5415 14.0426C41.989 13.8438 42.337 13.572 42.5856 13.2273C42.8375 12.8826 42.9634 12.4915 42.9634 12.054C42.9634 11.5204 42.796 11.0845 42.4613 10.7464C42.1265 10.4051 41.6178 10.1515 40.935 9.9858L39.8015 9.70739C39.3507 9.5947 39.0193 9.45384 38.8072 9.2848C38.5951 9.11577 38.489 8.88542 38.489 8.59375C38.489 8.26563 38.6431 7.9955 38.9513 7.78338C39.2629 7.56795 39.6523 7.46023 40.1197 7.46023C40.4611 7.46023 40.7411 7.51491 40.9599 7.62429C41.1786 7.73366 41.351 7.87287 41.4769 8.0419C41.6062 8.20762 41.704 8.37831 41.7702 8.55398L42.8242 8.25568C42.7096 7.91385 42.5451 7.61397 42.3309 7.35603C42.2044 7.2038 42.0606 7.06619 41.8995 6.94318C41.4686 6.61174 40.8754 6.44602 40.1197 6.44602C39.5827 6.44602 39.1022 6.54048 38.6779 6.7294C38.257 6.91832 37.9239 7.1785 37.6786 7.50994C37.4367 7.84138 37.3157 8.22254 37.3157 8.65341C37.3157 9.1804 37.4781 9.61955 37.8029 9.97088C38.131 10.3189 38.6448 10.5758 39.3441 10.7415L40.6168 11.0398C41.0013 11.1293 41.2863 11.2652 41.4719 11.4474C41.6576 11.6264 41.7504 11.8485 41.7504 12.1136C41.7504 12.4418 41.5879 12.7235 41.2631 12.9588C40.9416 13.1908 40.5075 13.3068 39.9606 13.3068C39.48 13.3068 39.0906 13.2041 38.7923 12.9986ZM54.2415 12.9986C53.9465 12.7931 53.746 12.485 53.64 12.0741L52.5263 12.3523C52.5422 12.4284 52.5607 12.5025 52.5818 12.5743C52.6598 12.8403 52.773 13.0769 52.9215 13.2842C53.0752 13.4988 53.2666 13.682 53.4957 13.8338C54.0062 14.1719 54.6508 14.3409 55.4297 14.3409C56.023 14.3409 56.5433 14.2415 56.9908 14.0426C57.4382 13.8438 57.7862 13.572 58.0348 13.2273C58.2867 12.8826 58.4126 12.4915 58.4126 12.054C58.4126 11.5204 58.2453 11.0845 57.9105 10.7464C57.5758 10.4051 57.067 10.1515 56.3842 9.9858L55.2507 9.70739C54.7999 9.5947 54.4685 9.45384 54.2564 9.2848C54.0443 9.11577 53.9382 8.88542 53.9382 8.59375C53.9382 8.26563 54.0923 7.9955 54.4006 7.78338C54.7121 7.56795 55.1016 7.46023 55.5689 7.46023C55.9103 7.46023 56.1903 7.51491 56.4091 7.62429C56.6278 7.73366 56.8002 7.87287 56.9261 8.0419C57.0554 8.20762 57.1532 8.37831 57.2195 8.55398L58.2734 8.25568C58.1588 7.91385 57.9944 7.61397 57.7801 7.35603C57.6536 7.2038 57.5099 7.06619 57.3487 6.94318C56.9179 6.61174 56.3246 6.44602 55.5689 6.44602C55.032 6.44602 54.5514 6.54048 54.1271 6.7294C53.7062 6.91832 53.3731 7.1785 53.1278 7.50994C52.8859 7.84138 52.7649 8.22254 52.7649 8.65341C52.7649 9.1804 52.9273 9.61955 53.2521 9.97088C53.5803 10.3189 54.094 10.5758 54.7933 10.7415L56.0661 11.0398C56.4505 11.1293 56.7356 11.2652 56.9212 11.4474C57.1068 11.6264 57.1996 11.8485 57.1996 12.1136C57.1996 12.4418 57.0372 12.7235 56.7124 12.9588C56.3909 13.1908 55.9567 13.3068 55.4098 13.3068C54.9292 13.3068 54.5398 13.2041 54.2415 12.9986ZM49.5421 14.1818H50.7154V6.54545H49.5421V11.0597C49.5421 11.3725 49.4972 11.649 49.4075 11.8892C49.3604 12.0155 49.3008 12.1317 49.2289 12.2379C49.1298 12.3865 49.0192 12.5166 48.8971 12.6282C48.7658 12.7482 48.6212 12.8468 48.4632 12.924C48.3278 12.991 48.1933 13.043 48.0598 13.0799C48.0579 13.0804 48.0559 13.0809 48.054 13.0815C48.0359 13.0864 48.0178 13.0911 47.9998 13.0954C47.8565 13.1303 47.7143 13.1477 47.5733 13.1477C47.0861 13.1477 46.6851 12.982 46.3702 12.6506C46.0587 12.3191 45.9029 11.875 45.9029 11.3182V6.54545H44.7296V11.3977C44.7296 12.0473 44.8356 12.5859 45.0478 13.0135C45.2599 13.4377 45.5515 13.7559 45.9228 13.968C46.294 14.1768 46.7182 14.2812 47.1955 14.2812C47.6521 14.2812 48.0464 14.1971 48.3784 14.0288C48.4347 14.0002 48.4893 13.9692 48.5421 13.9358C48.571 13.9174 48.5994 13.8984 48.6273 13.8786C48.7042 13.8233 48.7769 13.7656 48.8455 13.7055L48.8484 13.703C49.1158 13.4682 49.3205 13.197 49.4625 12.8892H49.5421V14.1818ZM29.1362 8.32031C29.4279 7.72704 29.8322 7.26634 30.3493 6.93821C30.8696 6.61009 31.4745 6.44602 32.1639 6.44602C32.8533 6.44602 33.4565 6.61009 33.9735 6.93821C34.4939 7.26634 34.8983 7.72704 35.1866 8.32031C35.4783 8.91359 35.6241 9.60795 35.6241 10.4034C35.6241 11.1922 35.4783 11.8816 35.1866 12.4716C34.8983 13.0616 34.4939 13.5206 33.9735 13.8487C33.4565 14.1768 32.8533 14.3409 32.1639 14.3409C31.4745 14.3409 30.8696 14.1768 30.3493 13.8487C29.8322 13.5206 29.4279 13.0616 29.1362 12.4716C28.8478 11.8816 28.7037 11.1922 28.7037 10.4034C28.7037 9.60795 28.8478 8.91359 29.1362 8.32031ZM20.0991 12.8842C19.761 13.1527 19.3301 13.2869 18.8065 13.2869C18.2828 13.2869 17.8519 13.1527 17.5138 12.8842C17.1758 12.6158 16.9255 12.2628 16.7631 11.8253C16.6007 11.3878 16.5195 10.9138 16.5195 10.4034C16.5195 9.89299 16.6007 9.41738 16.7631 8.97656C16.9255 8.53575 17.1758 8.17945 17.5138 7.90767C17.8519 7.63589 18.2828 7.5 18.8065 7.5C19.3301 7.5 19.761 7.63589 20.0991 7.90767C20.4371 8.17945 20.6874 8.53575 20.8498 8.97656C21.0122 9.41738 21.0934 9.89299 21.0934 10.4034C21.0934 10.9138 21.0122 11.3878 20.8498 11.8253C20.6874 12.2628 20.4371 12.6158 20.0991 12.8842ZM33.4565 12.8842C33.1184 13.1527 32.6876 13.2869 32.1639 13.2869C31.6402 13.2869 31.2093 13.1527 30.8713 12.8842C30.5332 12.6158 30.283 12.2628 30.1206 11.8253C29.9582 11.3878 29.877 10.9138 29.877 10.4034C29.877 9.89299 29.9582 9.41738 30.1206 8.97656C30.283 8.53575 30.5332 8.17945 30.8713 7.90767C31.2093 7.63589 31.6402 7.5 32.1639 7.5C32.6876 7.5 33.1184 7.63589 33.4565 7.90767C33.7946 8.17945 34.0448 8.53575 34.2072 8.97656C34.3696 9.41738 34.4508 9.89299 34.4508 10.4034C34.4508 10.9138 34.3696 11.3878 34.2072 11.8253C34.0448 12.2628 33.7946 12.6158 33.4565 12.8842Z" stroke="#FA00FF" stroke-width="2" mask="url(#path-1-inside-1_1101_2965)" stroke-dasharray="0,0,110.08072900390627,189.0516867675781"><animate attributeType="XML" attributeName="stroke-dasharray" repeatCount="indefinite" dur="4.166666666666667s" values="0,0,110.08072900390627,189.0516867675781; 
          0,189.0516867675781,110.08072900390627,0; 
          110.08072900390627,189.0516867675781,0,0" keyTimes="0; 0.6319999999999999; 1" begin="1.9087606929172605s"></animate></path>
<mask id="path-2-inside-2_1101_2965" fill="white">
<path fill-rule="evenodd" clip-rule="evenodd" d="M5.46023 10.4631C6.25237 10.4631 6.90199 10.3189 7.40909 10.0305C7.91619 9.73887 8.29072 9.34777 8.53267 8.85724C8.77794 8.36671 8.90057 7.8215 8.90057 7.22159C8.90057 6.62169 8.77794 6.07812 8.53267 5.59091C8.28741 5.10369 7.90956 4.71757 7.39915 4.43253C6.89205 4.14418 6.23911 4 5.44034 4H2V14.1818H3.23295V10.4631H5.46023ZM3.23295 9.36932H5.42045C5.96733 9.36932 6.40649 9.27486 6.73793 9.08594C7.06937 8.89702 7.30966 8.64181 7.45881 8.32031C7.61127 7.9955 7.6875 7.62926 7.6875 7.22159C7.6875 6.81392 7.61127 6.44934 7.45881 6.12784C7.30966 5.80634 7.06771 5.55445 6.73295 5.37216C6.3982 5.18655 5.95407 5.09375 5.40057 5.09375H3.23295V9.36932ZM10.7276 6.54545V14.1818H11.9009V9.34943C11.9009 9.11494 11.9393 8.89808 12.016 8.69886C12.052 8.60524 12.0965 8.51552 12.1495 8.42969C12.2694 8.23694 12.4193 8.07419 12.5992 7.94146C12.6729 7.88704 12.7517 7.83766 12.8356 7.79332C12.9509 7.73172 13.0725 7.68229 13.2003 7.64505C13.3108 7.61284 13.426 7.58974 13.5458 7.57576C13.6378 7.56503 13.7325 7.55966 13.8299 7.55966C13.9857 7.55966 14.1332 7.57126 14.2724 7.59446C14.4149 7.61435 14.506 7.62926 14.5458 7.6392V6.44602C14.4795 6.43939 14.3817 6.43442 14.2525 6.43111C14.1232 6.42779 14.0155 6.42614 13.9293 6.42614C13.8208 6.42614 13.7148 6.43277 13.6115 6.44602C13.5895 6.44885 13.5676 6.45197 13.5458 6.4554C13.3028 6.49362 13.0746 6.56931 12.8611 6.68245C12.831 6.69845 12.8011 6.71521 12.7714 6.73272C12.7462 6.74764 12.7212 6.76311 12.6964 6.77912C12.5932 6.8457 12.4991 6.91798 12.414 6.99597L12.4111 6.9986C12.1969 7.1957 12.0401 7.42912 11.9407 7.69886H11.8611V6.54545H10.7276ZM21.8292 8.32031C21.5408 7.72704 21.1365 7.26634 20.6161 6.93821C20.0991 6.61009 19.4959 6.44602 18.8065 6.44602C18.1171 6.44602 17.5122 6.61009 16.9918 6.93821C16.4748 7.26634 16.0704 7.72704 15.7788 8.32031C15.4904 8.91359 15.3462 9.60795 15.3462 10.4034C15.3462 11.1922 15.4904 11.8816 15.7788 12.4716C16.0704 13.0616 16.4748 13.5206 16.9918 13.8487C17.5122 14.1768 18.1171 14.3409 18.8065 14.3409C19.4959 14.3409 20.0991 14.1768 20.6161 13.8487C21.1365 13.5206 21.5408 13.0616 21.8292 12.4716C22.1209 11.8816 22.2667 11.1922 22.2667 10.4034C22.2667 9.60795 22.1209 8.91359 21.8292 8.32031ZM24.5748 6.54545H23.4213V7.53977H24.5748V12.3125C24.5748 12.7566 24.6775 13.1245 24.883 13.4162C25.0918 13.7079 25.3536 13.925 25.6685 14.0675C25.9484 14.1928 26.2333 14.263 26.5234 14.2781C26.5632 14.2802 26.603 14.2812 26.6429 14.2812C26.7634 14.2812 26.8724 14.2762 26.9698 14.2662C27.0491 14.258 27.1208 14.2464 27.1848 14.2315C27.3274 14.2017 27.4384 14.1719 27.5179 14.142L27.2793 13.0881L27.0804 13.1278C26.9976 13.1411 26.8915 13.1477 26.7623 13.1477C26.5899 13.1477 26.4258 13.1212 26.2701 13.0682C26.1176 13.0118 25.9917 12.9025 25.8922 12.7401C25.7961 12.5743 25.748 12.3258 25.748 11.9943V7.53977H27.3787V6.54545H25.748V4.71591H24.5748V6.54545ZM38.7923 12.9986C38.4973 12.7931 38.2968 12.485 38.1908 12.0741L37.0771 12.3523C37.093 12.4284 37.1115 12.5025 37.1326 12.5743C37.2106 12.8403 37.3238 13.0769 37.4723 13.2842C37.6259 13.4988 37.8174 13.682 38.0465 13.8338C38.5569 14.1719 39.2016 14.3409 39.9805 14.3409C40.5737 14.3409 41.0941 14.2415 41.5415 14.0426C41.989 13.8438 42.337 13.572 42.5856 13.2273C42.8375 12.8826 42.9634 12.4915 42.9634 12.054C42.9634 11.5204 42.796 11.0845 42.4613 10.7464C42.1265 10.4051 41.6178 10.1515 40.935 9.9858L39.8015 9.70739C39.3507 9.5947 39.0193 9.45384 38.8072 9.2848C38.5951 9.11577 38.489 8.88542 38.489 8.59375C38.489 8.26563 38.6431 7.9955 38.9513 7.78338C39.2629 7.56795 39.6523 7.46023 40.1197 7.46023C40.4611 7.46023 40.7411 7.51491 40.9599 7.62429C41.1786 7.73366 41.351 7.87287 41.4769 8.0419C41.6062 8.20762 41.704 8.37831 41.7702 8.55398L42.8242 8.25568C42.7096 7.91385 42.5451 7.61397 42.3309 7.35603C42.2044 7.2038 42.0606 7.06619 41.8995 6.94318C41.4686 6.61174 40.8754 6.44602 40.1197 6.44602C39.5827 6.44602 39.1022 6.54048 38.6779 6.7294C38.257 6.91832 37.9239 7.1785 37.6786 7.50994C37.4367 7.84138 37.3157 8.22254 37.3157 8.65341C37.3157 9.1804 37.4781 9.61955 37.8029 9.97088C38.131 10.3189 38.6448 10.5758 39.3441 10.7415L40.6168 11.0398C41.0013 11.1293 41.2863 11.2652 41.4719 11.4474C41.6576 11.6264 41.7504 11.8485 41.7504 12.1136C41.7504 12.4418 41.5879 12.7235 41.2631 12.9588C40.9416 13.1908 40.5075 13.3068 39.9606 13.3068C39.48 13.3068 39.0906 13.2041 38.7923 12.9986ZM54.2415 12.9986C53.9465 12.7931 53.746 12.485 53.64 12.0741L52.5263 12.3523C52.5422 12.4284 52.5607 12.5025 52.5818 12.5743C52.6598 12.8403 52.773 13.0769 52.9215 13.2842C53.0752 13.4988 53.2666 13.682 53.4957 13.8338C54.0062 14.1719 54.6508 14.3409 55.4297 14.3409C56.023 14.3409 56.5433 14.2415 56.9908 14.0426C57.4382 13.8438 57.7862 13.572 58.0348 13.2273C58.2867 12.8826 58.4126 12.4915 58.4126 12.054C58.4126 11.5204 58.2453 11.0845 57.9105 10.7464C57.5758 10.4051 57.067 10.1515 56.3842 9.9858L55.2507 9.70739C54.7999 9.5947 54.4685 9.45384 54.2564 9.2848C54.0443 9.11577 53.9382 8.88542 53.9382 8.59375C53.9382 8.26563 54.0923 7.9955 54.4006 7.78338C54.7121 7.56795 55.1016 7.46023 55.5689 7.46023C55.9103 7.46023 56.1903 7.51491 56.4091 7.62429C56.6278 7.73366 56.8002 7.87287 56.9261 8.0419C57.0554 8.20762 57.1532 8.37831 57.2195 8.55398L58.2734 8.25568C58.1588 7.91385 57.9944 7.61397 57.7801 7.35603C57.6536 7.2038 57.5099 7.06619 57.3487 6.94318C56.9179 6.61174 56.3246 6.44602 55.5689 6.44602C55.032 6.44602 54.5514 6.54048 54.1271 6.7294C53.7062 6.91832 53.3731 7.1785 53.1278 7.50994C52.8859 7.84138 52.7649 8.22254 52.7649 8.65341C52.7649 9.1804 52.9273 9.61955 53.2521 9.97088C53.5803 10.3189 54.094 10.5758 54.7933 10.7415L56.0661 11.0398C56.4505 11.1293 56.7356 11.2652 56.9212 11.4474C57.1068 11.6264 57.1996 11.8485 57.1996 12.1136C57.1996 12.4418 57.0372 12.7235 56.7124 12.9588C56.3909 13.1908 55.9567 13.3068 55.4098 13.3068C54.9292 13.3068 54.5398 13.2041 54.2415 12.9986ZM49.5421 14.1818H50.7154V6.54545H49.5421V11.0597C49.5421 11.3725 49.4972 11.649 49.4075 11.8892C49.3604 12.0155 49.3008 12.1317 49.2289 12.2379C49.1298 12.3865 49.0192 12.5166 48.8971 12.6282C48.7658 12.7482 48.6212 12.8468 48.4632 12.924C48.3278 12.991 48.1933 13.043 48.0598 13.0799C48.0579 13.0804 48.0559 13.0809 48.054 13.0815C48.0359 13.0864 48.0178 13.0911 47.9998 13.0954C47.8565 13.1303 47.7143 13.1477 47.5733 13.1477C47.0861 13.1477 46.6851 12.982 46.3702 12.6506C46.0587 12.3191 45.9029 11.875 45.9029 11.3182V6.54545H44.7296V11.3977C44.7296 12.0473 44.8356 12.5859 45.0478 13.0135C45.2599 13.4377 45.5515 13.7559 45.9228 13.968C46.294 14.1768 46.7182 14.2812 47.1955 14.2812C47.6521 14.2812 48.0464 14.1971 48.3784 14.0288C48.4347 14.0002 48.4893 13.9692 48.5421 13.9358C48.571 13.9174 48.5994 13.8984 48.6273 13.8786C48.7042 13.8233 48.7769 13.7656 48.8455 13.7055L48.8484 13.703C49.1158 13.4682 49.3205 13.197 49.4625 12.8892H49.5421V14.1818ZM29.1362 8.32031C29.4279 7.72704 29.8322 7.26634 30.3493 6.93821C30.8696 6.61009 31.4745 6.44602 32.1639 6.44602C32.8533 6.44602 33.4565 6.61009 33.9735 6.93821C34.4939 7.26634 34.8983 7.72704 35.1866 8.32031C35.4783 8.91359 35.6241 9.60795 35.6241 10.4034C35.6241 11.1922 35.4783 11.8816 35.1866 12.4716C34.8983 13.0616 34.4939 13.5206 33.9735 13.8487C33.4565 14.1768 32.8533 14.3409 32.1639 14.3409C31.4745 14.3409 30.8696 14.1768 30.3493 13.8487C29.8322 13.5206 29.4279 13.0616 29.1362 12.4716C28.8478 11.8816 28.7037 11.1922 28.7037 10.4034C28.7037 9.60795 28.8478 8.91359 29.1362 8.32031ZM20.0991 12.8842C19.761 13.1527 19.3301 13.2869 18.8065 13.2869C18.2828 13.2869 17.8519 13.1527 17.5138 12.8842C17.1758 12.6158 16.9255 12.2628 16.7631 11.8253C16.6007 11.3878 16.5195 10.9138 16.5195 10.4034C16.5195 9.89299 16.6007 9.41738 16.7631 8.97656C16.9255 8.53575 17.1758 8.17945 17.5138 7.90767C17.8519 7.63589 18.2828 7.5 18.8065 7.5C19.3301 7.5 19.761 7.63589 20.0991 7.90767C20.4371 8.17945 20.6874 8.53575 20.8498 8.97656C21.0122 9.41738 21.0934 9.89299 21.0934 10.4034C21.0934 10.9138 21.0122 11.3878 20.8498 11.8253C20.6874 12.2628 20.4371 12.6158 20.0991 12.8842ZM33.4565 12.8842C33.1184 13.1527 32.6876 13.2869 32.1639 13.2869C31.6402 13.2869 31.2093 13.1527 30.8713 12.8842C30.5332 12.6158 30.283 12.2628 30.1206 11.8253C29.9582 11.3878 29.877 10.9138 29.877 10.4034C29.877 9.89299 29.9582 9.41738 30.1206 8.97656C30.283 8.53575 30.5332 8.17945 30.8713 7.90767C31.2093 7.63589 31.6402 7.5 32.1639 7.5C32.6876 7.5 33.1184 7.63589 33.4565 7.90767C33.7946 8.17945 34.0448 8.53575 34.2072 8.97656C34.3696 9.41738 34.4508 9.89299 34.4508 10.4034C34.4508 10.9138 34.3696 11.3878 34.2072 11.8253C34.0448 12.2628 33.7946 12.6158 33.4565 12.8842Z" stroke-dasharray="0,0,110.08072900390627,189.0516867675781"><animate attributeType="XML" attributeName="stroke-dasharray" repeatCount="indefinite" dur="4.166666666666667s" values="0,0,110.08072900390627,189.0516867675781; 
          0,189.0516867675781,110.08072900390627,0; 
          110.08072900390627,189.0516867675781,0,0" keyTimes="0; 0.6319999999999999; 1" begin="0.6918623345740639s"></animate></path>
</mask>
<path fill-rule="evenodd" clip-rule="evenodd" d="M5.46023 10.4631C6.25237 10.4631 6.90199 10.3189 7.40909 10.0305C7.91619 9.73887 8.29072 9.34777 8.53267 8.85724C8.77794 8.36671 8.90057 7.8215 8.90057 7.22159C8.90057 6.62169 8.77794 6.07812 8.53267 5.59091C8.28741 5.10369 7.90956 4.71757 7.39915 4.43253C6.89205 4.14418 6.23911 4 5.44034 4H2V14.1818H3.23295V10.4631H5.46023ZM3.23295 9.36932H5.42045C5.96733 9.36932 6.40649 9.27486 6.73793 9.08594C7.06937 8.89702 7.30966 8.64181 7.45881 8.32031C7.61127 7.9955 7.6875 7.62926 7.6875 7.22159C7.6875 6.81392 7.61127 6.44934 7.45881 6.12784C7.30966 5.80634 7.06771 5.55445 6.73295 5.37216C6.3982 5.18655 5.95407 5.09375 5.40057 5.09375H3.23295V9.36932ZM10.7276 6.54545V14.1818H11.9009V9.34943C11.9009 9.11494 11.9393 8.89808 12.016 8.69886C12.052 8.60524 12.0965 8.51552 12.1495 8.42969C12.2694 8.23694 12.4193 8.07419 12.5992 7.94146C12.6729 7.88704 12.7517 7.83766 12.8356 7.79332C12.9509 7.73172 13.0725 7.68229 13.2003 7.64505C13.3108 7.61284 13.426 7.58974 13.5458 7.57576C13.6378 7.56503 13.7325 7.55966 13.8299 7.55966C13.9857 7.55966 14.1332 7.57126 14.2724 7.59446C14.4149 7.61435 14.506 7.62926 14.5458 7.6392V6.44602C14.4795 6.43939 14.3817 6.43442 14.2525 6.43111C14.1232 6.42779 14.0155 6.42614 13.9293 6.42614C13.8208 6.42614 13.7148 6.43277 13.6115 6.44602C13.5895 6.44885 13.5676 6.45197 13.5458 6.4554C13.3028 6.49362 13.0746 6.56931 12.8611 6.68245C12.831 6.69845 12.8011 6.71521 12.7714 6.73272C12.7462 6.74764 12.7212 6.76311 12.6964 6.77912C12.5932 6.8457 12.4991 6.91798 12.414 6.99597L12.4111 6.9986C12.1969 7.1957 12.0401 7.42912 11.9407 7.69886H11.8611V6.54545H10.7276ZM21.8292 8.32031C21.5408 7.72704 21.1365 7.26634 20.6161 6.93821C20.0991 6.61009 19.4959 6.44602 18.8065 6.44602C18.1171 6.44602 17.5122 6.61009 16.9918 6.93821C16.4748 7.26634 16.0704 7.72704 15.7788 8.32031C15.4904 8.91359 15.3462 9.60795 15.3462 10.4034C15.3462 11.1922 15.4904 11.8816 15.7788 12.4716C16.0704 13.0616 16.4748 13.5206 16.9918 13.8487C17.5122 14.1768 18.1171 14.3409 18.8065 14.3409C19.4959 14.3409 20.0991 14.1768 20.6161 13.8487C21.1365 13.5206 21.5408 13.0616 21.8292 12.4716C22.1209 11.8816 22.2667 11.1922 22.2667 10.4034C22.2667 9.60795 22.1209 8.91359 21.8292 8.32031ZM24.5748 6.54545H23.4213V7.53977H24.5748V12.3125C24.5748 12.7566 24.6775 13.1245 24.883 13.4162C25.0918 13.7079 25.3536 13.925 25.6685 14.0675C25.9484 14.1928 26.2333 14.263 26.5234 14.2781C26.5632 14.2802 26.603 14.2812 26.6429 14.2812C26.7634 14.2812 26.8724 14.2762 26.9698 14.2662C27.0491 14.258 27.1208 14.2464 27.1848 14.2315C27.3274 14.2017 27.4384 14.1719 27.5179 14.142L27.2793 13.0881L27.0804 13.1278C26.9976 13.1411 26.8915 13.1477 26.7623 13.1477C26.5899 13.1477 26.4258 13.1212 26.2701 13.0682C26.1176 13.0118 25.9917 12.9025 25.8922 12.7401C25.7961 12.5743 25.748 12.3258 25.748 11.9943V7.53977H27.3787V6.54545H25.748V4.71591H24.5748V6.54545ZM38.7923 12.9986C38.4973 12.7931 38.2968 12.485 38.1908 12.0741L37.0771 12.3523C37.093 12.4284 37.1115 12.5025 37.1326 12.5743C37.2106 12.8403 37.3238 13.0769 37.4723 13.2842C37.6259 13.4988 37.8174 13.682 38.0465 13.8338C38.5569 14.1719 39.2016 14.3409 39.9805 14.3409C40.5737 14.3409 41.0941 14.2415 41.5415 14.0426C41.989 13.8438 42.337 13.572 42.5856 13.2273C42.8375 12.8826 42.9634 12.4915 42.9634 12.054C42.9634 11.5204 42.796 11.0845 42.4613 10.7464C42.1265 10.4051 41.6178 10.1515 40.935 9.9858L39.8015 9.70739C39.3507 9.5947 39.0193 9.45384 38.8072 9.2848C38.5951 9.11577 38.489 8.88542 38.489 8.59375C38.489 8.26563 38.6431 7.9955 38.9513 7.78338C39.2629 7.56795 39.6523 7.46023 40.1197 7.46023C40.4611 7.46023 40.7411 7.51491 40.9599 7.62429C41.1786 7.73366 41.351 7.87287 41.4769 8.0419C41.6062 8.20762 41.704 8.37831 41.7702 8.55398L42.8242 8.25568C42.7096 7.91385 42.5451 7.61397 42.3309 7.35603C42.2044 7.2038 42.0606 7.06619 41.8995 6.94318C41.4686 6.61174 40.8754 6.44602 40.1197 6.44602C39.5827 6.44602 39.1022 6.54048 38.6779 6.7294C38.257 6.91832 37.9239 7.1785 37.6786 7.50994C37.4367 7.84138 37.3157 8.22254 37.3157 8.65341C37.3157 9.1804 37.4781 9.61955 37.8029 9.97088C38.131 10.3189 38.6448 10.5758 39.3441 10.7415L40.6168 11.0398C41.0013 11.1293 41.2863 11.2652 41.4719 11.4474C41.6576 11.6264 41.7504 11.8485 41.7504 12.1136C41.7504 12.4418 41.5879 12.7235 41.2631 12.9588C40.9416 13.1908 40.5075 13.3068 39.9606 13.3068C39.48 13.3068 39.0906 13.2041 38.7923 12.9986ZM54.2415 12.9986C53.9465 12.7931 53.746 12.485 53.64 12.0741L52.5263 12.3523C52.5422 12.4284 52.5607 12.5025 52.5818 12.5743C52.6598 12.8403 52.773 13.0769 52.9215 13.2842C53.0752 13.4988 53.2666 13.682 53.4957 13.8338C54.0062 14.1719 54.6508 14.3409 55.4297 14.3409C56.023 14.3409 56.5433 14.2415 56.9908 14.0426C57.4382 13.8438 57.7862 13.572 58.0348 13.2273C58.2867 12.8826 58.4126 12.4915 58.4126 12.054C58.4126 11.5204 58.2453 11.0845 57.9105 10.7464C57.5758 10.4051 57.067 10.1515 56.3842 9.9858L55.2507 9.70739C54.7999 9.5947 54.4685 9.45384 54.2564 9.2848C54.0443 9.11577 53.9382 8.88542 53.9382 8.59375C53.9382 8.26563 54.0923 7.9955 54.4006 7.78338C54.7121 7.56795 55.1016 7.46023 55.5689 7.46023C55.9103 7.46023 56.1903 7.51491 56.4091 7.62429C56.6278 7.73366 56.8002 7.87287 56.9261 8.0419C57.0554 8.20762 57.1532 8.37831 57.2195 8.55398L58.2734 8.25568C58.1588 7.91385 57.9944 7.61397 57.7801 7.35603C57.6536 7.2038 57.5099 7.06619 57.3487 6.94318C56.9179 6.61174 56.3246 6.44602 55.5689 6.44602C55.032 6.44602 54.5514 6.54048 54.1271 6.7294C53.7062 6.91832 53.3731 7.1785 53.1278 7.50994C52.8859 7.84138 52.7649 8.22254 52.7649 8.65341C52.7649 9.1804 52.9273 9.61955 53.2521 9.97088C53.5803 10.3189 54.094 10.5758 54.7933 10.7415L56.0661 11.0398C56.4505 11.1293 56.7356 11.2652 56.9212 11.4474C57.1068 11.6264 57.1996 11.8485 57.1996 12.1136C57.1996 12.4418 57.0372 12.7235 56.7124 12.9588C56.3909 13.1908 55.9567 13.3068 55.4098 13.3068C54.9292 13.3068 54.5398 13.2041 54.2415 12.9986ZM49.5421 14.1818H50.7154V6.54545H49.5421V11.0597C49.5421 11.3725 49.4972 11.649 49.4075 11.8892C49.3604 12.0155 49.3008 12.1317 49.2289 12.2379C49.1298 12.3865 49.0192 12.5166 48.8971 12.6282C48.7658 12.7482 48.6212 12.8468 48.4632 12.924C48.3278 12.991 48.1933 13.043 48.0598 13.0799C48.0579 13.0804 48.0559 13.0809 48.054 13.0815C48.0359 13.0864 48.0178 13.0911 47.9998 13.0954C47.8565 13.1303 47.7143 13.1477 47.5733 13.1477C47.0861 13.1477 46.6851 12.982 46.3702 12.6506C46.0587 12.3191 45.9029 11.875 45.9029 11.3182V6.54545H44.7296V11.3977C44.7296 12.0473 44.8356 12.5859 45.0478 13.0135C45.2599 13.4377 45.5515 13.7559 45.9228 13.968C46.294 14.1768 46.7182 14.2812 47.1955 14.2812C47.6521 14.2812 48.0464 14.1971 48.3784 14.0288C48.4347 14.0002 48.4893 13.9692 48.5421 13.9358C48.571 13.9174 48.5994 13.8984 48.6273 13.8786C48.7042 13.8233 48.7769 13.7656 48.8455 13.7055L48.8484 13.703C49.1158 13.4682 49.3205 13.197 49.4625 12.8892H49.5421V14.1818ZM29.1362 8.32031C29.4279 7.72704 29.8322 7.26634 30.3493 6.93821C30.8696 6.61009 31.4745 6.44602 32.1639 6.44602C32.8533 6.44602 33.4565 6.61009 33.9735 6.93821C34.4939 7.26634 34.8983 7.72704 35.1866 8.32031C35.4783 8.91359 35.6241 9.60795 35.6241 10.4034C35.6241 11.1922 35.4783 11.8816 35.1866 12.4716C34.8983 13.0616 34.4939 13.5206 33.9735 13.8487C33.4565 14.1768 32.8533 14.3409 32.1639 14.3409C31.4745 14.3409 30.8696 14.1768 30.3493 13.8487C29.8322 13.5206 29.4279 13.0616 29.1362 12.4716C28.8478 11.8816 28.7037 11.1922 28.7037 10.4034C28.7037 9.60795 28.8478 8.91359 29.1362 8.32031ZM20.0991 12.8842C19.761 13.1527 19.3301 13.2869 18.8065 13.2869C18.2828 13.2869 17.8519 13.1527 17.5138 12.8842C17.1758 12.6158 16.9255 12.2628 16.7631 11.8253C16.6007 11.3878 16.5195 10.9138 16.5195 10.4034C16.5195 9.89299 16.6007 9.41738 16.7631 8.97656C16.9255 8.53575 17.1758 8.17945 17.5138 7.90767C17.8519 7.63589 18.2828 7.5 18.8065 7.5C19.3301 7.5 19.761 7.63589 20.0991 7.90767C20.4371 8.17945 20.6874 8.53575 20.8498 8.97656C21.0122 9.41738 21.0934 9.89299 21.0934 10.4034C21.0934 10.9138 21.0122 11.3878 20.8498 11.8253C20.6874 12.2628 20.4371 12.6158 20.0991 12.8842ZM33.4565 12.8842C33.1184 13.1527 32.6876 13.2869 32.1639 13.2869C31.6402 13.2869 31.2093 13.1527 30.8713 12.8842C30.5332 12.6158 30.283 12.2628 30.1206 11.8253C29.9582 11.3878 29.877 10.9138 29.877 10.4034C29.877 9.89299 29.9582 9.41738 30.1206 8.97656C30.283 8.53575 30.5332 8.17945 30.8713 7.90767C31.2093 7.63589 31.6402 7.5 32.1639 7.5C32.6876 7.5 33.1184 7.63589 33.4565 7.90767C33.7946 8.17945 34.0448 8.53575 34.2072 8.97656C34.3696 9.41738 34.4508 9.89299 34.4508 10.4034C34.4508 10.9138 34.3696 11.3878 34.2072 11.8253C34.0448 12.2628 33.7946 12.6158 33.4565 12.8842Z" stroke="#EB07FF" stroke-width="2" mask="url(#path-2-inside-2_1101_2965)" stroke-dasharray="0,0,110.08072900390627,189.0516867675781"><animate attributeType="XML" attributeName="stroke-dasharray" repeatCount="indefinite" dur="4.166666666666667s" values="0,0,110.08072900390627,189.0516867675781; 
          0,189.0516867675781,110.08072900390627,0; 
          110.08072900390627,189.0516867675781,0,0" keyTimes="0; 0.6319999999999999; 1" begin="0.42623940768741353s"></animate></path>
<path fill-rule="evenodd" clip-rule="evenodd" d="M5.46023 10.4631C6.25237 10.4631 6.90199 10.3189 7.40909 10.0305C7.91619 9.73887 8.29072 9.34777 8.53267 8.85724C8.77794 8.36671 8.90057 7.8215 8.90057 7.22159C8.90057 6.62169 8.77794 6.07812 8.53267 5.59091C8.28741 5.10369 7.90956 4.71757 7.39915 4.43253C6.89205 4.14418 6.23911 4 5.44034 4H2V14.1818H3.23295V10.4631H5.46023ZM3.23295 9.36932H5.42045C5.96733 9.36932 6.40649 9.27486 6.73793 9.08594C7.06937 8.89702 7.30966 8.64181 7.45881 8.32031C7.61127 7.9955 7.6875 7.62926 7.6875 7.22159C7.6875 6.81392 7.61127 6.44934 7.45881 6.12784C7.30966 5.80634 7.06771 5.55445 6.73295 5.37216C6.3982 5.18655 5.95407 5.09375 5.40057 5.09375H3.23295V9.36932ZM10.7276 6.54545V14.1818H11.9009V9.34943C11.9009 9.11494 11.9393 8.89808 12.016 8.69886C12.052 8.60524 12.0965 8.51552 12.1495 8.42969C12.2694 8.23694 12.4193 8.07419 12.5992 7.94146C12.6729 7.88704 12.7517 7.83766 12.8356 7.79332C12.9509 7.73172 13.0725 7.68229 13.2003 7.64505C13.3108 7.61284 13.426 7.58974 13.5458 7.57576C13.6378 7.56503 13.7325 7.55966 13.8299 7.55966C13.9857 7.55966 14.1332 7.57126 14.2724 7.59446C14.4149 7.61435 14.506 7.62926 14.5458 7.6392V6.44602C14.4795 6.43939 14.3817 6.43442 14.2525 6.43111C14.1232 6.42779 14.0155 6.42614 13.9293 6.42614C13.8208 6.42614 13.7148 6.43277 13.6115 6.44602C13.5895 6.44885 13.5676 6.45197 13.5458 6.4554C13.3028 6.49362 13.0746 6.56931 12.8611 6.68245C12.831 6.69845 12.8011 6.71521 12.7714 6.73272C12.7462 6.74764 12.7212 6.76311 12.6964 6.77912C12.5932 6.8457 12.4991 6.91798 12.414 6.99597L12.4111 6.9986C12.1969 7.1957 12.0401 7.42912 11.9407 7.69886H11.8611V6.54545H10.7276ZM21.8292 8.32031C21.5408 7.72704 21.1365 7.26634 20.6161 6.93821C20.0991 6.61009 19.4959 6.44602 18.8065 6.44602C18.1171 6.44602 17.5122 6.61009 16.9918 6.93821C16.4748 7.26634 16.0704 7.72704 15.7788 8.32031C15.4904 8.91359 15.3462 9.60795 15.3462 10.4034C15.3462 11.1922 15.4904 11.8816 15.7788 12.4716C16.0704 13.0616 16.4748 13.5206 16.9918 13.8487C17.5122 14.1768 18.1171 14.3409 18.8065 14.3409C19.4959 14.3409 20.0991 14.1768 20.6161 13.8487C21.1365 13.5206 21.5408 13.0616 21.8292 12.4716C22.1209 11.8816 22.2667 11.1922 22.2667 10.4034C22.2667 9.60795 22.1209 8.91359 21.8292 8.32031ZM24.5748 6.54545H23.4213V7.53977H24.5748V12.3125C24.5748 12.7566 24.6775 13.1245 24.883 13.4162C25.0918 13.7079 25.3536 13.925 25.6685 14.0675C25.9484 14.1928 26.2333 14.263 26.5234 14.2781C26.5632 14.2802 26.603 14.2812 26.6429 14.2812C26.7634 14.2812 26.8724 14.2762 26.9698 14.2662C27.0491 14.258 27.1208 14.2464 27.1848 14.2315C27.3274 14.2017 27.4384 14.1719 27.5179 14.142L27.2793 13.0881L27.0804 13.1278C26.9976 13.1411 26.8915 13.1477 26.7623 13.1477C26.5899 13.1477 26.4258 13.1212 26.2701 13.0682C26.1176 13.0118 25.9917 12.9025 25.8922 12.7401C25.7961 12.5743 25.748 12.3258 25.748 11.9943V7.53977H27.3787V6.54545H25.748V4.71591H24.5748V6.54545ZM38.7923 12.9986C38.4973 12.7931 38.2968 12.485 38.1908 12.0741L37.0771 12.3523C37.093 12.4284 37.1115 12.5025 37.1326 12.5743C37.2106 12.8403 37.3238 13.0769 37.4723 13.2842C37.6259 13.4988 37.8174 13.682 38.0465 13.8338C38.5569 14.1719 39.2016 14.3409 39.9805 14.3409C40.5737 14.3409 41.0941 14.2415 41.5415 14.0426C41.989 13.8438 42.337 13.572 42.5856 13.2273C42.8375 12.8826 42.9634 12.4915 42.9634 12.054C42.9634 11.5204 42.796 11.0845 42.4613 10.7464C42.1265 10.4051 41.6178 10.1515 40.935 9.9858L39.8015 9.70739C39.3507 9.5947 39.0193 9.45384 38.8072 9.2848C38.5951 9.11577 38.489 8.88542 38.489 8.59375C38.489 8.26563 38.6431 7.9955 38.9513 7.78338C39.2629 7.56795 39.6523 7.46023 40.1197 7.46023C40.4611 7.46023 40.7411 7.51491 40.9599 7.62429C41.1786 7.73366 41.351 7.87287 41.4769 8.0419C41.6062 8.20762 41.704 8.37831 41.7702 8.55398L42.8242 8.25568C42.7096 7.91385 42.5451 7.61397 42.3309 7.35603C42.2044 7.2038 42.0606 7.06619 41.8995 6.94318C41.4686 6.61174 40.8754 6.44602 40.1197 6.44602C39.5827 6.44602 39.1022 6.54048 38.6779 6.7294C38.257 6.91832 37.9239 7.1785 37.6786 7.50994C37.4367 7.84138 37.3157 8.22254 37.3157 8.65341C37.3157 9.1804 37.4781 9.61955 37.8029 9.97088C38.131 10.3189 38.6448 10.5758 39.3441 10.7415L40.6168 11.0398C41.0013 11.1293 41.2863 11.2652 41.4719 11.4474C41.6576 11.6264 41.7504 11.8485 41.7504 12.1136C41.7504 12.4418 41.5879 12.7235 41.2631 12.9588C40.9416 13.1908 40.5075 13.3068 39.9606 13.3068C39.48 13.3068 39.0906 13.2041 38.7923 12.9986ZM54.2415 12.9986C53.9465 12.7931 53.746 12.485 53.64 12.0741L52.5263 12.3523C52.5422 12.4284 52.5607 12.5025 52.5818 12.5743C52.6598 12.8403 52.773 13.0769 52.9215 13.2842C53.0752 13.4988 53.2666 13.682 53.4957 13.8338C54.0062 14.1719 54.6508 14.3409 55.4297 14.3409C56.023 14.3409 56.5433 14.2415 56.9908 14.0426C57.4382 13.8438 57.7862 13.572 58.0348 13.2273C58.2867 12.8826 58.4126 12.4915 58.4126 12.054C58.4126 11.5204 58.2453 11.0845 57.9105 10.7464C57.5758 10.4051 57.067 10.1515 56.3842 9.9858L55.2507 9.70739C54.7999 9.5947 54.4685 9.45384 54.2564 9.2848C54.0443 9.11577 53.9382 8.88542 53.9382 8.59375C53.9382 8.26563 54.0923 7.9955 54.4006 7.78338C54.7121 7.56795 55.1016 7.46023 55.5689 7.46023C55.9103 7.46023 56.1903 7.51491 56.4091 7.62429C56.6278 7.73366 56.8002 7.87287 56.9261 8.0419C57.0554 8.20762 57.1532 8.37831 57.2195 8.55398L58.2734 8.25568C58.1588 7.91385 57.9944 7.61397 57.7801 7.35603C57.6536 7.2038 57.5099 7.06619 57.3487 6.94318C56.9179 6.61174 56.3246 6.44602 55.5689 6.44602C55.032 6.44602 54.5514 6.54048 54.1271 6.7294C53.7062 6.91832 53.3731 7.1785 53.1278 7.50994C52.8859 7.84138 52.7649 8.22254 52.7649 8.65341C52.7649 9.1804 52.9273 9.61955 53.2521 9.97088C53.5803 10.3189 54.094 10.5758 54.7933 10.7415L56.0661 11.0398C56.4505 11.1293 56.7356 11.2652 56.9212 11.4474C57.1068 11.6264 57.1996 11.8485 57.1996 12.1136C57.1996 12.4418 57.0372 12.7235 56.7124 12.9588C56.3909 13.1908 55.9567 13.3068 55.4098 13.3068C54.9292 13.3068 54.5398 13.2041 54.2415 12.9986ZM49.5421 14.1818H50.7154V6.54545H49.5421V11.0597C49.5421 11.3725 49.4972 11.649 49.4075 11.8892C49.3604 12.0155 49.3008 12.1317 49.2289 12.2379C49.1298 12.3865 49.0192 12.5166 48.8971 12.6282C48.7658 12.7482 48.6212 12.8468 48.4632 12.924C48.3278 12.991 48.1933 13.043 48.0598 13.0799C48.0579 13.0804 48.0559 13.0809 48.054 13.0815C48.0359 13.0864 48.0178 13.0911 47.9998 13.0954C47.8565 13.1303 47.7143 13.1477 47.5733 13.1477C47.0861 13.1477 46.6851 12.982 46.3702 12.6506C46.0587 12.3191 45.9029 11.875 45.9029 11.3182V6.54545H44.7296V11.3977C44.7296 12.0473 44.8356 12.5859 45.0478 13.0135C45.2599 13.4377 45.5515 13.7559 45.9228 13.968C46.294 14.1768 46.7182 14.2812 47.1955 14.2812C47.6521 14.2812 48.0464 14.1971 48.3784 14.0288C48.4347 14.0002 48.4893 13.9692 48.5421 13.9358C48.571 13.9174 48.5994 13.8984 48.6273 13.8786C48.7042 13.8233 48.7769 13.7656 48.8455 13.7055L48.8484 13.703C49.1158 13.4682 49.3205 13.197 49.4625 12.8892H49.5421V14.1818ZM29.1362 8.32031C29.4279 7.72704 29.8322 7.26634 30.3493 6.93821C30.8696 6.61009 31.4745 6.44602 32.1639 6.44602C32.8533 6.44602 33.4565 6.61009 33.9735 6.93821C34.4939 7.26634 34.8983 7.72704 35.1866 8.32031C35.4783 8.91359 35.6241 9.60795 35.6241 10.4034C35.6241 11.1922 35.4783 11.8816 35.1866 12.4716C34.8983 13.0616 34.4939 13.5206 33.9735 13.8487C33.4565 14.1768 32.8533 14.3409 32.1639 14.3409C31.4745 14.3409 30.8696 14.1768 30.3493 13.8487C29.8322 13.5206 29.4279 13.0616 29.1362 12.4716C28.8478 11.8816 28.7037 11.1922 28.7037 10.4034C28.7037 9.60795 28.8478 8.91359 29.1362 8.32031ZM20.0991 12.8842C19.761 13.1527 19.3301 13.2869 18.8065 13.2869C18.2828 13.2869 17.8519 13.1527 17.5138 12.8842C17.1758 12.6158 16.9255 12.2628 16.7631 11.8253C16.6007 11.3878 16.5195 10.9138 16.5195 10.4034C16.5195 9.89299 16.6007 9.41738 16.7631 8.97656C16.9255 8.53575 17.1758 8.17945 17.5138 7.90767C17.8519 7.63589 18.2828 7.5 18.8065 7.5C19.3301 7.5 19.761 7.63589 20.0991 7.90767C20.4371 8.17945 20.6874 8.53575 20.8498 8.97656C21.0122 9.41738 21.0934 9.89299 21.0934 10.4034C21.0934 10.9138 21.0122 11.3878 20.8498 11.8253C20.6874 12.2628 20.4371 12.6158 20.0991 12.8842ZM33.4565 12.8842C33.1184 13.1527 32.6876 13.2869 32.1639 13.2869C31.6402 13.2869 31.2093 13.1527 30.8713 12.8842C30.5332 12.6158 30.283 12.2628 30.1206 11.8253C29.9582 11.3878 29.877 10.9138 29.877 10.4034C29.877 9.89299 29.9582 9.41738 30.1206 8.97656C30.283 8.53575 30.5332 8.17945 30.8713 7.90767C31.2093 7.63589 31.6402 7.5 32.1639 7.5C32.6876 7.5 33.1184 7.63589 33.4565 7.90767C33.7946 8.17945 34.0448 8.53575 34.2072 8.97656C34.3696 9.41738 34.4508 9.89299 34.4508 10.4034C34.4508 10.9138 34.3696 11.3878 34.2072 11.8253C34.0448 12.2628 33.7946 12.6158 33.4565 12.8842Z" stroke="#0094FF" stroke-width="2" mask="url(#path-2-inside-2_1101_2965)" stroke-dasharray="0,0,110.08072900390627,189.0516867675781"><animate attributeType="XML" attributeName="stroke-dasharray" repeatCount="indefinite" dur="4.166666666666667s" values="0,0,110.08072900390627,189.0516867675781; 
          0,189.0516867675781,110.08072900390627,0; 
          110.08072900390627,189.0516867675781,0,0" keyTimes="0; 0.6319999999999999; 1" begin="1.9440962773217905s"></animate></path>
<setting>{"type":"loader","speed":12,"random":1,"shift":0.5,"size":1,"rupture":23}</setting></svg>