<svg width="176" height="176" viewBox="0 0 176 176" fill="none" xmlns="http://www.w3.org/2000/svg">
<g filter="url(#filter0_d_1106_3434)">
<path fill-rule="evenodd" clip-rule="evenodd" d="M88 168C134.392 168 172 130.392 172 84C172 37.6081 134.392 0 88 0C41.6081 0 4 37.6081 4 84C4 130.392 41.6081 168 88 168ZM94.7027 78.6911C113.912 79.8734 130.651 80.9038 152.764 67.3499C154.523 81.6732 155.88 91.1854 158 98.5C120.985 104.512 97.7574 108.926 75.3908 122.79C65.7167 121.596 66.2524 107.775 66.7512 94.9065C66.9944 88.6324 67.2288 82.5849 66.2668 78.3381C76.7447 77.5857 85.9784 78.1541 94.7027 78.6911Z" fill="#FF00F5"/>
</g>
<defs>
<filter id="filter0_d_1106_3434" x="0" y="0" width="176" height="176" filterUnits="userSpaceOnUse" color-interpolation-filters="sRGB">
<feFlood flood-opacity="0" result="BackgroundImageFix"/>
<feColorMatrix in="SourceAlpha" type="matrix" values="0 0 0 0 0 0 0 0 0 0 0 0 0 0 0 0 0 0 127 0" result="hardAlpha"/>
<feOffset dy="4"/>
<feGaussianBlur stdDeviation="2"/>
<feComposite in2="hardAlpha" operator="out"/>
<feColorMatrix type="matrix" values="0 0 0 0 0 0 0 0 0 0 0 0 0 0 0 0 0 0 0.25 0"/>
<feBlend mode="normal" in2="BackgroundImageFix" result="effect1_dropShadow_1106_3434"/>
<feBlend mode="normal" in="SourceGraphic" in2="effect1_dropShadow_1106_3434" result="shape"/>
</filter>
</defs>
</svg>
