<?xml version="1.0" standalone="no"?>
<svg id="byProtosus" width="149" height="30" viewBox="0 0 149 30" fill="none" xmlns="http://www.w3.org/2000/svg" style="max-width: 100%; max-height: 100%;">
<mask id="path-1-inside-1_1103_3417" fill="white">
<path d="M2.6573 8.68257C2.98113 8.45436 3.46687 8.21577 4.11453 7.9668C4.78123 7.71784 5.54318 7.59336 6.40037 7.59336C7.4671 7.59336 8.41002 7.80083 9.22911 8.21577C10.0673 8.6307 10.7721 9.21162 11.3435 9.95851C11.915 10.7054 12.3436 11.5975 12.6293 12.6349C12.9341 13.6722 13.0865 14.8133 13.0865 16.0581C13.0865 17.3651 12.9055 18.5477 12.5436 19.6058C12.2007 20.6432 11.7054 21.5249 11.0578 22.251C10.4101 22.9772 9.62913 23.5373 8.7148 23.9315C7.80046 24.3257 6.77182 24.5228 5.6289 24.5228C4.39073 24.5228 3.29543 24.4295 2.34299 24.2427C1.39056 24.056 0.609559 23.8693 0 23.6826V0.497924L2.6573 0V8.68257ZM2.6573 21.6286C2.92398 21.7116 3.29543 21.7946 3.77165 21.8776C4.26692 21.9398 4.87648 21.971 5.60033 21.971C7.02898 21.971 8.17191 21.4627 9.0291 20.4461C9.88629 19.4087 10.3149 17.9461 10.3149 16.0581C10.3149 15.2282 10.2387 14.4502 10.0863 13.7241C9.93391 12.9979 9.68628 12.3755 9.3434 11.8568C9.00053 11.3174 8.55288 10.9025 8.00047 10.612C7.4671 10.3008 6.81945 10.1452 6.0575 10.1452C5.33364 10.1452 4.66694 10.2801 4.05738 10.5498C3.44782 10.8195 2.98113 11.0996 2.6573 11.39V21.6286Z" stroke-dasharray="0,0,0,0,0,102.81458282470703"><animate attributeType="XML" attributeName="stroke-dasharray" repeatCount="indefinite" dur="3.8082946321499764s" values="0,0,0,0,0,102.81458282470703; 
          0,0,0,13.76895291128976,61.507724090837755,27.53790582257952; 
          0,0,34.27152760823568,0,68.54305521647136,102.81458282470703; 
          0,0,68.54305521647136,0,34.27152760823568,102.81458282470703; 
          0,0,85.67881902058919,17.13576380411784,0,0; 
          0,102.81458282470703,0,34.27152760823568,0,102.81458282470703" keyTimes="0; 0.16666666666666666; 0.3333; 0.6666; 0.8333; 1" begin="0.3409495484385708s"></animate></path>
<path d="M14.7201 27.168C14.9296 27.2718 15.1963 27.3651 15.5201 27.4481C15.863 27.5519 16.1963 27.6037 16.5202 27.6037C17.5678 27.6037 18.3869 27.3444 18.9774 26.8257C19.568 26.3278 20.1013 25.5083 20.5775 24.3672C19.3775 21.8776 18.2536 19.2427 17.2059 16.4627C16.1773 13.6618 15.3201 10.8299 14.6343 7.9668H17.4916C17.7012 8.90041 17.9488 9.90664 18.2345 10.9855C18.5393 12.0643 18.8727 13.1743 19.2346 14.3154C19.5965 15.4564 19.987 16.5975 20.4061 17.7386C20.8252 18.8797 21.2633 19.9793 21.7205 21.0373C22.4443 18.8589 23.0729 16.7012 23.6063 14.5643C24.1397 12.4274 24.6444 10.2282 25.1207 7.9668H27.8637C27.1779 11.0166 26.416 13.9523 25.5778 16.7739C24.7397 19.5747 23.8349 22.1992 22.8634 24.6473C22.4824 25.5809 22.0824 26.3797 21.6633 27.0436C21.2633 27.7282 20.8156 28.2884 20.3204 28.7241C19.8251 29.1598 19.2632 29.4813 18.6346 29.6888C18.025 29.8963 17.3297 30 16.5487 30C16.3392 30 16.1201 29.9792 15.8916 29.9378C15.663 29.917 15.4344 29.8755 15.2058 29.8133C14.9963 29.7718 14.7963 29.7199 14.6058 29.6577C14.4343 29.5954 14.3105 29.5436 14.2343 29.5021L14.7201 27.168Z" stroke-dasharray="0,0,0,0,0,88.92264556884766"><animate attributeType="XML" attributeName="stroke-dasharray" repeatCount="indefinite" dur="3.9039168144992846s" values="0,0,0,0,0,88.92264556884766; 
          0,0,0,10.542554811675046,57.29498113382252,21.085109623350093; 
          0,0,29.64088185628255,0,59.2817637125651,88.92264556884766; 
          0,0,59.2817637125651,0,29.64088185628255,88.92264556884766; 
          0,0,74.10220464070638,14.820440928141275,0,0; 
          0,88.92264556884766,0,29.64088185628255,0,88.92264556884766" keyTimes="0; 0.16666666666666666; 0.3333; 0.6666; 0.8333; 1" begin="0.23251147212145473s"></animate></path>
<path d="M42.7079 2.36514C45.489 2.36514 47.6224 2.94606 49.1082 4.10788C50.6131 5.24896 51.3655 6.96058 51.3655 9.24274C51.3655 10.4876 51.156 11.556 50.7369 12.4481C50.3369 13.3195 49.7464 14.0353 48.9654 14.5954C48.2034 15.1349 47.27 15.529 46.1652 15.778C45.0604 16.027 43.8127 16.1515 42.4221 16.1515H40.222V24.1494H37.4504V2.89419C38.2314 2.68672 39.0981 2.55187 40.0506 2.48963C41.022 2.40664 41.9078 2.36514 42.7079 2.36514ZM42.9364 5.01037C41.7554 5.01037 40.8506 5.04149 40.222 5.10373V13.5685H42.3078C43.2603 13.5685 44.1175 13.5062 44.8794 13.3817C45.6414 13.2365 46.2795 13.0083 46.7938 12.6971C47.3272 12.3651 47.7367 11.9191 48.0224 11.3589C48.3082 10.7988 48.451 10.083 48.451 9.21162C48.451 8.38174 48.2987 7.69709 47.9939 7.15768C47.7081 6.61826 47.3081 6.19295 46.7938 5.88174C46.2985 5.54979 45.7176 5.32158 45.0508 5.1971C44.3841 5.07261 43.6793 5.01037 42.9364 5.01037Z" stroke-dasharray="0,0,0,0,0,94.89751434326172"><animate attributeType="XML" attributeName="stroke-dasharray" repeatCount="indefinite" dur="3.359432738368363s" values="0,0,0,0,0,94.89751434326172; 
          0,0,0,12.451321855649839,57.5435487763122,24.902643711299678; 
          0,0,31.63250478108724,0,63.26500956217448,94.89751434326172; 
          0,0,63.26500956217448,0,31.63250478108724,94.89751434326172; 
          0,0,79.0812619527181,15.81625239054362,0,0; 
          0,94.89751434326172,0,31.63250478108724,0,94.89751434326172" keyTimes="0; 0.16666666666666666; 0.3333; 0.6666; 0.8333; 1" begin="0.9386625689829992s"></animate></path>
<path d="M60.1488 7.62448C60.3774 7.62448 60.6346 7.64523 60.9203 7.68672C61.2251 7.70747 61.5203 7.74896 61.8061 7.8112C62.0918 7.8527 62.349 7.90456 62.5775 7.9668C62.8252 8.0083 63.0061 8.04979 63.1204 8.09129L62.6633 10.612C62.4537 10.529 62.1013 10.4357 61.6061 10.3319C61.1298 10.2075 60.5108 10.1452 59.7488 10.1452C59.2535 10.1452 58.7583 10.2075 58.263 10.3319C57.7868 10.4357 57.4725 10.5083 57.3201 10.5498V24.1494H54.6628V8.65145C55.2914 8.40249 56.0724 8.17427 57.0058 7.9668C57.9392 7.73859 58.9869 7.62448 60.1488 7.62448Z" stroke-dasharray="0,0,0,0,0,48.37956619262695"><animate attributeType="XML" attributeName="stroke-dasharray" repeatCount="indefinite" dur="3.70369542023003s" values="0,0,0,0,0,48.37956619262695; 
          0,0,0,4.830913413541585,33.8868259520022,9.66182682708317; 
          0,0,16.126522064208984,0,32.25304412841797,48.37956619262695; 
          0,0,32.25304412841797,0,16.126522064208984,48.37956619262695; 
          0,0,40.31630516052246,8.063261032104492,0,0; 
          0,48.37956619262695,0,16.126522064208984,0,48.37956619262695" keyTimes="0; 0.16666666666666666; 0.3333; 0.6666; 0.8333; 1" begin="0.9039625554482821s"></animate></path>
<path d="M78.7997 16.0581C78.7997 17.3444 78.6283 18.5062 78.2854 19.5436C77.9425 20.5809 77.4568 21.473 76.8281 22.2199C76.2186 22.9668 75.4852 23.5477 74.628 23.9627C73.7708 24.3568 72.8374 24.5539 71.8279 24.5539C70.8183 24.5539 69.8849 24.3568 69.0277 23.9627C68.1705 23.5477 67.4276 22.9668 66.799 22.2199C66.1894 21.473 65.7132 20.5809 65.3703 19.5436C65.0275 18.5062 64.856 17.3444 64.856 16.0581C64.856 14.7925 65.0275 13.6411 65.3703 12.6037C65.7132 11.5456 66.1894 10.6432 66.799 9.89626C67.4276 9.14938 68.1705 8.57884 69.0277 8.18465C69.8849 7.76971 70.8183 7.56224 71.8279 7.56224C72.8374 7.56224 73.7708 7.76971 74.628 8.18465C75.4852 8.57884 76.2186 9.14938 76.8281 9.89626C77.4568 10.6432 77.9425 11.5456 78.2854 12.6037C78.6283 13.6411 78.7997 14.7925 78.7997 16.0581ZM76.0281 16.0581C76.0281 14.2324 75.6471 12.7905 74.8852 11.7324C74.1423 10.6535 73.1232 10.1141 71.8279 10.1141C70.5325 10.1141 69.5039 10.6535 68.742 11.7324C67.9991 12.7905 67.6276 14.2324 67.6276 16.0581C67.6276 17.8838 67.9991 19.3361 68.742 20.4149C69.5039 21.473 70.5325 22.0021 71.8279 22.0021C73.1232 22.0021 74.1423 21.473 74.8852 20.4149C75.6471 19.3361 76.0281 17.8838 76.0281 16.0581Z" stroke-dasharray="0,0,0,0,0,81.94625854492188"><animate attributeType="XML" attributeName="stroke-dasharray" repeatCount="indefinite" dur="3.6141269590011014s" values="0,0,0,0,0,81.94625854492188; 
          0,0,0,9.721121687691062,52.78289348184869,19.442243375382123; 
          0,0,27.315419514973957,0,54.630839029947914,81.94625854492188; 
          0,0,54.630839029947914,0,27.315419514973957,81.94625854492188; 
          0,0,68.28854878743489,13.657709757486979,0,0; 
          0,81.94625854492188,0,27.315419514973957,0,81.94625854492188" keyTimes="0; 0.16666666666666666; 0.3333; 0.6666; 0.8333; 1" begin="0.9587997331621312s"></animate></path>
<path d="M85.0242 7.9668H90.6531V10.3942H85.0242V17.8631C85.0242 18.6722 85.0813 19.3465 85.1956 19.8859C85.3099 20.4046 85.4813 20.8195 85.7099 21.1307C85.9385 21.4212 86.2242 21.6286 86.5671 21.7531C86.91 21.8776 87.31 21.9398 87.7672 21.9398C88.5672 21.9398 89.2054 21.8465 89.6816 21.6598C90.1768 21.4523 90.5197 21.3071 90.7102 21.2241L91.2245 23.6203C90.9578 23.7656 90.4911 23.9419 89.8244 24.1494C89.1577 24.3776 88.3958 24.4917 87.5386 24.4917C86.529 24.4917 85.6909 24.3568 85.0242 24.0871C84.3765 23.7967 83.8527 23.3714 83.4526 22.8112C83.0526 22.251 82.7669 21.5664 82.5955 20.7573C82.4431 19.9274 82.3669 18.973 82.3669 17.8942V3.45436L85.0242 2.95643V7.9668Z" stroke-dasharray="0,0,0,0,0,68.05422973632812"><animate attributeType="XML" attributeName="stroke-dasharray" repeatCount="indefinite" dur="4.158024264197424s" values="0,0,0,0,0,68.05422973632812; 
          0,0,0,7.441837907432313,45.728716014031185,14.883675814864626; 
          0,0,22.684743245442707,0,45.369486490885414,68.05422973632812; 
          0,0,45.369486490885414,0,22.684743245442707,68.05422973632812; 
          0,0,56.71185811360677,11.342371622721354,0,0; 
          0,68.05422973632812,0,22.684743245442707,0,68.05422973632812" keyTimes="0; 0.16666666666666666; 0.3333; 0.6666; 0.8333; 1" begin="1.0112310916822986s"></animate></path>
<path d="M106.759 16.0581C106.759 17.3444 106.587 18.5062 106.245 19.5436C105.902 20.5809 105.416 21.473 104.787 22.2199C104.178 22.9668 103.444 23.5477 102.587 23.9627C101.73 24.3568 100.797 24.5539 99.7871 24.5539C98.7775 24.5539 97.8441 24.3568 96.9869 23.9627C96.1297 23.5477 95.3868 22.9668 94.7582 22.2199C94.1487 21.473 93.6724 20.5809 93.3296 19.5436C92.9867 18.5062 92.8152 17.3444 92.8152 16.0581C92.8152 14.7925 92.9867 13.6411 93.3296 12.6037C93.6724 11.5456 94.1487 10.6432 94.7582 9.89626C95.3868 9.14938 96.1297 8.57884 96.9869 8.18465C97.8441 7.76971 98.7775 7.56224 99.7871 7.56224C100.797 7.56224 101.73 7.76971 102.587 8.18465C103.444 8.57884 104.178 9.14938 104.787 9.89626C105.416 10.6432 105.902 11.5456 106.245 12.6037C106.587 13.6411 106.759 14.7925 106.759 16.0581ZM103.987 16.0581C103.987 14.2324 103.606 12.7905 102.844 11.7324C102.101 10.6535 101.082 10.1141 99.7871 10.1141C98.4918 10.1141 97.4631 10.6535 96.7012 11.7324C95.9583 12.7905 95.5868 14.2324 95.5868 16.0581C95.5868 17.8838 95.9583 19.3361 96.7012 20.4149C97.4631 21.473 98.4918 22.0021 99.7871 22.0021C101.082 22.0021 102.101 21.473 102.844 20.4149C103.606 19.3361 103.987 17.8838 103.987 16.0581Z" stroke-dasharray="0,0,0,0,0,81.94550323486328"><animate attributeType="XML" attributeName="stroke-dasharray" repeatCount="indefinite" dur="4.039371231169978s" values="0,0,0,0,0,81.94550323486328; 
          0,0,0,10.233627241475611,51.244621510436446,20.467254482951223; 
          0,0,27.315167744954426,0,54.63033548990885,81.94550323486328; 
          0,0,54.63033548990885,0,27.315167744954426,81.94550323486328; 
          0,0,68.28791936238606,13.657583872477213,0,0; 
          0,81.94550323486328,0,27.315167744954426,0,81.94550323486328" keyTimes="0; 0.16666666666666666; 0.3333; 0.6666; 0.8333; 1" begin="1.0281374692765513s"></animate></path>
<path d="M113.955 22.0643C115.041 22.0643 115.841 21.9087 116.355 21.5975C116.888 21.2863 117.155 20.7884 117.155 20.1037C117.155 19.3983 116.898 18.8382 116.384 18.4232C115.869 18.0083 115.022 17.5415 113.841 17.0228C113.269 16.7739 112.717 16.5249 112.183 16.2759C111.669 16.0062 111.221 15.695 110.84 15.3423C110.459 14.9896 110.155 14.5643 109.926 14.0664C109.697 13.5685 109.583 12.9564 109.583 12.2303C109.583 10.7988 110.069 9.66805 111.04 8.83817C112.012 7.98755 113.336 7.56224 115.012 7.56224C115.431 7.56224 115.85 7.59336 116.269 7.6556C116.688 7.6971 117.079 7.75934 117.441 7.84232C117.803 7.90456 118.117 7.97718 118.384 8.06017C118.669 8.14315 118.888 8.21577 119.041 8.27801L118.555 10.7676C118.269 10.6017 117.822 10.4357 117.212 10.2697C116.603 10.083 115.869 9.98963 115.012 9.98963C114.269 9.98963 113.622 10.1556 113.069 10.4876C112.517 10.7988 112.24 11.2967 112.24 11.9813C112.24 12.334 112.298 12.6452 112.412 12.9149C112.545 13.1846 112.736 13.4336 112.983 13.6618C113.25 13.8693 113.574 14.0664 113.955 14.2531C114.336 14.4398 114.793 14.6369 115.326 14.8444C116.031 15.1349 116.66 15.4253 117.212 15.7158C117.765 15.9855 118.231 16.3071 118.612 16.6805C119.012 17.0539 119.317 17.5104 119.527 18.0498C119.736 18.5685 119.841 19.2116 119.841 19.9793C119.841 21.473 119.327 22.6037 118.298 23.3714C117.288 24.139 115.841 24.5228 113.955 24.5228C112.641 24.5228 111.612 24.3983 110.869 24.1494C110.126 23.9212 109.621 23.7448 109.355 23.6203L109.84 21.1307C110.145 21.2552 110.631 21.4419 111.298 21.6909C111.964 21.9398 112.85 22.0643 113.955 22.0643Z" stroke-dasharray="0,0,0,0,0,70.144287109375"><animate attributeType="XML" attributeName="stroke-dasharray" repeatCount="indefinite" dur="4.08614851650569s" values="0,0,0,0,0,70.144287109375; 
          0,0,0,9.041687525793053,43.01922453199584,18.083375051586106; 
          0,0,23.381429036458332,0,46.762858072916664,70.144287109375; 
          0,0,46.762858072916664,0,23.381429036458332,70.144287109375; 
          0,0,58.453572591145836,11.690714518229166,0,0; 
          0,70.144287109375,0,23.381429036458332,0,70.144287109375" keyTimes="0; 0.16666666666666666; 0.3333; 0.6666; 0.8333; 1" begin="1.3110205194090971s"></animate></path>
<path d="M135.079 23.6826C134.469 23.8485 133.66 24.0249 132.65 24.2116C131.659 24.3983 130.507 24.4917 129.193 24.4917C128.05 24.4917 127.088 24.3154 126.307 23.9627C125.526 23.5892 124.897 23.0705 124.421 22.4066C123.945 21.7427 123.602 20.9647 123.392 20.0726C123.183 19.1597 123.078 18.1535 123.078 17.0539V7.9668H125.735V16.4315C125.735 18.4025 126.021 19.8133 126.592 20.6639C127.164 21.5145 128.126 21.9398 129.478 21.9398C129.764 21.9398 130.059 21.9295 130.364 21.9087C130.669 21.888 130.955 21.8672 131.221 21.8465C131.488 21.805 131.726 21.7739 131.936 21.7531C132.164 21.7116 132.326 21.6701 132.421 21.6286V7.9668H135.079V23.6826Z" stroke-dasharray="0,0,0,0,0,79.87810516357422"><animate attributeType="XML" attributeName="stroke-dasharray" repeatCount="indefinite" dur="3.6747839392077033s" values="0,0,0,0,0,79.87810516357422; 
          0,0,0,8.92382642100956,53.10662590054554,17.84765284201912; 
          0,0,26.62603505452474,0,53.25207010904948,79.87810516357422; 
          0,0,53.25207010904948,0,26.62603505452474,79.87810516357422; 
          0,0,66.56508763631184,13.31301752726237,0,0; 
          0,79.87810516357422,0,26.62603505452474,0,79.87810516357422" keyTimes="0; 0.16666666666666666; 0.3333; 0.6666; 0.8333; 1" begin="0.8771045752264031s"></animate></path>
<path d="M143.114 22.0643C144.2 22.0643 145 21.9087 145.514 21.5975C146.047 21.2863 146.314 20.7884 146.314 20.1037C146.314 19.3983 146.057 18.8382 145.543 18.4232C145.028 18.0083 144.181 17.5415 143 17.0228C142.428 16.7739 141.876 16.5249 141.342 16.2759C140.828 16.0062 140.38 15.695 139.999 15.3423C139.618 14.9896 139.314 14.5643 139.085 14.0664C138.857 13.5685 138.742 12.9564 138.742 12.2303C138.742 10.7988 139.228 9.66805 140.199 8.83817C141.171 7.98755 142.495 7.56224 144.171 7.56224C144.59 7.56224 145.009 7.59336 145.428 7.6556C145.847 7.6971 146.238 7.75934 146.6 7.84232C146.962 7.90456 147.276 7.97718 147.543 8.06017C147.828 8.14315 148.048 8.21577 148.2 8.27801L147.714 10.7676C147.428 10.6017 146.981 10.4357 146.371 10.2697C145.762 10.083 145.028 9.98963 144.171 9.98963C143.428 9.98963 142.781 10.1556 142.228 10.4876C141.676 10.7988 141.4 11.2967 141.4 11.9813C141.4 12.334 141.457 12.6452 141.571 12.9149C141.704 13.1846 141.895 13.4336 142.142 13.6618C142.409 13.8693 142.733 14.0664 143.114 14.2531C143.495 14.4398 143.952 14.6369 144.485 14.8444C145.19 15.1349 145.819 15.4253 146.371 15.7158C146.924 15.9855 147.39 16.3071 147.771 16.6805C148.171 17.0539 148.476 17.5104 148.686 18.0498C148.895 18.5685 149 19.2116 149 19.9793C149 21.473 148.486 22.6037 147.457 23.3714C146.447 24.139 145 24.5228 143.114 24.5228C141.8 24.5228 140.771 24.3983 140.028 24.1494C139.285 23.9212 138.78 23.7448 138.514 23.6203L138.999 21.1307C139.304 21.2552 139.79 21.4419 140.457 21.6909C141.123 21.9398 142.009 22.0643 143.114 22.0643Z" stroke-dasharray="0,0,0,0,0,70.1435546875"><animate attributeType="XML" attributeName="stroke-dasharray" repeatCount="indefinite" dur="3.764800433680554s" values="0,0,0,0,0,70.1435546875; 
          0,0,0,6.7390821212197825,49.92630832384065,13.478164242439565; 
          0,0,23.381184895833332,0,46.762369791666664,70.1435546875; 
          0,0,46.762369791666664,0,23.381184895833332,70.1435546875; 
          0,0,58.452962239583336,11.690592447916666,0,0; 
          0,70.1435546875,0,23.381184895833332,0,70.1435546875" keyTimes="0; 0.16666666666666666; 0.3333; 0.6666; 0.8333; 1" begin="1.1975993276842105s"></animate></path>
</mask>
<path d="M2.6573 8.68257C2.98113 8.45436 3.46687 8.21577 4.11453 7.9668C4.78123 7.71784 5.54318 7.59336 6.40037 7.59336C7.4671 7.59336 8.41002 7.80083 9.22911 8.21577C10.0673 8.6307 10.7721 9.21162 11.3435 9.95851C11.915 10.7054 12.3436 11.5975 12.6293 12.6349C12.9341 13.6722 13.0865 14.8133 13.0865 16.0581C13.0865 17.3651 12.9055 18.5477 12.5436 19.6058C12.2007 20.6432 11.7054 21.5249 11.0578 22.251C10.4101 22.9772 9.62913 23.5373 8.7148 23.9315C7.80046 24.3257 6.77182 24.5228 5.6289 24.5228C4.39073 24.5228 3.29543 24.4295 2.34299 24.2427C1.39056 24.056 0.609559 23.8693 0 23.6826V0.497924L2.6573 0V8.68257ZM2.6573 21.6286C2.92398 21.7116 3.29543 21.7946 3.77165 21.8776C4.26692 21.9398 4.87648 21.971 5.60033 21.971C7.02898 21.971 8.17191 21.4627 9.0291 20.4461C9.88629 19.4087 10.3149 17.9461 10.3149 16.0581C10.3149 15.2282 10.2387 14.4502 10.0863 13.7241C9.93391 12.9979 9.68628 12.3755 9.3434 11.8568C9.00053 11.3174 8.55288 10.9025 8.00047 10.612C7.4671 10.3008 6.81945 10.1452 6.0575 10.1452C5.33364 10.1452 4.66694 10.2801 4.05738 10.5498C3.44782 10.8195 2.98113 11.0996 2.6573 11.39V21.6286Z" stroke="#FF9C06" stroke-width="16" mask="url(#path-1-inside-1_1103_3417)" stroke-dasharray="0,0,0,0,0,102.81458282470703"><animate attributeType="XML" attributeName="stroke-dasharray" repeatCount="indefinite" dur="3.4231144158728766s" values="0,0,0,0,0,102.81458282470703; 
          0,0,0,9.283308328033968,74.96465784060513,18.566616656067936; 
          0,0,34.27152760823568,0,68.54305521647136,102.81458282470703; 
          0,0,68.54305521647136,0,34.27152760823568,102.81458282470703; 
          0,0,85.67881902058919,17.13576380411784,0,0; 
          0,102.81458282470703,0,34.27152760823568,0,102.81458282470703" keyTimes="0; 0.16666666666666666; 0.3333; 0.6666; 0.8333; 1" begin="0.973732260144381s"></animate></path>
<path d="M2.6573 8.68257C2.98113 8.45436 3.46687 8.21577 4.11453 7.9668C4.78123 7.71784 5.54318 7.59336 6.40037 7.59336C7.4671 7.59336 8.41002 7.80083 9.22911 8.21577C10.0673 8.6307 10.7721 9.21162 11.3435 9.95851C11.915 10.7054 12.3436 11.5975 12.6293 12.6349C12.9341 13.6722 13.0865 14.8133 13.0865 16.0581C13.0865 17.3651 12.9055 18.5477 12.5436 19.6058C12.2007 20.6432 11.7054 21.5249 11.0578 22.251C10.4101 22.9772 9.62913 23.5373 8.7148 23.9315C7.80046 24.3257 6.77182 24.5228 5.6289 24.5228C4.39073 24.5228 3.29543 24.4295 2.34299 24.2427C1.39056 24.056 0.609559 23.8693 0 23.6826V0.497924L2.6573 0V8.68257ZM2.6573 21.6286C2.92398 21.7116 3.29543 21.7946 3.77165 21.8776C4.26692 21.9398 4.87648 21.971 5.60033 21.971C7.02898 21.971 8.17191 21.4627 9.0291 20.4461C9.88629 19.4087 10.3149 17.9461 10.3149 16.0581C10.3149 15.2282 10.2387 14.4502 10.0863 13.7241C9.93391 12.9979 9.68628 12.3755 9.3434 11.8568C9.00053 11.3174 8.55288 10.9025 8.00047 10.612C7.4671 10.3008 6.81945 10.1452 6.0575 10.1452C5.33364 10.1452 4.66694 10.2801 4.05738 10.5498C3.44782 10.8195 2.98113 11.0996 2.6573 11.39V21.6286Z" stroke="#00DE73" stroke-width="16" mask="url(#path-1-inside-1_1103_3417)" stroke-dasharray="0,0,0,0,0,102.81458282470703"><animate attributeType="XML" attributeName="stroke-dasharray" repeatCount="indefinite" dur="4.047807481601311s" values="0,0,0,0,0,102.81458282470703; 
          0,0,0,10.57007731139169,71.10435089053196,21.14015462278338; 
          0,0,34.27152760823568,0,68.54305521647136,102.81458282470703; 
          0,0,68.54305521647136,0,34.27152760823568,102.81458282470703; 
          0,0,85.67881902058919,17.13576380411784,0,0; 
          0,102.81458282470703,0,34.27152760823568,0,102.81458282470703" keyTimes="0; 0.16666666666666666; 0.3333; 0.6666; 0.8333; 1" begin="1.263145050369943s"></animate></path>
<path d="M2.6573 8.68257C2.98113 8.45436 3.46687 8.21577 4.11453 7.9668C4.78123 7.71784 5.54318 7.59336 6.40037 7.59336C7.4671 7.59336 8.41002 7.80083 9.22911 8.21577C10.0673 8.6307 10.7721 9.21162 11.3435 9.95851C11.915 10.7054 12.3436 11.5975 12.6293 12.6349C12.9341 13.6722 13.0865 14.8133 13.0865 16.0581C13.0865 17.3651 12.9055 18.5477 12.5436 19.6058C12.2007 20.6432 11.7054 21.5249 11.0578 22.251C10.4101 22.9772 9.62913 23.5373 8.7148 23.9315C7.80046 24.3257 6.77182 24.5228 5.6289 24.5228C4.39073 24.5228 3.29543 24.4295 2.34299 24.2427C1.39056 24.056 0.609559 23.8693 0 23.6826V0.497924L2.6573 0V8.68257ZM2.6573 21.6286C2.92398 21.7116 3.29543 21.7946 3.77165 21.8776C4.26692 21.9398 4.87648 21.971 5.60033 21.971C7.02898 21.971 8.17191 21.4627 9.0291 20.4461C9.88629 19.4087 10.3149 17.9461 10.3149 16.0581C10.3149 15.2282 10.2387 14.4502 10.0863 13.7241C9.93391 12.9979 9.68628 12.3755 9.3434 11.8568C9.00053 11.3174 8.55288 10.9025 8.00047 10.612C7.4671 10.3008 6.81945 10.1452 6.0575 10.1452C5.33364 10.1452 4.66694 10.2801 4.05738 10.5498C3.44782 10.8195 2.98113 11.0996 2.6573 11.39V21.6286Z" stroke="#FA00FF" stroke-width="16" mask="url(#path-1-inside-1_1103_3417)" stroke-dasharray="0,0,0,0,0,102.81458282470703"><animate attributeType="XML" attributeName="stroke-dasharray" repeatCount="indefinite" dur="3.957108606688551s" values="0,0,0,0,0,102.81458282470703; 
          0,0,0,9.799603676995732,73.41577179371984,19.599207353991464; 
          0,0,34.27152760823568,0,68.54305521647136,102.81458282470703; 
          0,0,68.54305521647136,0,34.27152760823568,102.81458282470703; 
          0,0,85.67881902058919,17.13576380411784,0,0; 
          0,102.81458282470703,0,34.27152760823568,0,102.81458282470703" keyTimes="0; 0.16666666666666666; 0.3333; 0.6666; 0.8333; 1" begin="1.248381204710007s"></animate></path>
<path d="M14.7201 27.168C14.9296 27.2718 15.1963 27.3651 15.5201 27.4481C15.863 27.5519 16.1963 27.6037 16.5202 27.6037C17.5678 27.6037 18.3869 27.3444 18.9774 26.8257C19.568 26.3278 20.1013 25.5083 20.5775 24.3672C19.3775 21.8776 18.2536 19.2427 17.2059 16.4627C16.1773 13.6618 15.3201 10.8299 14.6343 7.9668H17.4916C17.7012 8.90041 17.9488 9.90664 18.2345 10.9855C18.5393 12.0643 18.8727 13.1743 19.2346 14.3154C19.5965 15.4564 19.987 16.5975 20.4061 17.7386C20.8252 18.8797 21.2633 19.9793 21.7205 21.0373C22.4443 18.8589 23.0729 16.7012 23.6063 14.5643C24.1397 12.4274 24.6444 10.2282 25.1207 7.9668H27.8637C27.1779 11.0166 26.416 13.9523 25.5778 16.7739C24.7397 19.5747 23.8349 22.1992 22.8634 24.6473C22.4824 25.5809 22.0824 26.3797 21.6633 27.0436C21.2633 27.7282 20.8156 28.2884 20.3204 28.7241C19.8251 29.1598 19.2632 29.4813 18.6346 29.6888C18.025 29.8963 17.3297 30 16.5487 30C16.3392 30 16.1201 29.9792 15.8916 29.9378C15.663 29.917 15.4344 29.8755 15.2058 29.8133C14.9963 29.7718 14.7963 29.7199 14.6058 29.6577C14.4343 29.5954 14.3105 29.5436 14.2343 29.5021L14.7201 27.168Z" stroke="#FF9C06" stroke-width="16" mask="url(#path-1-inside-1_1103_3417)" stroke-dasharray="0,0,0,0,0,88.92264556884766"><animate attributeType="XML" attributeName="stroke-dasharray" repeatCount="indefinite" dur="3.353263476159392s" values="0,0,0,0,0,88.92264556884766; 
          0,0,0,9.108826838385772,61.59616505369034,18.217653676771544; 
          0,0,29.64088185628255,0,59.2817637125651,88.92264556884766; 
          0,0,59.2817637125651,0,29.64088185628255,88.92264556884766; 
          0,0,74.10220464070638,14.820440928141275,0,0; 
          0,88.92264556884766,0,29.64088185628255,0,88.92264556884766" keyTimes="0; 0.16666666666666666; 0.3333; 0.6666; 0.8333; 1" begin="1.0614415970395448s"></animate></path>
<path d="M14.7201 27.168C14.9296 27.2718 15.1963 27.3651 15.5201 27.4481C15.863 27.5519 16.1963 27.6037 16.5202 27.6037C17.5678 27.6037 18.3869 27.3444 18.9774 26.8257C19.568 26.3278 20.1013 25.5083 20.5775 24.3672C19.3775 21.8776 18.2536 19.2427 17.2059 16.4627C16.1773 13.6618 15.3201 10.8299 14.6343 7.9668H17.4916C17.7012 8.90041 17.9488 9.90664 18.2345 10.9855C18.5393 12.0643 18.8727 13.1743 19.2346 14.3154C19.5965 15.4564 19.987 16.5975 20.4061 17.7386C20.8252 18.8797 21.2633 19.9793 21.7205 21.0373C22.4443 18.8589 23.0729 16.7012 23.6063 14.5643C24.1397 12.4274 24.6444 10.2282 25.1207 7.9668H27.8637C27.1779 11.0166 26.416 13.9523 25.5778 16.7739C24.7397 19.5747 23.8349 22.1992 22.8634 24.6473C22.4824 25.5809 22.0824 26.3797 21.6633 27.0436C21.2633 27.7282 20.8156 28.2884 20.3204 28.7241C19.8251 29.1598 19.2632 29.4813 18.6346 29.6888C18.025 29.8963 17.3297 30 16.5487 30C16.3392 30 16.1201 29.9792 15.8916 29.9378C15.663 29.917 15.4344 29.8755 15.2058 29.8133C14.9963 29.7718 14.7963 29.7199 14.6058 29.6577C14.4343 29.5954 14.3105 29.5436 14.2343 29.5021L14.7201 27.168Z" stroke="#00DE73" stroke-width="16" mask="url(#path-1-inside-1_1103_3417)" stroke-dasharray="0,0,0,0,0,88.92264556884766"><animate attributeType="XML" attributeName="stroke-dasharray" repeatCount="indefinite" dur="4.098903270857964s" values="0,0,0,0,0,88.92264556884766; 
          0,0,0,11.021776752847789,55.85731531030429,22.043553505695577; 
          0,0,29.64088185628255,0,59.2817637125651,88.92264556884766; 
          0,0,59.2817637125651,0,29.64088185628255,88.92264556884766; 
          0,0,74.10220464070638,14.820440928141275,0,0; 
          0,88.92264556884766,0,29.64088185628255,0,88.92264556884766" keyTimes="0; 0.16666666666666666; 0.3333; 0.6666; 0.8333; 1" begin="1.2175660162131214s"></animate></path>
<path d="M14.7201 27.168C14.9296 27.2718 15.1963 27.3651 15.5201 27.4481C15.863 27.5519 16.1963 27.6037 16.5202 27.6037C17.5678 27.6037 18.3869 27.3444 18.9774 26.8257C19.568 26.3278 20.1013 25.5083 20.5775 24.3672C19.3775 21.8776 18.2536 19.2427 17.2059 16.4627C16.1773 13.6618 15.3201 10.8299 14.6343 7.9668H17.4916C17.7012 8.90041 17.9488 9.90664 18.2345 10.9855C18.5393 12.0643 18.8727 13.1743 19.2346 14.3154C19.5965 15.4564 19.987 16.5975 20.4061 17.7386C20.8252 18.8797 21.2633 19.9793 21.7205 21.0373C22.4443 18.8589 23.0729 16.7012 23.6063 14.5643C24.1397 12.4274 24.6444 10.2282 25.1207 7.9668H27.8637C27.1779 11.0166 26.416 13.9523 25.5778 16.7739C24.7397 19.5747 23.8349 22.1992 22.8634 24.6473C22.4824 25.5809 22.0824 26.3797 21.6633 27.0436C21.2633 27.7282 20.8156 28.2884 20.3204 28.7241C19.8251 29.1598 19.2632 29.4813 18.6346 29.6888C18.025 29.8963 17.3297 30 16.5487 30C16.3392 30 16.1201 29.9792 15.8916 29.9378C15.663 29.917 15.4344 29.8755 15.2058 29.8133C14.9963 29.7718 14.7963 29.7199 14.6058 29.6577C14.4343 29.5954 14.3105 29.5436 14.2343 29.5021L14.7201 27.168Z" stroke="#FA00FF" stroke-width="16" mask="url(#path-1-inside-1_1103_3417)" stroke-dasharray="0,0,0,0,0,88.92264556884766"><animate attributeType="XML" attributeName="stroke-dasharray" repeatCount="indefinite" dur="3.6903050047485175s" values="0,0,0,0,0,88.92264556884766; 
          0,0,0,9.136932686149288,61.5118475103998,18.273865372298577; 
          0,0,29.64088185628255,0,59.2817637125651,88.92264556884766; 
          0,0,59.2817637125651,0,29.64088185628255,88.92264556884766; 
          0,0,74.10220464070638,14.820440928141275,0,0; 
          0,88.92264556884766,0,29.64088185628255,0,88.92264556884766" keyTimes="0; 0.16666666666666666; 0.3333; 0.6666; 0.8333; 1" begin="0.498972765373078s"></animate></path>
<path d="M42.7079 2.36514C45.489 2.36514 47.6224 2.94606 49.1082 4.10788C50.6131 5.24896 51.3655 6.96058 51.3655 9.24274C51.3655 10.4876 51.156 11.556 50.7369 12.4481C50.3369 13.3195 49.7464 14.0353 48.9654 14.5954C48.2034 15.1349 47.27 15.529 46.1652 15.778C45.0604 16.027 43.8127 16.1515 42.4221 16.1515H40.222V24.1494H37.4504V2.89419C38.2314 2.68672 39.0981 2.55187 40.0506 2.48963C41.022 2.40664 41.9078 2.36514 42.7079 2.36514ZM42.9364 5.01037C41.7554 5.01037 40.8506 5.04149 40.222 5.10373V13.5685H42.3078C43.2603 13.5685 44.1175 13.5062 44.8794 13.3817C45.6414 13.2365 46.2795 13.0083 46.7938 12.6971C47.3272 12.3651 47.7367 11.9191 48.0224 11.3589C48.3082 10.7988 48.451 10.083 48.451 9.21162C48.451 8.38174 48.2987 7.69709 47.9939 7.15768C47.7081 6.61826 47.3081 6.19295 46.7938 5.88174C46.2985 5.54979 45.7176 5.32158 45.0508 5.1971C44.3841 5.07261 43.6793 5.01037 42.9364 5.01037Z" stroke="#FF9C06" stroke-width="16" mask="url(#path-1-inside-1_1103_3417)" stroke-dasharray="0,0,0,0,0,94.89751434326172"><animate attributeType="XML" attributeName="stroke-dasharray" repeatCount="indefinite" dur="4.145638693998528s" values="0,0,0,0,0,94.89751434326172; 
          0,0,0,10.388569621254451,63.73180547949837,20.777139242508902; 
          0,0,31.63250478108724,0,63.26500956217448,94.89751434326172; 
          0,0,63.26500956217448,0,31.63250478108724,94.89751434326172; 
          0,0,79.0812619527181,15.81625239054362,0,0; 
          0,94.89751434326172,0,31.63250478108724,0,94.89751434326172" keyTimes="0; 0.16666666666666666; 0.3333; 0.6666; 0.8333; 1" begin="1.3540061051877228s"></animate></path>
<path d="M42.7079 2.36514C45.489 2.36514 47.6224 2.94606 49.1082 4.10788C50.6131 5.24896 51.3655 6.96058 51.3655 9.24274C51.3655 10.4876 51.156 11.556 50.7369 12.4481C50.3369 13.3195 49.7464 14.0353 48.9654 14.5954C48.2034 15.1349 47.27 15.529 46.1652 15.778C45.0604 16.027 43.8127 16.1515 42.4221 16.1515H40.222V24.1494H37.4504V2.89419C38.2314 2.68672 39.0981 2.55187 40.0506 2.48963C41.022 2.40664 41.9078 2.36514 42.7079 2.36514ZM42.9364 5.01037C41.7554 5.01037 40.8506 5.04149 40.222 5.10373V13.5685H42.3078C43.2603 13.5685 44.1175 13.5062 44.8794 13.3817C45.6414 13.2365 46.2795 13.0083 46.7938 12.6971C47.3272 12.3651 47.7367 11.9191 48.0224 11.3589C48.3082 10.7988 48.451 10.083 48.451 9.21162C48.451 8.38174 48.2987 7.69709 47.9939 7.15768C47.7081 6.61826 47.3081 6.19295 46.7938 5.88174C46.2985 5.54979 45.7176 5.32158 45.0508 5.1971C44.3841 5.07261 43.6793 5.01037 42.9364 5.01037Z" stroke="#00DE73" stroke-width="16" mask="url(#path-1-inside-1_1103_3417)" stroke-dasharray="0,0,0,0,0,94.89751434326172"><animate attributeType="XML" attributeName="stroke-dasharray" repeatCount="indefinite" dur="3.477712941229147s" values="0,0,0,0,0,94.89751434326172; 
          0,0,0,9.402682946655116,66.68946550329638,18.80536589331023; 
          0,0,31.63250478108724,0,63.26500956217448,94.89751434326172; 
          0,0,63.26500956217448,0,31.63250478108724,94.89751434326172; 
          0,0,79.0812619527181,15.81625239054362,0,0; 
          0,94.89751434326172,0,31.63250478108724,0,94.89751434326172" keyTimes="0; 0.16666666666666666; 0.3333; 0.6666; 0.8333; 1" begin="0.8865789428426079s"></animate></path>
<path d="M42.7079 2.36514C45.489 2.36514 47.6224 2.94606 49.1082 4.10788C50.6131 5.24896 51.3655 6.96058 51.3655 9.24274C51.3655 10.4876 51.156 11.556 50.7369 12.4481C50.3369 13.3195 49.7464 14.0353 48.9654 14.5954C48.2034 15.1349 47.27 15.529 46.1652 15.778C45.0604 16.027 43.8127 16.1515 42.4221 16.1515H40.222V24.1494H37.4504V2.89419C38.2314 2.68672 39.0981 2.55187 40.0506 2.48963C41.022 2.40664 41.9078 2.36514 42.7079 2.36514ZM42.9364 5.01037C41.7554 5.01037 40.8506 5.04149 40.222 5.10373V13.5685H42.3078C43.2603 13.5685 44.1175 13.5062 44.8794 13.3817C45.6414 13.2365 46.2795 13.0083 46.7938 12.6971C47.3272 12.3651 47.7367 11.9191 48.0224 11.3589C48.3082 10.7988 48.451 10.083 48.451 9.21162C48.451 8.38174 48.2987 7.69709 47.9939 7.15768C47.7081 6.61826 47.3081 6.19295 46.7938 5.88174C46.2985 5.54979 45.7176 5.32158 45.0508 5.1971C44.3841 5.07261 43.6793 5.01037 42.9364 5.01037Z" stroke="#FA00FF" stroke-width="16" mask="url(#path-1-inside-1_1103_3417)" stroke-dasharray="0,0,0,0,0,94.89751434326172"><animate attributeType="XML" attributeName="stroke-dasharray" repeatCount="indefinite" dur="3.43480604816626s" values="0,0,0,0,0,94.89751434326172; 
          0,0,0,10.44875281835376,63.55125588820044,20.89750563670752; 
          0,0,31.63250478108724,0,63.26500956217448,94.89751434326172; 
          0,0,63.26500956217448,0,31.63250478108724,94.89751434326172; 
          0,0,79.0812619527181,15.81625239054362,0,0; 
          0,94.89751434326172,0,31.63250478108724,0,94.89751434326172" keyTimes="0; 0.16666666666666666; 0.3333; 0.6666; 0.8333; 1" begin="0.7312879554793431s"></animate></path>
<path d="M60.1488 7.62448C60.3774 7.62448 60.6346 7.64523 60.9203 7.68672C61.2251 7.70747 61.5203 7.74896 61.8061 7.8112C62.0918 7.8527 62.349 7.90456 62.5775 7.9668C62.8252 8.0083 63.0061 8.04979 63.1204 8.09129L62.6633 10.612C62.4537 10.529 62.1013 10.4357 61.6061 10.3319C61.1298 10.2075 60.5108 10.1452 59.7488 10.1452C59.2535 10.1452 58.7583 10.2075 58.263 10.3319C57.7868 10.4357 57.4725 10.5083 57.3201 10.5498V24.1494H54.6628V8.65145C55.2914 8.40249 56.0724 8.17427 57.0058 7.9668C57.9392 7.73859 58.9869 7.62448 60.1488 7.62448Z" stroke="#FF9C06" stroke-width="16" mask="url(#path-1-inside-1_1103_3417)" stroke-dasharray="0,0,0,0,0,48.37956619262695"><animate attributeType="XML" attributeName="stroke-dasharray" repeatCount="indefinite" dur="3.928288968629589s" values="0,0,0,0,0,48.37956619262695; 
          0,0,0,6.092459166995301,30.10218869164105,12.184918333990602; 
          0,0,16.126522064208984,0,32.25304412841797,48.37956619262695; 
          0,0,32.25304412841797,0,16.126522064208984,48.37956619262695; 
          0,0,40.31630516052246,8.063261032104492,0,0; 
          0,48.37956619262695,0,16.126522064208984,0,48.37956619262695" keyTimes="0; 0.16666666666666666; 0.3333; 0.6666; 0.8333; 1" begin="0.09885320421653736s"></animate></path>
<path d="M60.1488 7.62448C60.3774 7.62448 60.6346 7.64523 60.9203 7.68672C61.2251 7.70747 61.5203 7.74896 61.8061 7.8112C62.0918 7.8527 62.349 7.90456 62.5775 7.9668C62.8252 8.0083 63.0061 8.04979 63.1204 8.09129L62.6633 10.612C62.4537 10.529 62.1013 10.4357 61.6061 10.3319C61.1298 10.2075 60.5108 10.1452 59.7488 10.1452C59.2535 10.1452 58.7583 10.2075 58.263 10.3319C57.7868 10.4357 57.4725 10.5083 57.3201 10.5498V24.1494H54.6628V8.65145C55.2914 8.40249 56.0724 8.17427 57.0058 7.9668C57.9392 7.73859 58.9869 7.62448 60.1488 7.62448Z" stroke="#00DE73" stroke-width="16" mask="url(#path-1-inside-1_1103_3417)" stroke-dasharray="0,0,0,0,0,48.37956619262695"><animate attributeType="XML" attributeName="stroke-dasharray" repeatCount="indefinite" dur="3.6397358743264485s" values="0,0,0,0,0,48.37956619262695; 
          0,0,0,5.352830321726376,32.32107522744782,10.705660643452752; 
          0,0,16.126522064208984,0,32.25304412841797,48.37956619262695; 
          0,0,32.25304412841797,0,16.126522064208984,48.37956619262695; 
          0,0,40.31630516052246,8.063261032104492,0,0; 
          0,48.37956619262695,0,16.126522064208984,0,48.37956619262695" keyTimes="0; 0.16666666666666666; 0.3333; 0.6666; 0.8333; 1" begin="0.03211201016278927s"></animate></path>
<path d="M60.1488 7.62448C60.3774 7.62448 60.6346 7.64523 60.9203 7.68672C61.2251 7.70747 61.5203 7.74896 61.8061 7.8112C62.0918 7.8527 62.349 7.90456 62.5775 7.9668C62.8252 8.0083 63.0061 8.04979 63.1204 8.09129L62.6633 10.612C62.4537 10.529 62.1013 10.4357 61.6061 10.3319C61.1298 10.2075 60.5108 10.1452 59.7488 10.1452C59.2535 10.1452 58.7583 10.2075 58.263 10.3319C57.7868 10.4357 57.4725 10.5083 57.3201 10.5498V24.1494H54.6628V8.65145C55.2914 8.40249 56.0724 8.17427 57.0058 7.9668C57.9392 7.73859 58.9869 7.62448 60.1488 7.62448Z" stroke="#FA00FF" stroke-width="16" mask="url(#path-1-inside-1_1103_3417)" stroke-dasharray="0,0,0,0,0,48.37956619262695"><animate attributeType="XML" attributeName="stroke-dasharray" repeatCount="indefinite" dur="4.139322849412316s" values="0,0,0,0,0,48.37956619262695; 
          0,0,0,5.838020206333669,30.86550557362595,11.676040412667337; 
          0,0,16.126522064208984,0,32.25304412841797,48.37956619262695; 
          0,0,32.25304412841797,0,16.126522064208984,48.37956619262695; 
          0,0,40.31630516052246,8.063261032104492,0,0; 
          0,48.37956619262695,0,16.126522064208984,0,48.37956619262695" keyTimes="0; 0.16666666666666666; 0.3333; 0.6666; 0.8333; 1" begin="1.2152174862776097s"></animate></path>
<path d="M78.7997 16.0581C78.7997 17.3444 78.6283 18.5062 78.2854 19.5436C77.9425 20.5809 77.4568 21.473 76.8281 22.2199C76.2186 22.9668 75.4852 23.5477 74.628 23.9627C73.7708 24.3568 72.8374 24.5539 71.8279 24.5539C70.8183 24.5539 69.8849 24.3568 69.0277 23.9627C68.1705 23.5477 67.4276 22.9668 66.799 22.2199C66.1894 21.473 65.7132 20.5809 65.3703 19.5436C65.0275 18.5062 64.856 17.3444 64.856 16.0581C64.856 14.7925 65.0275 13.6411 65.3703 12.6037C65.7132 11.5456 66.1894 10.6432 66.799 9.89626C67.4276 9.14938 68.1705 8.57884 69.0277 8.18465C69.8849 7.76971 70.8183 7.56224 71.8279 7.56224C72.8374 7.56224 73.7708 7.76971 74.628 8.18465C75.4852 8.57884 76.2186 9.14938 76.8281 9.89626C77.4568 10.6432 77.9425 11.5456 78.2854 12.6037C78.6283 13.6411 78.7997 14.7925 78.7997 16.0581ZM76.0281 16.0581C76.0281 14.2324 75.6471 12.7905 74.8852 11.7324C74.1423 10.6535 73.1232 10.1141 71.8279 10.1141C70.5325 10.1141 69.5039 10.6535 68.742 11.7324C67.9991 12.7905 67.6276 14.2324 67.6276 16.0581C67.6276 17.8838 67.9991 19.3361 68.742 20.4149C69.5039 21.473 70.5325 22.0021 71.8279 22.0021C73.1232 22.0021 74.1423 21.473 74.8852 20.4149C75.6471 19.3361 76.0281 17.8838 76.0281 16.0581Z" stroke="#FF9C06" stroke-width="16" mask="url(#path-1-inside-1_1103_3417)" stroke-dasharray="0,0,0,0,0,81.94625854492188"><animate attributeType="XML" attributeName="stroke-dasharray" repeatCount="indefinite" dur="3.4994261070576016s" values="0,0,0,0,0,81.94625854492188; 
          0,0,0,10.046439124533258,51.8069411713221,20.092878249066516; 
          0,0,27.315419514973957,0,54.630839029947914,81.94625854492188; 
          0,0,54.630839029947914,0,27.315419514973957,81.94625854492188; 
          0,0,68.28854878743489,13.657709757486979,0,0; 
          0,81.94625854492188,0,27.315419514973957,0,81.94625854492188" keyTimes="0; 0.16666666666666666; 0.3333; 0.6666; 0.8333; 1" begin="1.0135646218086485s"></animate></path>
<path d="M78.7997 16.0581C78.7997 17.3444 78.6283 18.5062 78.2854 19.5436C77.9425 20.5809 77.4568 21.473 76.8281 22.2199C76.2186 22.9668 75.4852 23.5477 74.628 23.9627C73.7708 24.3568 72.8374 24.5539 71.8279 24.5539C70.8183 24.5539 69.8849 24.3568 69.0277 23.9627C68.1705 23.5477 67.4276 22.9668 66.799 22.2199C66.1894 21.473 65.7132 20.5809 65.3703 19.5436C65.0275 18.5062 64.856 17.3444 64.856 16.0581C64.856 14.7925 65.0275 13.6411 65.3703 12.6037C65.7132 11.5456 66.1894 10.6432 66.799 9.89626C67.4276 9.14938 68.1705 8.57884 69.0277 8.18465C69.8849 7.76971 70.8183 7.56224 71.8279 7.56224C72.8374 7.56224 73.7708 7.76971 74.628 8.18465C75.4852 8.57884 76.2186 9.14938 76.8281 9.89626C77.4568 10.6432 77.9425 11.5456 78.2854 12.6037C78.6283 13.6411 78.7997 14.7925 78.7997 16.0581ZM76.0281 16.0581C76.0281 14.2324 75.6471 12.7905 74.8852 11.7324C74.1423 10.6535 73.1232 10.1141 71.8279 10.1141C70.5325 10.1141 69.5039 10.6535 68.742 11.7324C67.9991 12.7905 67.6276 14.2324 67.6276 16.0581C67.6276 17.8838 67.9991 19.3361 68.742 20.4149C69.5039 21.473 70.5325 22.0021 71.8279 22.0021C73.1232 22.0021 74.1423 21.473 74.8852 20.4149C75.6471 19.3361 76.0281 17.8838 76.0281 16.0581Z" stroke="#00DE73" stroke-width="16" mask="url(#path-1-inside-1_1103_3417)" stroke-dasharray="0,0,0,0,0,81.94625854492188"><animate attributeType="XML" attributeName="stroke-dasharray" repeatCount="indefinite" dur="3.518228430116837s" values="0,0,0,0,0,81.94625854492188; 
          0,0,0,10.242069152959887,51.22005108604221,20.484138305919775; 
          0,0,27.315419514973957,0,54.630839029947914,81.94625854492188; 
          0,0,54.630839029947914,0,27.315419514973957,81.94625854492188; 
          0,0,68.28854878743489,13.657709757486979,0,0; 
          0,81.94625854492188,0,27.315419514973957,0,81.94625854492188" keyTimes="0; 0.16666666666666666; 0.3333; 0.6666; 0.8333; 1" begin="0.1376320469208301s"></animate></path>
<path d="M78.7997 16.0581C78.7997 17.3444 78.6283 18.5062 78.2854 19.5436C77.9425 20.5809 77.4568 21.473 76.8281 22.2199C76.2186 22.9668 75.4852 23.5477 74.628 23.9627C73.7708 24.3568 72.8374 24.5539 71.8279 24.5539C70.8183 24.5539 69.8849 24.3568 69.0277 23.9627C68.1705 23.5477 67.4276 22.9668 66.799 22.2199C66.1894 21.473 65.7132 20.5809 65.3703 19.5436C65.0275 18.5062 64.856 17.3444 64.856 16.0581C64.856 14.7925 65.0275 13.6411 65.3703 12.6037C65.7132 11.5456 66.1894 10.6432 66.799 9.89626C67.4276 9.14938 68.1705 8.57884 69.0277 8.18465C69.8849 7.76971 70.8183 7.56224 71.8279 7.56224C72.8374 7.56224 73.7708 7.76971 74.628 8.18465C75.4852 8.57884 76.2186 9.14938 76.8281 9.89626C77.4568 10.6432 77.9425 11.5456 78.2854 12.6037C78.6283 13.6411 78.7997 14.7925 78.7997 16.0581ZM76.0281 16.0581C76.0281 14.2324 75.6471 12.7905 74.8852 11.7324C74.1423 10.6535 73.1232 10.1141 71.8279 10.1141C70.5325 10.1141 69.5039 10.6535 68.742 11.7324C67.9991 12.7905 67.6276 14.2324 67.6276 16.0581C67.6276 17.8838 67.9991 19.3361 68.742 20.4149C69.5039 21.473 70.5325 22.0021 71.8279 22.0021C73.1232 22.0021 74.1423 21.473 74.8852 20.4149C75.6471 19.3361 76.0281 17.8838 76.0281 16.0581Z" stroke="#FA00FF" stroke-width="16" mask="url(#path-1-inside-1_1103_3417)" stroke-dasharray="0,0,0,0,0,81.94625854492188"><animate attributeType="XML" attributeName="stroke-dasharray" repeatCount="indefinite" dur="3.99183618583936s" values="0,0,0,0,0,81.94625854492188; 
          0,0,0,8.85797376637084,55.372337245809355,17.71594753274168; 
          0,0,27.315419514973957,0,54.630839029947914,81.94625854492188; 
          0,0,54.630839029947914,0,27.315419514973957,81.94625854492188; 
          0,0,68.28854878743489,13.657709757486979,0,0; 
          0,81.94625854492188,0,27.315419514973957,0,81.94625854492188" keyTimes="0; 0.16666666666666666; 0.3333; 0.6666; 0.8333; 1" begin="0.7445090173049619s"></animate></path>
<path d="M85.0242 7.9668H90.6531V10.3942H85.0242V17.8631C85.0242 18.6722 85.0813 19.3465 85.1956 19.8859C85.3099 20.4046 85.4813 20.8195 85.7099 21.1307C85.9385 21.4212 86.2242 21.6286 86.5671 21.7531C86.91 21.8776 87.31 21.9398 87.7672 21.9398C88.5672 21.9398 89.2054 21.8465 89.6816 21.6598C90.1768 21.4523 90.5197 21.3071 90.7102 21.2241L91.2245 23.6203C90.9578 23.7656 90.4911 23.9419 89.8244 24.1494C89.1577 24.3776 88.3958 24.4917 87.5386 24.4917C86.529 24.4917 85.6909 24.3568 85.0242 24.0871C84.3765 23.7967 83.8527 23.3714 83.4526 22.8112C83.0526 22.251 82.7669 21.5664 82.5955 20.7573C82.4431 19.9274 82.3669 18.973 82.3669 17.8942V3.45436L85.0242 2.95643V7.9668Z" stroke="#FF9C06" stroke-width="16" mask="url(#path-1-inside-1_1103_3417)" stroke-dasharray="0,0,0,0,0,68.05422973632812"><animate attributeType="XML" attributeName="stroke-dasharray" repeatCount="indefinite" dur="3.6586650777085588s" values="0,0,0,0,0,68.05422973632812; 
          0,0,0,7.7676205232007876,44.75136816672576,15.535241046401575; 
          0,0,22.684743245442707,0,45.369486490885414,68.05422973632812; 
          0,0,45.369486490885414,0,22.684743245442707,68.05422973632812; 
          0,0,56.71185811360677,11.342371622721354,0,0; 
          0,68.05422973632812,0,22.684743245442707,0,68.05422973632812" keyTimes="0; 0.16666666666666666; 0.3333; 0.6666; 0.8333; 1" begin="1.061770002536416s"></animate></path>
<path d="M85.0242 7.9668H90.6531V10.3942H85.0242V17.8631C85.0242 18.6722 85.0813 19.3465 85.1956 19.8859C85.3099 20.4046 85.4813 20.8195 85.7099 21.1307C85.9385 21.4212 86.2242 21.6286 86.5671 21.7531C86.91 21.8776 87.31 21.9398 87.7672 21.9398C88.5672 21.9398 89.2054 21.8465 89.6816 21.6598C90.1768 21.4523 90.5197 21.3071 90.7102 21.2241L91.2245 23.6203C90.9578 23.7656 90.4911 23.9419 89.8244 24.1494C89.1577 24.3776 88.3958 24.4917 87.5386 24.4917C86.529 24.4917 85.6909 24.3568 85.0242 24.0871C84.3765 23.7967 83.8527 23.3714 83.4526 22.8112C83.0526 22.251 82.7669 21.5664 82.5955 20.7573C82.4431 19.9274 82.3669 18.973 82.3669 17.8942V3.45436L85.0242 2.95643V7.9668Z" stroke="#00DE73" stroke-width="16" mask="url(#path-1-inside-1_1103_3417)" stroke-dasharray="0,0,0,0,0,68.05422973632812"><animate attributeType="XML" attributeName="stroke-dasharray" repeatCount="indefinite" dur="3.6136628189307487s" values="0,0,0,0,0,68.05422973632812; 
          0,0,0,7.624741004165521,45.18000672383157,15.249482008331041; 
          0,0,22.684743245442707,0,45.369486490885414,68.05422973632812; 
          0,0,45.369486490885414,0,22.684743245442707,68.05422973632812; 
          0,0,56.71185811360677,11.342371622721354,0,0; 
          0,68.05422973632812,0,22.684743245442707,0,68.05422973632812" keyTimes="0; 0.16666666666666666; 0.3333; 0.6666; 0.8333; 1" begin="0.5480478565253959s"></animate></path>
<path d="M85.0242 7.9668H90.6531V10.3942H85.0242V17.8631C85.0242 18.6722 85.0813 19.3465 85.1956 19.8859C85.3099 20.4046 85.4813 20.8195 85.7099 21.1307C85.9385 21.4212 86.2242 21.6286 86.5671 21.7531C86.91 21.8776 87.31 21.9398 87.7672 21.9398C88.5672 21.9398 89.2054 21.8465 89.6816 21.6598C90.1768 21.4523 90.5197 21.3071 90.7102 21.2241L91.2245 23.6203C90.9578 23.7656 90.4911 23.9419 89.8244 24.1494C89.1577 24.3776 88.3958 24.4917 87.5386 24.4917C86.529 24.4917 85.6909 24.3568 85.0242 24.0871C84.3765 23.7967 83.8527 23.3714 83.4526 22.8112C83.0526 22.251 82.7669 21.5664 82.5955 20.7573C82.4431 19.9274 82.3669 18.973 82.3669 17.8942V3.45436L85.0242 2.95643V7.9668Z" stroke="#FA00FF" stroke-width="16" mask="url(#path-1-inside-1_1103_3417)" stroke-dasharray="0,0,0,0,0,68.05422973632812"><animate attributeType="XML" attributeName="stroke-dasharray" repeatCount="indefinite" dur="3.4232348383877227s" values="0,0,0,0,0,68.05422973632812; 
          0,0,0,8.450592294362774,42.702452853239805,16.90118458872555; 
          0,0,22.684743245442707,0,45.369486490885414,68.05422973632812; 
          0,0,45.369486490885414,0,22.684743245442707,68.05422973632812; 
          0,0,56.71185811360677,11.342371622721354,0,0; 
          0,68.05422973632812,0,22.684743245442707,0,68.05422973632812" keyTimes="0; 0.16666666666666666; 0.3333; 0.6666; 0.8333; 1" begin="0.344254533000894s"></animate></path>
<path d="M106.759 16.0581C106.759 17.3444 106.587 18.5062 106.245 19.5436C105.902 20.5809 105.416 21.473 104.787 22.2199C104.178 22.9668 103.444 23.5477 102.587 23.9627C101.73 24.3568 100.797 24.5539 99.7871 24.5539C98.7775 24.5539 97.8441 24.3568 96.9869 23.9627C96.1297 23.5477 95.3868 22.9668 94.7582 22.2199C94.1487 21.473 93.6724 20.5809 93.3296 19.5436C92.9867 18.5062 92.8152 17.3444 92.8152 16.0581C92.8152 14.7925 92.9867 13.6411 93.3296 12.6037C93.6724 11.5456 94.1487 10.6432 94.7582 9.89626C95.3868 9.14938 96.1297 8.57884 96.9869 8.18465C97.8441 7.76971 98.7775 7.56224 99.7871 7.56224C100.797 7.56224 101.73 7.76971 102.587 8.18465C103.444 8.57884 104.178 9.14938 104.787 9.89626C105.416 10.6432 105.902 11.5456 106.245 12.6037C106.587 13.6411 106.759 14.7925 106.759 16.0581ZM103.987 16.0581C103.987 14.2324 103.606 12.7905 102.844 11.7324C102.101 10.6535 101.082 10.1141 99.7871 10.1141C98.4918 10.1141 97.4631 10.6535 96.7012 11.7324C95.9583 12.7905 95.5868 14.2324 95.5868 16.0581C95.5868 17.8838 95.9583 19.3361 96.7012 20.4149C97.4631 21.473 98.4918 22.0021 99.7871 22.0021C101.082 22.0021 102.101 21.473 102.844 20.4149C103.606 19.3361 103.987 17.8838 103.987 16.0581Z" stroke="#FF9C06" stroke-width="16" mask="url(#path-1-inside-1_1103_3417)" stroke-dasharray="0,0,0,0,0,81.94550323486328"><animate attributeType="XML" attributeName="stroke-dasharray" repeatCount="indefinite" dur="4.112691147764654s" values="0,0,0,0,0,81.94550323486328; 
          0,0,0,10.11819670942099,51.59091310660031,20.23639341884198; 
          0,0,27.315167744954426,0,54.63033548990885,81.94550323486328; 
          0,0,54.63033548990885,0,27.315167744954426,81.94550323486328; 
          0,0,68.28791936238606,13.657583872477213,0,0; 
          0,81.94550323486328,0,27.315167744954426,0,81.94550323486328" keyTimes="0; 0.16666666666666666; 0.3333; 0.6666; 0.8333; 1" begin="0.39889187782067154s"></animate></path>
<path d="M106.759 16.0581C106.759 17.3444 106.587 18.5062 106.245 19.5436C105.902 20.5809 105.416 21.473 104.787 22.2199C104.178 22.9668 103.444 23.5477 102.587 23.9627C101.73 24.3568 100.797 24.5539 99.7871 24.5539C98.7775 24.5539 97.8441 24.3568 96.9869 23.9627C96.1297 23.5477 95.3868 22.9668 94.7582 22.2199C94.1487 21.473 93.6724 20.5809 93.3296 19.5436C92.9867 18.5062 92.8152 17.3444 92.8152 16.0581C92.8152 14.7925 92.9867 13.6411 93.3296 12.6037C93.6724 11.5456 94.1487 10.6432 94.7582 9.89626C95.3868 9.14938 96.1297 8.57884 96.9869 8.18465C97.8441 7.76971 98.7775 7.56224 99.7871 7.56224C100.797 7.56224 101.73 7.76971 102.587 8.18465C103.444 8.57884 104.178 9.14938 104.787 9.89626C105.416 10.6432 105.902 11.5456 106.245 12.6037C106.587 13.6411 106.759 14.7925 106.759 16.0581ZM103.987 16.0581C103.987 14.2324 103.606 12.7905 102.844 11.7324C102.101 10.6535 101.082 10.1141 99.7871 10.1141C98.4918 10.1141 97.4631 10.6535 96.7012 11.7324C95.9583 12.7905 95.5868 14.2324 95.5868 16.0581C95.5868 17.8838 95.9583 19.3361 96.7012 20.4149C97.4631 21.473 98.4918 22.0021 99.7871 22.0021C101.082 22.0021 102.101 21.473 102.844 20.4149C103.606 19.3361 103.987 17.8838 103.987 16.0581Z" stroke="#00DE73" stroke-width="16" mask="url(#path-1-inside-1_1103_3417)" stroke-dasharray="0,0,0,0,0,81.94550323486328"><animate attributeType="XML" attributeName="stroke-dasharray" repeatCount="indefinite" dur="3.66620317827348s" values="0,0,0,0,0,81.94550323486328; 
          0,0,0,10.334273632281295,50.942682338019395,20.66854726456259; 
          0,0,27.315167744954426,0,54.63033548990885,81.94550323486328; 
          0,0,54.63033548990885,0,27.315167744954426,81.94550323486328; 
          0,0,68.28791936238606,13.657583872477213,0,0; 
          0,81.94550323486328,0,27.315167744954426,0,81.94550323486328" keyTimes="0; 0.16666666666666666; 0.3333; 0.6666; 0.8333; 1" begin="0.6389726584626974s"></animate></path>
<path d="M106.759 16.0581C106.759 17.3444 106.587 18.5062 106.245 19.5436C105.902 20.5809 105.416 21.473 104.787 22.2199C104.178 22.9668 103.444 23.5477 102.587 23.9627C101.73 24.3568 100.797 24.5539 99.7871 24.5539C98.7775 24.5539 97.8441 24.3568 96.9869 23.9627C96.1297 23.5477 95.3868 22.9668 94.7582 22.2199C94.1487 21.473 93.6724 20.5809 93.3296 19.5436C92.9867 18.5062 92.8152 17.3444 92.8152 16.0581C92.8152 14.7925 92.9867 13.6411 93.3296 12.6037C93.6724 11.5456 94.1487 10.6432 94.7582 9.89626C95.3868 9.14938 96.1297 8.57884 96.9869 8.18465C97.8441 7.76971 98.7775 7.56224 99.7871 7.56224C100.797 7.56224 101.73 7.76971 102.587 8.18465C103.444 8.57884 104.178 9.14938 104.787 9.89626C105.416 10.6432 105.902 11.5456 106.245 12.6037C106.587 13.6411 106.759 14.7925 106.759 16.0581ZM103.987 16.0581C103.987 14.2324 103.606 12.7905 102.844 11.7324C102.101 10.6535 101.082 10.1141 99.7871 10.1141C98.4918 10.1141 97.4631 10.6535 96.7012 11.7324C95.9583 12.7905 95.5868 14.2324 95.5868 16.0581C95.5868 17.8838 95.9583 19.3361 96.7012 20.4149C97.4631 21.473 98.4918 22.0021 99.7871 22.0021C101.082 22.0021 102.101 21.473 102.844 20.4149C103.606 19.3361 103.987 17.8838 103.987 16.0581Z" stroke="#FA00FF" stroke-width="16" mask="url(#path-1-inside-1_1103_3417)" stroke-dasharray="0,0,0,0,0,81.94550323486328"><animate attributeType="XML" attributeName="stroke-dasharray" repeatCount="indefinite" dur="3.691666017304242s" values="0,0,0,0,0,81.94550323486328; 
          0,0,0,9.058994923870465,54.76851846325189,18.11798984774093; 
          0,0,27.315167744954426,0,54.63033548990885,81.94550323486328; 
          0,0,54.63033548990885,0,27.315167744954426,81.94550323486328; 
          0,0,68.28791936238606,13.657583872477213,0,0; 
          0,81.94550323486328,0,27.315167744954426,0,81.94550323486328" keyTimes="0; 0.16666666666666666; 0.3333; 0.6666; 0.8333; 1" begin="0.35382625844364457s"></animate></path>
<path d="M113.955 22.0643C115.041 22.0643 115.841 21.9087 116.355 21.5975C116.888 21.2863 117.155 20.7884 117.155 20.1037C117.155 19.3983 116.898 18.8382 116.384 18.4232C115.869 18.0083 115.022 17.5415 113.841 17.0228C113.269 16.7739 112.717 16.5249 112.183 16.2759C111.669 16.0062 111.221 15.695 110.84 15.3423C110.459 14.9896 110.155 14.5643 109.926 14.0664C109.697 13.5685 109.583 12.9564 109.583 12.2303C109.583 10.7988 110.069 9.66805 111.04 8.83817C112.012 7.98755 113.336 7.56224 115.012 7.56224C115.431 7.56224 115.85 7.59336 116.269 7.6556C116.688 7.6971 117.079 7.75934 117.441 7.84232C117.803 7.90456 118.117 7.97718 118.384 8.06017C118.669 8.14315 118.888 8.21577 119.041 8.27801L118.555 10.7676C118.269 10.6017 117.822 10.4357 117.212 10.2697C116.603 10.083 115.869 9.98963 115.012 9.98963C114.269 9.98963 113.622 10.1556 113.069 10.4876C112.517 10.7988 112.24 11.2967 112.24 11.9813C112.24 12.334 112.298 12.6452 112.412 12.9149C112.545 13.1846 112.736 13.4336 112.983 13.6618C113.25 13.8693 113.574 14.0664 113.955 14.2531C114.336 14.4398 114.793 14.6369 115.326 14.8444C116.031 15.1349 116.66 15.4253 117.212 15.7158C117.765 15.9855 118.231 16.3071 118.612 16.6805C119.012 17.0539 119.317 17.5104 119.527 18.0498C119.736 18.5685 119.841 19.2116 119.841 19.9793C119.841 21.473 119.327 22.6037 118.298 23.3714C117.288 24.139 115.841 24.5228 113.955 24.5228C112.641 24.5228 111.612 24.3983 110.869 24.1494C110.126 23.9212 109.621 23.7448 109.355 23.6203L109.84 21.1307C110.145 21.2552 110.631 21.4419 111.298 21.6909C111.964 21.9398 112.85 22.0643 113.955 22.0643Z" stroke="#FF9C06" stroke-width="16" mask="url(#path-1-inside-1_1103_3417)" stroke-dasharray="0,0,0,0,0,70.144287109375"><animate attributeType="XML" attributeName="stroke-dasharray" repeatCount="indefinite" dur="3.6381001606700893s" values="0,0,0,0,0,70.144287109375; 
          0,0,0,7.167892774680602,48.6406087853332,14.335785549361203; 
          0,0,23.381429036458332,0,46.762858072916664,70.144287109375; 
          0,0,46.762858072916664,0,23.381429036458332,70.144287109375; 
          0,0,58.453572591145836,11.690714518229166,0,0; 
          0,70.144287109375,0,23.381429036458332,0,70.144287109375" keyTimes="0; 0.16666666666666666; 0.3333; 0.6666; 0.8333; 1" begin="0.8630141430732571s"></animate></path>
<path d="M113.955 22.0643C115.041 22.0643 115.841 21.9087 116.355 21.5975C116.888 21.2863 117.155 20.7884 117.155 20.1037C117.155 19.3983 116.898 18.8382 116.384 18.4232C115.869 18.0083 115.022 17.5415 113.841 17.0228C113.269 16.7739 112.717 16.5249 112.183 16.2759C111.669 16.0062 111.221 15.695 110.84 15.3423C110.459 14.9896 110.155 14.5643 109.926 14.0664C109.697 13.5685 109.583 12.9564 109.583 12.2303C109.583 10.7988 110.069 9.66805 111.04 8.83817C112.012 7.98755 113.336 7.56224 115.012 7.56224C115.431 7.56224 115.85 7.59336 116.269 7.6556C116.688 7.6971 117.079 7.75934 117.441 7.84232C117.803 7.90456 118.117 7.97718 118.384 8.06017C118.669 8.14315 118.888 8.21577 119.041 8.27801L118.555 10.7676C118.269 10.6017 117.822 10.4357 117.212 10.2697C116.603 10.083 115.869 9.98963 115.012 9.98963C114.269 9.98963 113.622 10.1556 113.069 10.4876C112.517 10.7988 112.24 11.2967 112.24 11.9813C112.24 12.334 112.298 12.6452 112.412 12.9149C112.545 13.1846 112.736 13.4336 112.983 13.6618C113.25 13.8693 113.574 14.0664 113.955 14.2531C114.336 14.4398 114.793 14.6369 115.326 14.8444C116.031 15.1349 116.66 15.4253 117.212 15.7158C117.765 15.9855 118.231 16.3071 118.612 16.6805C119.012 17.0539 119.317 17.5104 119.527 18.0498C119.736 18.5685 119.841 19.2116 119.841 19.9793C119.841 21.473 119.327 22.6037 118.298 23.3714C117.288 24.139 115.841 24.5228 113.955 24.5228C112.641 24.5228 111.612 24.3983 110.869 24.1494C110.126 23.9212 109.621 23.7448 109.355 23.6203L109.84 21.1307C110.145 21.2552 110.631 21.4419 111.298 21.6909C111.964 21.9398 112.85 22.0643 113.955 22.0643Z" stroke="#00DE73" stroke-width="16" mask="url(#path-1-inside-1_1103_3417)" stroke-dasharray="0,0,0,0,0,70.144287109375"><animate attributeType="XML" attributeName="stroke-dasharray" repeatCount="indefinite" dur="3.5434700498299794s" values="0,0,0,0,0,70.144287109375; 
          0,0,0,7.679895459642491,47.10460073044753,15.359790919284983; 
          0,0,23.381429036458332,0,46.762858072916664,70.144287109375; 
          0,0,46.762858072916664,0,23.381429036458332,70.144287109375; 
          0,0,58.453572591145836,11.690714518229166,0,0; 
          0,70.144287109375,0,23.381429036458332,0,70.144287109375" keyTimes="0; 0.16666666666666666; 0.3333; 0.6666; 0.8333; 1" begin="1.1671852977401636s"></animate></path>
<path d="M113.955 22.0643C115.041 22.0643 115.841 21.9087 116.355 21.5975C116.888 21.2863 117.155 20.7884 117.155 20.1037C117.155 19.3983 116.898 18.8382 116.384 18.4232C115.869 18.0083 115.022 17.5415 113.841 17.0228C113.269 16.7739 112.717 16.5249 112.183 16.2759C111.669 16.0062 111.221 15.695 110.84 15.3423C110.459 14.9896 110.155 14.5643 109.926 14.0664C109.697 13.5685 109.583 12.9564 109.583 12.2303C109.583 10.7988 110.069 9.66805 111.04 8.83817C112.012 7.98755 113.336 7.56224 115.012 7.56224C115.431 7.56224 115.85 7.59336 116.269 7.6556C116.688 7.6971 117.079 7.75934 117.441 7.84232C117.803 7.90456 118.117 7.97718 118.384 8.06017C118.669 8.14315 118.888 8.21577 119.041 8.27801L118.555 10.7676C118.269 10.6017 117.822 10.4357 117.212 10.2697C116.603 10.083 115.869 9.98963 115.012 9.98963C114.269 9.98963 113.622 10.1556 113.069 10.4876C112.517 10.7988 112.24 11.2967 112.24 11.9813C112.24 12.334 112.298 12.6452 112.412 12.9149C112.545 13.1846 112.736 13.4336 112.983 13.6618C113.25 13.8693 113.574 14.0664 113.955 14.2531C114.336 14.4398 114.793 14.6369 115.326 14.8444C116.031 15.1349 116.66 15.4253 117.212 15.7158C117.765 15.9855 118.231 16.3071 118.612 16.6805C119.012 17.0539 119.317 17.5104 119.527 18.0498C119.736 18.5685 119.841 19.2116 119.841 19.9793C119.841 21.473 119.327 22.6037 118.298 23.3714C117.288 24.139 115.841 24.5228 113.955 24.5228C112.641 24.5228 111.612 24.3983 110.869 24.1494C110.126 23.9212 109.621 23.7448 109.355 23.6203L109.84 21.1307C110.145 21.2552 110.631 21.4419 111.298 21.6909C111.964 21.9398 112.85 22.0643 113.955 22.0643Z" stroke="#FA00FF" stroke-width="16" mask="url(#path-1-inside-1_1103_3417)" stroke-dasharray="0,0,0,0,0,70.144287109375"><animate attributeType="XML" attributeName="stroke-dasharray" repeatCount="indefinite" dur="4.058185891770185s" values="0,0,0,0,0,70.144287109375; 
          0,0,0,6.825940948925595,49.66646426259821,13.65188189785119; 
          0,0,23.381429036458332,0,46.762858072916664,70.144287109375; 
          0,0,46.762858072916664,0,23.381429036458332,70.144287109375; 
          0,0,58.453572591145836,11.690714518229166,0,0; 
          0,70.144287109375,0,23.381429036458332,0,70.144287109375" keyTimes="0; 0.16666666666666666; 0.3333; 0.6666; 0.8333; 1" begin="1.2876136649111007s"></animate></path>
<path d="M135.079 23.6826C134.469 23.8485 133.66 24.0249 132.65 24.2116C131.659 24.3983 130.507 24.4917 129.193 24.4917C128.05 24.4917 127.088 24.3154 126.307 23.9627C125.526 23.5892 124.897 23.0705 124.421 22.4066C123.945 21.7427 123.602 20.9647 123.392 20.0726C123.183 19.1597 123.078 18.1535 123.078 17.0539V7.9668H125.735V16.4315C125.735 18.4025 126.021 19.8133 126.592 20.6639C127.164 21.5145 128.126 21.9398 129.478 21.9398C129.764 21.9398 130.059 21.9295 130.364 21.9087C130.669 21.888 130.955 21.8672 131.221 21.8465C131.488 21.805 131.726 21.7739 131.936 21.7531C132.164 21.7116 132.326 21.6701 132.421 21.6286V7.9668H135.079V23.6826Z" stroke="#FF9C06" stroke-width="16" mask="url(#path-1-inside-1_1103_3417)" stroke-dasharray="0,0,0,0,0,79.87810516357422"><animate attributeType="XML" attributeName="stroke-dasharray" repeatCount="indefinite" dur="3.6887090354545036s" values="0,0,0,0,0,79.87810516357422; 
          0,0,0,9.44350852707156,51.54757958235954,18.88701705414312; 
          0,0,26.62603505452474,0,53.25207010904948,79.87810516357422; 
          0,0,53.25207010904948,0,26.62603505452474,79.87810516357422; 
          0,0,66.56508763631184,13.31301752726237,0,0; 
          0,79.87810516357422,0,26.62603505452474,0,79.87810516357422" keyTimes="0; 0.16666666666666666; 0.3333; 0.6666; 0.8333; 1" begin="0.1342639551394171s"></animate></path>
<path d="M135.079 23.6826C134.469 23.8485 133.66 24.0249 132.65 24.2116C131.659 24.3983 130.507 24.4917 129.193 24.4917C128.05 24.4917 127.088 24.3154 126.307 23.9627C125.526 23.5892 124.897 23.0705 124.421 22.4066C123.945 21.7427 123.602 20.9647 123.392 20.0726C123.183 19.1597 123.078 18.1535 123.078 17.0539V7.9668H125.735V16.4315C125.735 18.4025 126.021 19.8133 126.592 20.6639C127.164 21.5145 128.126 21.9398 129.478 21.9398C129.764 21.9398 130.059 21.9295 130.364 21.9087C130.669 21.888 130.955 21.8672 131.221 21.8465C131.488 21.805 131.726 21.7739 131.936 21.7531C132.164 21.7116 132.326 21.6701 132.421 21.6286V7.9668H135.079V23.6826Z" stroke="#00DE73" stroke-width="16" mask="url(#path-1-inside-1_1103_3417)" stroke-dasharray="0,0,0,0,0,79.87810516357422"><animate attributeType="XML" attributeName="stroke-dasharray" repeatCount="indefinite" dur="3.5306948978876838s" values="0,0,0,0,0,79.87810516357422; 
          0,0,0,8.186966353557414,55.31720610290197,16.37393270711483; 
          0,0,26.62603505452474,0,53.25207010904948,79.87810516357422; 
          0,0,53.25207010904948,0,26.62603505452474,79.87810516357422; 
          0,0,66.56508763631184,13.31301752726237,0,0; 
          0,79.87810516357422,0,26.62603505452474,0,79.87810516357422" keyTimes="0; 0.16666666666666666; 0.3333; 0.6666; 0.8333; 1" begin="0.7379253076296131s"></animate></path>
<path d="M135.079 23.6826C134.469 23.8485 133.66 24.0249 132.65 24.2116C131.659 24.3983 130.507 24.4917 129.193 24.4917C128.05 24.4917 127.088 24.3154 126.307 23.9627C125.526 23.5892 124.897 23.0705 124.421 22.4066C123.945 21.7427 123.602 20.9647 123.392 20.0726C123.183 19.1597 123.078 18.1535 123.078 17.0539V7.9668H125.735V16.4315C125.735 18.4025 126.021 19.8133 126.592 20.6639C127.164 21.5145 128.126 21.9398 129.478 21.9398C129.764 21.9398 130.059 21.9295 130.364 21.9087C130.669 21.888 130.955 21.8672 131.221 21.8465C131.488 21.805 131.726 21.7739 131.936 21.7531C132.164 21.7116 132.326 21.6701 132.421 21.6286V7.9668H135.079V23.6826Z" stroke="#FA00FF" stroke-width="16" mask="url(#path-1-inside-1_1103_3417)" stroke-dasharray="0,0,0,0,0,79.87810516357422"><animate attributeType="XML" attributeName="stroke-dasharray" repeatCount="indefinite" dur="4.043863867331517s" values="0,0,0,0,0,79.87810516357422; 
          0,0,0,10.88082336301877,47.23563507451791,21.76164672603754; 
          0,0,26.62603505452474,0,53.25207010904948,79.87810516357422; 
          0,0,53.25207010904948,0,26.62603505452474,79.87810516357422; 
          0,0,66.56508763631184,13.31301752726237,0,0; 
          0,79.87810516357422,0,26.62603505452474,0,79.87810516357422" keyTimes="0; 0.16666666666666666; 0.3333; 0.6666; 0.8333; 1" begin="1.2233341408689589s"></animate></path>
<path d="M143.114 22.0643C144.2 22.0643 145 21.9087 145.514 21.5975C146.047 21.2863 146.314 20.7884 146.314 20.1037C146.314 19.3983 146.057 18.8382 145.543 18.4232C145.028 18.0083 144.181 17.5415 143 17.0228C142.428 16.7739 141.876 16.5249 141.342 16.2759C140.828 16.0062 140.38 15.695 139.999 15.3423C139.618 14.9896 139.314 14.5643 139.085 14.0664C138.857 13.5685 138.742 12.9564 138.742 12.2303C138.742 10.7988 139.228 9.66805 140.199 8.83817C141.171 7.98755 142.495 7.56224 144.171 7.56224C144.59 7.56224 145.009 7.59336 145.428 7.6556C145.847 7.6971 146.238 7.75934 146.6 7.84232C146.962 7.90456 147.276 7.97718 147.543 8.06017C147.828 8.14315 148.048 8.21577 148.2 8.27801L147.714 10.7676C147.428 10.6017 146.981 10.4357 146.371 10.2697C145.762 10.083 145.028 9.98963 144.171 9.98963C143.428 9.98963 142.781 10.1556 142.228 10.4876C141.676 10.7988 141.4 11.2967 141.4 11.9813C141.4 12.334 141.457 12.6452 141.571 12.9149C141.704 13.1846 141.895 13.4336 142.142 13.6618C142.409 13.8693 142.733 14.0664 143.114 14.2531C143.495 14.4398 143.952 14.6369 144.485 14.8444C145.19 15.1349 145.819 15.4253 146.371 15.7158C146.924 15.9855 147.39 16.3071 147.771 16.6805C148.171 17.0539 148.476 17.5104 148.686 18.0498C148.895 18.5685 149 19.2116 149 19.9793C149 21.473 148.486 22.6037 147.457 23.3714C146.447 24.139 145 24.5228 143.114 24.5228C141.8 24.5228 140.771 24.3983 140.028 24.1494C139.285 23.9212 138.78 23.7448 138.514 23.6203L138.999 21.1307C139.304 21.2552 139.79 21.4419 140.457 21.6909C141.123 21.9398 142.009 22.0643 143.114 22.0643Z" stroke="#FF9C06" stroke-width="16" mask="url(#path-1-inside-1_1103_3417)" stroke-dasharray="0,0,0,0,0,70.1435546875"><animate attributeType="XML" attributeName="stroke-dasharray" repeatCount="indefinite" dur="3.5787519492497806s" values="0,0,0,0,0,70.1435546875; 
          0,0,0,7.297041079940562,48.25243144767831,14.594082159881124; 
          0,0,23.381184895833332,0,46.762369791666664,70.1435546875; 
          0,0,46.762369791666664,0,23.381184895833332,70.1435546875; 
          0,0,58.452962239583336,11.690592447916666,0,0; 
          0,70.1435546875,0,23.381184895833332,0,70.1435546875" keyTimes="0; 0.16666666666666666; 0.3333; 0.6666; 0.8333; 1" begin="0.7071781606394146s"></animate></path>
<path d="M143.114 22.0643C144.2 22.0643 145 21.9087 145.514 21.5975C146.047 21.2863 146.314 20.7884 146.314 20.1037C146.314 19.3983 146.057 18.8382 145.543 18.4232C145.028 18.0083 144.181 17.5415 143 17.0228C142.428 16.7739 141.876 16.5249 141.342 16.2759C140.828 16.0062 140.38 15.695 139.999 15.3423C139.618 14.9896 139.314 14.5643 139.085 14.0664C138.857 13.5685 138.742 12.9564 138.742 12.2303C138.742 10.7988 139.228 9.66805 140.199 8.83817C141.171 7.98755 142.495 7.56224 144.171 7.56224C144.59 7.56224 145.009 7.59336 145.428 7.6556C145.847 7.6971 146.238 7.75934 146.6 7.84232C146.962 7.90456 147.276 7.97718 147.543 8.06017C147.828 8.14315 148.048 8.21577 148.2 8.27801L147.714 10.7676C147.428 10.6017 146.981 10.4357 146.371 10.2697C145.762 10.083 145.028 9.98963 144.171 9.98963C143.428 9.98963 142.781 10.1556 142.228 10.4876C141.676 10.7988 141.4 11.2967 141.4 11.9813C141.4 12.334 141.457 12.6452 141.571 12.9149C141.704 13.1846 141.895 13.4336 142.142 13.6618C142.409 13.8693 142.733 14.0664 143.114 14.2531C143.495 14.4398 143.952 14.6369 144.485 14.8444C145.19 15.1349 145.819 15.4253 146.371 15.7158C146.924 15.9855 147.39 16.3071 147.771 16.6805C148.171 17.0539 148.476 17.5104 148.686 18.0498C148.895 18.5685 149 19.2116 149 19.9793C149 21.473 148.486 22.6037 147.457 23.3714C146.447 24.139 145 24.5228 143.114 24.5228C141.8 24.5228 140.771 24.3983 140.028 24.1494C139.285 23.9212 138.78 23.7448 138.514 23.6203L138.999 21.1307C139.304 21.2552 139.79 21.4419 140.457 21.6909C141.123 21.9398 142.009 22.0643 143.114 22.0643Z" stroke="#00DE73" stroke-width="16" mask="url(#path-1-inside-1_1103_3417)" stroke-dasharray="0,0,0,0,0,70.1435546875"><animate attributeType="XML" attributeName="stroke-dasharray" repeatCount="indefinite" dur="3.8285090561788166s" values="0,0,0,0,0,70.1435546875; 
          0,0,0,8.465429634422584,44.74726578423225,16.93085926884517; 
          0,0,23.381184895833332,0,46.762369791666664,70.1435546875; 
          0,0,46.762369791666664,0,23.381184895833332,70.1435546875; 
          0,0,58.452962239583336,11.690592447916666,0,0; 
          0,70.1435546875,0,23.381184895833332,0,70.1435546875" keyTimes="0; 0.16666666666666666; 0.3333; 0.6666; 0.8333; 1" begin="0.3513364784795926s"></animate></path>
<path d="M143.114 22.0643C144.2 22.0643 145 21.9087 145.514 21.5975C146.047 21.2863 146.314 20.7884 146.314 20.1037C146.314 19.3983 146.057 18.8382 145.543 18.4232C145.028 18.0083 144.181 17.5415 143 17.0228C142.428 16.7739 141.876 16.5249 141.342 16.2759C140.828 16.0062 140.38 15.695 139.999 15.3423C139.618 14.9896 139.314 14.5643 139.085 14.0664C138.857 13.5685 138.742 12.9564 138.742 12.2303C138.742 10.7988 139.228 9.66805 140.199 8.83817C141.171 7.98755 142.495 7.56224 144.171 7.56224C144.59 7.56224 145.009 7.59336 145.428 7.6556C145.847 7.6971 146.238 7.75934 146.6 7.84232C146.962 7.90456 147.276 7.97718 147.543 8.06017C147.828 8.14315 148.048 8.21577 148.2 8.27801L147.714 10.7676C147.428 10.6017 146.981 10.4357 146.371 10.2697C145.762 10.083 145.028 9.98963 144.171 9.98963C143.428 9.98963 142.781 10.1556 142.228 10.4876C141.676 10.7988 141.4 11.2967 141.4 11.9813C141.4 12.334 141.457 12.6452 141.571 12.9149C141.704 13.1846 141.895 13.4336 142.142 13.6618C142.409 13.8693 142.733 14.0664 143.114 14.2531C143.495 14.4398 143.952 14.6369 144.485 14.8444C145.19 15.1349 145.819 15.4253 146.371 15.7158C146.924 15.9855 147.39 16.3071 147.771 16.6805C148.171 17.0539 148.476 17.5104 148.686 18.0498C148.895 18.5685 149 19.2116 149 19.9793C149 21.473 148.486 22.6037 147.457 23.3714C146.447 24.139 145 24.5228 143.114 24.5228C141.8 24.5228 140.771 24.3983 140.028 24.1494C139.285 23.9212 138.78 23.7448 138.514 23.6203L138.999 21.1307C139.304 21.2552 139.79 21.4419 140.457 21.6909C141.123 21.9398 142.009 22.0643 143.114 22.0643Z" stroke="#FA00FF" stroke-width="16" mask="url(#path-1-inside-1_1103_3417)" stroke-dasharray="0,0,0,0,0,70.1435546875"><animate attributeType="XML" attributeName="stroke-dasharray" repeatCount="indefinite" dur="4.052651927927925s" values="0,0,0,0,0,70.1435546875; 
          0,0,0,8.949619002474243,43.29469768007727,17.899238004948486; 
          0,0,23.381184895833332,0,46.762369791666664,70.1435546875; 
          0,0,46.762369791666664,0,23.381184895833332,70.1435546875; 
          0,0,58.452962239583336,11.690592447916666,0,0; 
          0,70.1435546875,0,23.381184895833332,0,70.1435546875" keyTimes="0; 0.16666666666666666; 0.3333; 0.6666; 0.8333; 1" begin="1.2462432371993266s"></animate></path>
<setting>{"type":"delay","speed":18,"random":0.8,"shift":0.5,"size":0.8,"rupture":73}</setting></svg>