<?xml version="1.0" standalone="no"?>
<svg id="byProtosus" width="139" height="26" viewBox="0 0 139 26" fill="none" xmlns="http://www.w3.org/2000/svg" style="max-width: 100%; max-height: 100%;">
<mask id="path-1-inside-1_1105_3419" fill="white">
<path d="M1.77162 7.82158C2.08052 7.58783 2.57112 7.34509 3.24343 7.09336C3.93391 6.82365 4.74249 6.6888 5.66918 6.6888C6.68673 6.6888 7.58617 6.8686 8.3675 7.22822C9.167 7.58783 9.83931 8.09129 10.3844 8.73859C10.9295 9.38589 11.3384 10.1591 11.6109 11.0581C11.9017 11.9391 12.047 12.9101 12.047 13.971C12.047 15.1037 11.8744 16.1196 11.5292 17.0187C11.2021 17.9177 10.7297 18.6819 10.1119 19.3112C9.51224 19.9405 8.78542 20.426 7.93141 20.7676C7.09557 21.0913 6.15979 21.2531 5.12407 21.2531C3.87031 21.2531 2.83459 21.1722 2.01692 21.0104C1.19925 20.8485 0.526943 20.6777 0 20.4979V0.32365L1.77162 0V7.82158ZM1.77162 19.2842C2.04418 19.3741 2.44393 19.464 2.97087 19.5539C3.51598 19.6259 4.22463 19.6618 5.09681 19.6618C6.62313 19.6618 7.84964 19.1763 8.77633 18.2054C9.70303 17.2165 10.1664 15.805 10.1664 13.971C10.1664 13.1978 10.0846 12.4696 9.92107 11.7863C9.75754 11.0851 9.49407 10.4827 9.13066 9.97925C8.76725 9.45781 8.28573 9.04426 7.68611 8.73859C7.10465 8.43292 6.37783 8.28008 5.50565 8.28008C5.08773 8.28008 4.68798 8.32503 4.3064 8.41494C3.92482 8.48686 3.5705 8.58575 3.24343 8.71162C2.91636 8.83748 2.62563 8.97234 2.37125 9.11618C2.13503 9.26003 1.93515 9.39488 1.77162 9.52075V19.2842Z" stroke-dasharray="0,0,0,0,0,95.49662780761719"><animate attributeType="XML" attributeName="stroke-dasharray" repeatCount="indefinite" dur="3.572750484291751s" values="0,0,0,0,0,95.49662780761719; 
          0,0,0,23.2497473047734,25.747385893296983,46.4994946095468; 
          0,0,31.83220926920573,0,63.66441853841146,95.49662780761719; 
          0,0,63.66441853841146,0,31.83220926920573,95.49662780761719; 
          0,0,79.58052317301433,15.916104634602865,0,0; 
          0,95.49662780761719,0,31.83220926920573,0,95.49662780761719" keyTimes="0; 0.16666666666666666; 0.3333; 0.6666; 0.8333; 1" begin="0.37025063847281153s"></animate></path>
<path d="M19.7333 21.2261C19.1337 20.1293 18.5523 18.9876 17.989 17.8008C17.4439 16.6141 16.926 15.4184 16.4354 14.2137C15.963 12.991 15.5269 11.7773 15.1271 10.5726C14.7274 9.34993 14.3821 8.15422 14.0914 6.98548H15.9721C16.1719 7.84855 16.4263 8.78354 16.7352 9.79046C17.0441 10.7794 17.3893 11.8043 17.7709 12.8651C18.1707 13.926 18.6068 15.0138 19.0792 16.1286C19.5516 17.2434 20.0604 18.3402 20.6055 19.4191C21.0053 18.3043 21.3596 17.2524 21.6685 16.2635C21.9774 15.2746 22.259 14.2946 22.5134 13.3237C22.786 12.3347 23.0404 11.3278 23.2766 10.3029C23.531 9.27801 23.7944 8.1722 24.067 6.98548H25.8386C25.2572 9.59267 24.5939 12.1279 23.8489 14.5913C23.104 17.0546 22.2954 19.3112 21.4232 21.361C21.078 22.1701 20.7236 22.8624 20.3602 23.4378C19.9968 24.0311 19.588 24.5166 19.1337 24.8942C18.6976 25.2718 18.1798 25.5505 17.5801 25.7303C16.9987 25.9101 16.3082 26 15.5087 26C15.0544 26 14.6365 25.9461 14.2549 25.8382C13.8915 25.7303 13.6644 25.6494 13.5735 25.5954L13.9279 24.139C14.0006 24.1929 14.2004 24.2649 14.5275 24.3548C14.8727 24.4627 15.2271 24.5166 15.5905 24.5166C16.0992 24.5166 16.5535 24.4627 16.9533 24.3548C17.3712 24.2469 17.7437 24.0581 18.0707 23.7884C18.3978 23.5367 18.6885 23.204 18.9429 22.7905C19.2155 22.3769 19.479 21.8555 19.7333 21.2261Z" stroke-dasharray="0,0,0,0,0,79.34008026123047"><animate attributeType="XML" attributeName="stroke-dasharray" repeatCount="indefinite" dur="3.1762787274741253s" values="0,0,0,0,0,79.34008026123047; 
          0,0,0,19.4900259430441,20.87000243209817,38.9800518860882; 
          0,0,26.446693420410156,0,52.89338684082031,79.34008026123047; 
          0,0,52.89338684082031,0,26.446693420410156,79.34008026123047; 
          0,0,66.11673355102539,13.223346710205078,0,0; 
          0,79.34008026123047,0,26.446693420410156,0,79.34008026123047" keyTimes="0; 0.16666666666666666; 0.3333; 0.6666; 0.8333; 1" begin="0.2206051128160942s"></animate></path>
<path d="M39.88 2.07676C42.551 2.07676 44.5407 2.58022 45.849 3.58714C47.1572 4.59405 47.8114 6.02351 47.8114 7.87552C47.8114 8.93638 47.6206 9.8444 47.239 10.5996C46.8574 11.3368 46.3123 11.9391 45.6037 12.4066C44.895 12.8562 44.0228 13.1888 42.9871 13.4046C41.9696 13.6024 40.8158 13.7012 39.5257 13.7012H36.9636V20.9295H35.1102V2.58921C35.7644 2.4094 36.5275 2.28354 37.3997 2.21162C38.2901 2.12171 39.1168 2.07676 39.88 2.07676ZM39.9617 3.66805C39.2713 3.66805 38.6807 3.69502 38.1901 3.74896C37.7177 3.78492 37.3089 3.82088 36.9636 3.85685V12.11H39.3076C40.307 12.11 41.2064 12.056 42.0059 11.9481C42.8236 11.8223 43.5141 11.6065 44.0774 11.3008C44.6588 10.9772 45.104 10.5367 45.4129 9.97925C45.7218 9.42185 45.8762 8.71162 45.8762 7.84855C45.8762 7.02144 45.7036 6.33817 45.3584 5.79875C45.0313 5.25934 44.5861 4.83679 44.0228 4.53112C43.4777 4.20747 42.8508 3.98271 42.1422 3.85685C41.4336 3.73098 40.7067 3.66805 39.9617 3.66805Z" stroke-dasharray="0,0,0,0,0,88.32848358154297"><animate attributeType="XML" attributeName="stroke-dasharray" repeatCount="indefinite" dur="3.56520091732552s" values="0,0,0,0,0,88.32848358154297; 
          0,0,0,22.404412400408734,21.11524638031676,44.80882480081747; 
          0,0,29.442827860514324,0,58.88565572102865,88.32848358154297; 
          0,0,58.88565572102865,0,29.442827860514324,88.32848358154297; 
          0,0,73.60706965128581,14.721413930257162,0,0; 
          0,88.32848358154297,0,29.442827860514324,0,88.32848358154297" keyTimes="0; 0.16666666666666666; 0.3333; 0.6666; 0.8333; 1" begin="0.5678181492807741s"></animate></path>
<path d="M55.928 6.71577C56.5095 6.71577 57.0546 6.76072 57.5634 6.85062C58.0903 6.94053 58.4537 7.03043 58.6536 7.12033L58.2993 8.6307C58.1539 8.55878 57.8541 8.48686 57.3999 8.41494C56.9638 8.32503 56.3823 8.28008 55.6555 8.28008C54.8923 8.28008 54.2745 8.33402 53.8021 8.44191C53.3478 8.54979 53.048 8.6397 52.9027 8.71162V20.9295H51.131V7.63278C51.5853 7.43499 52.2122 7.23721 53.0117 7.03942C53.8112 6.82365 54.7833 6.71577 55.928 6.71577Z" stroke-dasharray="0,0,0,0,0,42.006996154785156"><animate attributeType="XML" attributeName="stroke-dasharray" repeatCount="indefinite" dur="3.701076782613212s" values="0,0,0,0,0,42.006996154785156; 
          0,0,0,10.528470105495657,10.421585838298178,21.056940210991314; 
          0,0,14.002332051595053,0,28.004664103190105,42.006996154785156; 
          0,0,28.004664103190105,0,14.002332051595053,42.006996154785156; 
          0,0,35.00583012898763,7.001166025797526,0,0; 
          0,42.006996154785156,0,14.002332051595053,0,42.006996154785156" keyTimes="0; 0.16666666666666666; 0.3333; 0.6666; 0.8333; 1" begin="0.5531048818548558s"></animate></path>
<path d="M73.3451 13.971C73.3451 15.0678 73.1815 16.0657 72.8545 16.9647C72.5456 17.8638 72.1004 18.6279 71.5189 19.2573C70.9557 19.8866 70.2834 20.3811 69.502 20.7407C68.7207 21.0823 67.8576 21.2531 66.9127 21.2531C65.9679 21.2531 65.1048 21.0823 64.3234 20.7407C63.5421 20.3811 62.8607 19.8866 62.2793 19.2573C61.716 18.6279 61.2708 17.8638 60.9437 16.9647C60.6348 16.0657 60.4804 15.0678 60.4804 13.971C60.4804 12.8741 60.6348 11.8762 60.9437 10.9772C61.2708 10.0781 61.716 9.31397 62.2793 8.68465C62.8607 8.03734 63.5421 7.54288 64.3234 7.20124C65.1048 6.84163 65.9679 6.66183 66.9127 6.66183C67.8576 6.66183 68.7207 6.84163 69.502 7.20124C70.2834 7.54288 70.9557 8.03734 71.5189 8.68465C72.1004 9.31397 72.5456 10.0781 72.8545 10.9772C73.1815 11.8762 73.3451 12.8741 73.3451 13.971ZM71.4644 13.971C71.4644 12.2268 71.0556 10.8423 70.2379 9.81743C69.4203 8.77455 68.3119 8.25311 66.9127 8.25311C65.5136 8.25311 64.4052 8.77455 63.5875 9.81743C62.7699 10.8423 62.361 12.2268 62.361 13.971C62.361 15.7151 62.7699 17.0996 63.5875 18.1245C64.4052 19.1494 65.5136 19.6618 66.9127 19.6618C68.3119 19.6618 69.4203 19.1494 70.2379 18.1245C71.0556 17.0996 71.4644 15.7151 71.4644 13.971Z" stroke-dasharray="0,0,0,0,0,76.542236328125"><animate attributeType="XML" attributeName="stroke-dasharray" repeatCount="indefinite" dur="3.4762735561896143s" values="0,0,0,0,0,76.542236328125; 
          0,0,0,19.249101730450846,18.794931136772473,38.49820346090169; 
          0,0,25.514078776041668,0,51.028157552083336,76.542236328125; 
          0,0,51.028157552083336,0,25.514078776041668,76.542236328125; 
          0,0,63.785196940104164,12.757039388020834,0,0; 
          0,76.542236328125,0,25.514078776041668,0,76.542236328125" keyTimes="0; 0.16666666666666666; 0.3333; 0.6666; 0.8333; 1" begin="0.7973264711469139s"></animate></path>
<path d="M78.8516 6.98548H84.4663V8.46888H78.8516V15.8859C78.8516 16.677 78.9152 17.3243 79.0424 17.8278C79.1877 18.3133 79.3876 18.6909 79.642 18.9606C79.8964 19.2303 80.2053 19.4101 80.5687 19.5C80.9321 19.5899 81.3318 19.6349 81.7679 19.6349C82.5129 19.6349 83.1126 19.5539 83.5668 19.3921C84.0211 19.2123 84.3754 19.0505 84.6298 18.9066L85.0659 20.3631C84.8115 20.5249 84.3663 20.7137 83.7303 20.9295C83.0944 21.1272 82.4039 21.2261 81.6589 21.2261C80.7867 21.2261 80.0508 21.1183 79.4512 20.9025C78.8697 20.6687 78.3973 20.3271 78.0339 19.8776C77.6887 19.4101 77.4434 18.8347 77.298 18.1515C77.1526 17.4682 77.08 16.6591 77.08 15.7241V2.88589L78.8516 2.56224V6.98548Z" stroke-dasharray="0,0,0,0,0,61.149139404296875"><animate attributeType="XML" attributeName="stroke-dasharray" repeatCount="indefinite" dur="3.0896288149392532s" values="0,0,0,0,0,61.149139404296875; 
          0,0,0,15.650407586957282,14.19791664342503,31.300815173914565; 
          0,0,20.383046468098957,0,40.766092936197914,61.149139404296875; 
          0,0,40.766092936197914,0,20.383046468098957,61.149139404296875; 
          0,0,50.9576161702474,10.191523234049479,0,0; 
          0,61.149139404296875,0,20.383046468098957,0,61.149139404296875" keyTimes="0; 0.16666666666666666; 0.3333; 0.6666; 0.8333; 1" begin="0.850343394926615s"></animate></path>
<path d="M99.749 13.971C99.749 15.0678 99.5855 16.0657 99.2584 16.9647C98.9495 17.8638 98.5044 18.6279 97.9229 19.2573C97.3596 19.8866 96.6873 20.3811 95.906 20.7407C95.1246 21.0823 94.2615 21.2531 93.3167 21.2531C92.3718 21.2531 91.5087 21.0823 90.7274 20.7407C89.9461 20.3811 89.2647 19.8866 88.6832 19.2573C88.1199 18.6279 87.6748 17.8638 87.3477 16.9647C87.0388 16.0657 86.8843 15.0678 86.8843 13.971C86.8843 12.8741 87.0388 11.8762 87.3477 10.9772C87.6748 10.0781 88.1199 9.31397 88.6832 8.68465C89.2647 8.03734 89.9461 7.54288 90.7274 7.20124C91.5087 6.84163 92.3718 6.66183 93.3167 6.66183C94.2615 6.66183 95.1246 6.84163 95.906 7.20124C96.6873 7.54288 97.3596 8.03734 97.9229 8.68465C98.5044 9.31397 98.9495 10.0781 99.2584 10.9772C99.5855 11.8762 99.749 12.8741 99.749 13.971ZM97.8684 13.971C97.8684 12.2268 97.4596 10.8423 96.6419 9.81743C95.8242 8.77455 94.7158 8.25311 93.3167 8.25311C91.9176 8.25311 90.8092 8.77455 89.9915 9.81743C89.1738 10.8423 88.765 12.2268 88.765 13.971C88.765 15.7151 89.1738 17.0996 89.9915 18.1245C90.8092 19.1494 91.9176 19.6618 93.3167 19.6618C94.7158 19.6618 95.8242 19.1494 96.6419 18.1245C97.4596 17.0996 97.8684 15.7151 97.8684 13.971Z" stroke-dasharray="0,0,0,0,0,76.54219818115234"><animate attributeType="XML" attributeName="stroke-dasharray" repeatCount="indefinite" dur="3.5371980110736754s" values="0,0,0,0,0,76.54219818115234; 
          0,0,0,18.96921117077337,19.634564668832226,37.93842234154674; 
          0,0,25.514066060384113,0,51.02813212076823,76.54219818115234; 
          0,0,51.02813212076823,0,25.514066060384113,76.54219818115234; 
          0,0,63.78516515096029,12.757033030192057,0,0; 
          0,76.54219818115234,0,25.514066060384113,0,76.54219818115234" keyTimes="0; 0.16666666666666666; 0.3333; 0.6666; 0.8333; 1" begin="0.16407108381952545s"></animate></path>
<path d="M106.482 19.6888C107.5 19.6888 108.335 19.527 108.99 19.2033C109.662 18.8617 109.998 18.2953 109.998 17.5041C109.998 17.1266 109.934 16.8029 109.807 16.5332C109.698 16.2635 109.507 16.0207 109.235 15.805C108.962 15.5892 108.599 15.3824 108.145 15.1846C107.709 14.9869 107.163 14.7531 106.509 14.4834C105.982 14.2676 105.483 14.0519 105.01 13.8361C104.538 13.6024 104.12 13.3416 103.756 13.0539C103.393 12.7483 103.102 12.3887 102.884 11.9751C102.666 11.5615 102.557 11.0581 102.557 10.4647C102.557 9.33195 102.984 8.41494 103.838 7.71369C104.71 7.01245 105.901 6.66183 107.409 6.66183C108.372 6.66183 109.162 6.74274 109.78 6.90456C110.416 7.06639 110.861 7.21024 111.116 7.3361L110.707 8.90042C110.489 8.79253 110.116 8.64869 109.589 8.46888C109.08 8.28907 108.326 8.19917 107.327 8.19917C106.927 8.19917 106.546 8.24412 106.182 8.33403C105.837 8.40595 105.528 8.53181 105.256 8.71162C104.983 8.87344 104.765 9.08921 104.601 9.35892C104.438 9.61065 104.356 9.92531 104.356 10.3029C104.356 10.6805 104.429 11.0041 104.574 11.2739C104.72 11.5436 104.928 11.7863 105.201 12.0021C105.492 12.1999 105.837 12.3887 106.237 12.5685C106.655 12.7483 107.127 12.9461 107.654 13.1618C108.199 13.3776 108.717 13.6024 109.208 13.8361C109.716 14.0519 110.162 14.3216 110.543 14.6452C110.925 14.9509 111.234 15.3285 111.47 15.778C111.706 16.2095 111.824 16.758 111.824 17.4232C111.824 18.6819 111.343 19.6349 110.38 20.2822C109.435 20.9295 108.136 21.2531 106.482 21.2531C105.246 21.2531 104.302 21.1452 103.647 20.9295C102.993 20.7317 102.557 20.5788 102.339 20.471L102.803 18.8797C102.857 18.9156 102.975 18.9786 103.157 19.0685C103.339 19.1404 103.584 19.2303 103.893 19.3382C104.202 19.4281 104.565 19.509 104.983 19.5809C105.419 19.6528 105.919 19.6888 106.482 19.6888Z" stroke-dasharray="0,0,0,0,0,63.901451110839844"><animate attributeType="XML" attributeName="stroke-dasharray" repeatCount="indefinite" dur="3.5443863328922642s" values="0,0,0,0,0,63.901451110839844; 
          0,0,0,15.237872526652144,18.187833530883417,30.475745053304287; 
          0,0,21.30048370361328,0,42.60096740722656,63.901451110839844; 
          0,0,42.60096740722656,0,21.30048370361328,63.901451110839844; 
          0,0,53.2512092590332,10.65024185180664,0,0; 
          0,63.901451110839844,0,21.30048370361328,0,63.901451110839844" keyTimes="0; 0.16666666666666666; 0.3333; 0.6666; 0.8333; 1" begin="0.0037114197442683666s"></animate></path>
<path d="M126.072 20.444C125.545 20.5878 124.836 20.7497 123.946 20.9295C123.055 21.1093 121.965 21.1992 120.675 21.1992C119.621 21.1992 118.74 21.0463 118.031 20.7407C117.323 20.435 116.75 20.0035 116.314 19.4461C115.878 18.8887 115.56 18.2144 115.36 17.4232C115.178 16.6321 115.088 15.76 115.088 14.8071V6.98548H116.859V14.2407C116.859 15.2296 116.932 16.0657 117.077 16.749C117.223 17.4322 117.459 17.9896 117.786 18.4212C118.113 18.8347 118.531 19.1404 119.04 19.3382C119.567 19.518 120.203 19.6079 120.948 19.6079C121.783 19.6079 122.51 19.5629 123.128 19.473C123.746 19.3831 124.136 19.3022 124.3 19.2303V6.98548H126.072V20.444Z" stroke-dasharray="0,0,0,0,0,70.80152130126953"><animate attributeType="XML" attributeName="stroke-dasharray" repeatCount="indefinite" dur="3.574516456546203s" values="0,0,0,0,0,70.80152130126953; 
          0,0,0,17.41524675033883,18.555781050253035,34.83049350067766; 
          0,0,23.600507100423176,0,47.20101420084635,70.80152130126953; 
          0,0,47.20101420084635,0,23.600507100423176,70.80152130126953; 
          0,0,59.001267751057945,11.800253550211588,0,0; 
          0,70.80152130126953,0,23.600507100423176,0,70.80152130126953" keyTimes="0; 0.16666666666666666; 0.3333; 0.6666; 0.8333; 1" begin="0.22085053823142275s"></animate></path>
<path d="M133.658 19.6888C134.675 19.6888 135.511 19.527 136.165 19.2033C136.838 18.8617 137.174 18.2953 137.174 17.5041C137.174 17.1266 137.11 16.8029 136.983 16.5332C136.874 16.2635 136.683 16.0207 136.411 15.805C136.138 15.5892 135.775 15.3824 135.32 15.1846C134.884 14.9869 134.339 14.7531 133.685 14.4834C133.158 14.2676 132.659 14.0519 132.186 13.8361C131.714 13.6024 131.296 13.3416 130.932 13.0539C130.569 12.7483 130.278 12.3887 130.06 11.9751C129.842 11.5615 129.733 11.0581 129.733 10.4647C129.733 9.33195 130.16 8.41494 131.014 7.71369C131.886 7.01245 133.076 6.66183 134.585 6.66183C135.548 6.66183 136.338 6.74274 136.956 6.90456C137.592 7.06639 138.037 7.21024 138.291 7.3361L137.883 8.90042C137.664 8.79253 137.292 8.64869 136.765 8.46888C136.256 8.28907 135.502 8.19917 134.503 8.19917C134.103 8.19917 133.721 8.24412 133.358 8.33403C133.013 8.40595 132.704 8.53181 132.431 8.71162C132.159 8.87344 131.941 9.08921 131.777 9.35892C131.614 9.61065 131.532 9.92531 131.532 10.3029C131.532 10.6805 131.605 11.0041 131.75 11.2739C131.895 11.5436 132.104 11.7863 132.377 12.0021C132.668 12.1999 133.013 12.3887 133.413 12.5685C133.831 12.7483 134.303 12.9461 134.83 13.1618C135.375 13.3776 135.893 13.6024 136.383 13.8361C136.892 14.0519 137.337 14.3216 137.719 14.6452C138.101 14.9509 138.409 15.3285 138.646 15.778C138.882 16.2095 139 16.758 139 17.4232C139 18.6819 138.518 19.6349 137.555 20.2822C136.611 20.9295 135.311 21.2531 133.658 21.2531C132.422 21.2531 131.477 21.1452 130.823 20.9295C130.169 20.7317 129.733 20.5788 129.515 20.471L129.978 18.8797C130.033 18.9156 130.151 18.9786 130.333 19.0685C130.514 19.1404 130.76 19.2303 131.069 19.3382C131.377 19.4281 131.741 19.509 132.159 19.5809C132.595 19.6528 133.095 19.6888 133.658 19.6888Z" stroke-dasharray="0,0,0,0,0,63.900211334228516"><animate attributeType="XML" attributeName="stroke-dasharray" repeatCount="indefinite" dur="3.4184262111434682s" values="0,0,0,0,0,63.900211334228516; 
          0,0,0,15.546171753955871,17.261696072360905,31.092343507911743; 
          0,0,21.30007044474284,0,42.60014088948568,63.900211334228516; 
          0,0,42.60014088948568,0,21.30007044474284,63.900211334228516; 
          0,0,53.250176111857094,10.65003522237142,0,0; 
          0,63.900211334228516,0,21.30007044474284,0,63.900211334228516" keyTimes="0; 0.16666666666666666; 0.3333; 0.6666; 0.8333; 1" begin="1.0960803274230324s"></animate></path>
</mask>
<path d="M1.77162 7.82158C2.08052 7.58783 2.57112 7.34509 3.24343 7.09336C3.93391 6.82365 4.74249 6.6888 5.66918 6.6888C6.68673 6.6888 7.58617 6.8686 8.3675 7.22822C9.167 7.58783 9.83931 8.09129 10.3844 8.73859C10.9295 9.38589 11.3384 10.1591 11.6109 11.0581C11.9017 11.9391 12.047 12.9101 12.047 13.971C12.047 15.1037 11.8744 16.1196 11.5292 17.0187C11.2021 17.9177 10.7297 18.6819 10.1119 19.3112C9.51224 19.9405 8.78542 20.426 7.93141 20.7676C7.09557 21.0913 6.15979 21.2531 5.12407 21.2531C3.87031 21.2531 2.83459 21.1722 2.01692 21.0104C1.19925 20.8485 0.526943 20.6777 0 20.4979V0.32365L1.77162 0V7.82158ZM1.77162 19.2842C2.04418 19.3741 2.44393 19.464 2.97087 19.5539C3.51598 19.6259 4.22463 19.6618 5.09681 19.6618C6.62313 19.6618 7.84964 19.1763 8.77633 18.2054C9.70303 17.2165 10.1664 15.805 10.1664 13.971C10.1664 13.1978 10.0846 12.4696 9.92107 11.7863C9.75754 11.0851 9.49407 10.4827 9.13066 9.97925C8.76725 9.45781 8.28573 9.04426 7.68611 8.73859C7.10465 8.43292 6.37783 8.28008 5.50565 8.28008C5.08773 8.28008 4.68798 8.32503 4.3064 8.41494C3.92482 8.48686 3.5705 8.58575 3.24343 8.71162C2.91636 8.83748 2.62563 8.97234 2.37125 9.11618C2.13503 9.26003 1.93515 9.39488 1.77162 9.52075V19.2842Z" stroke="#00C17C" stroke-width="4" mask="url(#path-1-inside-1_1105_3419)" stroke-dasharray="0,0,0,0,0,95.49662780761719"><animate attributeType="XML" attributeName="stroke-dasharray" repeatCount="indefinite" dur="3.2513388205591216s" values="0,0,0,0,0,95.49662780761719; 
          0,0,0,24.435033980231374,22.191525866923065,48.87006796046275; 
          0,0,31.83220926920573,0,63.66441853841146,95.49662780761719; 
          0,0,63.66441853841146,0,31.83220926920573,95.49662780761719; 
          0,0,79.58052317301433,15.916104634602865,0,0; 
          0,95.49662780761719,0,31.83220926920573,0,95.49662780761719" keyTimes="0; 0.16666666666666666; 0.3333; 0.6666; 0.8333; 1" begin="0.39048762807318005s"></animate></path>
<path d="M1.77162 7.82158C2.08052 7.58783 2.57112 7.34509 3.24343 7.09336C3.93391 6.82365 4.74249 6.6888 5.66918 6.6888C6.68673 6.6888 7.58617 6.8686 8.3675 7.22822C9.167 7.58783 9.83931 8.09129 10.3844 8.73859C10.9295 9.38589 11.3384 10.1591 11.6109 11.0581C11.9017 11.9391 12.047 12.9101 12.047 13.971C12.047 15.1037 11.8744 16.1196 11.5292 17.0187C11.2021 17.9177 10.7297 18.6819 10.1119 19.3112C9.51224 19.9405 8.78542 20.426 7.93141 20.7676C7.09557 21.0913 6.15979 21.2531 5.12407 21.2531C3.87031 21.2531 2.83459 21.1722 2.01692 21.0104C1.19925 20.8485 0.526943 20.6777 0 20.4979V0.32365L1.77162 0V7.82158ZM1.77162 19.2842C2.04418 19.3741 2.44393 19.464 2.97087 19.5539C3.51598 19.6259 4.22463 19.6618 5.09681 19.6618C6.62313 19.6618 7.84964 19.1763 8.77633 18.2054C9.70303 17.2165 10.1664 15.805 10.1664 13.971C10.1664 13.1978 10.0846 12.4696 9.92107 11.7863C9.75754 11.0851 9.49407 10.4827 9.13066 9.97925C8.76725 9.45781 8.28573 9.04426 7.68611 8.73859C7.10465 8.43292 6.37783 8.28008 5.50565 8.28008C5.08773 8.28008 4.68798 8.32503 4.3064 8.41494C3.92482 8.48686 3.5705 8.58575 3.24343 8.71162C2.91636 8.83748 2.62563 8.97234 2.37125 9.11618C2.13503 9.26003 1.93515 9.39488 1.77162 9.52075V19.2842Z" stroke="#FF7A00" stroke-width="4" mask="url(#path-1-inside-1_1105_3419)" stroke-dasharray="0,0,0,0,0,95.49662780761719"><animate attributeType="XML" attributeName="stroke-dasharray" repeatCount="indefinite" dur="3.6247799948119743s" values="0,0,0,0,0,95.49662780761719; 
          0,0,0,23.864188102037016,23.90406350150614,47.72837620407403; 
          0,0,31.83220926920573,0,63.66441853841146,95.49662780761719; 
          0,0,63.66441853841146,0,31.83220926920573,95.49662780761719; 
          0,0,79.58052317301433,15.916104634602865,0,0; 
          0,95.49662780761719,0,31.83220926920573,0,95.49662780761719" keyTimes="0; 0.16666666666666666; 0.3333; 0.6666; 0.8333; 1" begin="0.23982038876808728s"></animate></path>
<path d="M1.77162 7.82158C2.08052 7.58783 2.57112 7.34509 3.24343 7.09336C3.93391 6.82365 4.74249 6.6888 5.66918 6.6888C6.68673 6.6888 7.58617 6.8686 8.3675 7.22822C9.167 7.58783 9.83931 8.09129 10.3844 8.73859C10.9295 9.38589 11.3384 10.1591 11.6109 11.0581C11.9017 11.9391 12.047 12.9101 12.047 13.971C12.047 15.1037 11.8744 16.1196 11.5292 17.0187C11.2021 17.9177 10.7297 18.6819 10.1119 19.3112C9.51224 19.9405 8.78542 20.426 7.93141 20.7676C7.09557 21.0913 6.15979 21.2531 5.12407 21.2531C3.87031 21.2531 2.83459 21.1722 2.01692 21.0104C1.19925 20.8485 0.526943 20.6777 0 20.4979V0.32365L1.77162 0V7.82158ZM1.77162 19.2842C2.04418 19.3741 2.44393 19.464 2.97087 19.5539C3.51598 19.6259 4.22463 19.6618 5.09681 19.6618C6.62313 19.6618 7.84964 19.1763 8.77633 18.2054C9.70303 17.2165 10.1664 15.805 10.1664 13.971C10.1664 13.1978 10.0846 12.4696 9.92107 11.7863C9.75754 11.0851 9.49407 10.4827 9.13066 9.97925C8.76725 9.45781 8.28573 9.04426 7.68611 8.73859C7.10465 8.43292 6.37783 8.28008 5.50565 8.28008C5.08773 8.28008 4.68798 8.32503 4.3064 8.41494C3.92482 8.48686 3.5705 8.58575 3.24343 8.71162C2.91636 8.83748 2.62563 8.97234 2.37125 9.11618C2.13503 9.26003 1.93515 9.39488 1.77162 9.52075V19.2842Z" stroke="#FA00FF" stroke-width="4" mask="url(#path-1-inside-1_1105_3419)" stroke-dasharray="0,0,0,0,0,95.49662780761719"><animate attributeType="XML" attributeName="stroke-dasharray" repeatCount="indefinite" dur="3.0174870403174743s" values="0,0,0,0,0,95.49662780761719; 
          0,0,0,23.16504445054097,26.001494455994276,46.33008890108194; 
          0,0,31.83220926920573,0,63.66441853841146,95.49662780761719; 
          0,0,63.66441853841146,0,31.83220926920573,95.49662780761719; 
          0,0,79.58052317301433,15.916104634602865,0,0; 
          0,95.49662780761719,0,31.83220926920573,0,95.49662780761719" keyTimes="0; 0.16666666666666666; 0.3333; 0.6666; 0.8333; 1" begin="0.8585865045117647s"></animate></path>
<path d="M19.7333 21.2261C19.1337 20.1293 18.5523 18.9876 17.989 17.8008C17.4439 16.6141 16.926 15.4184 16.4354 14.2137C15.963 12.991 15.5269 11.7773 15.1271 10.5726C14.7274 9.34993 14.3821 8.15422 14.0914 6.98548H15.9721C16.1719 7.84855 16.4263 8.78354 16.7352 9.79046C17.0441 10.7794 17.3893 11.8043 17.7709 12.8651C18.1707 13.926 18.6068 15.0138 19.0792 16.1286C19.5516 17.2434 20.0604 18.3402 20.6055 19.4191C21.0053 18.3043 21.3596 17.2524 21.6685 16.2635C21.9774 15.2746 22.259 14.2946 22.5134 13.3237C22.786 12.3347 23.0404 11.3278 23.2766 10.3029C23.531 9.27801 23.7944 8.1722 24.067 6.98548H25.8386C25.2572 9.59267 24.5939 12.1279 23.8489 14.5913C23.104 17.0546 22.2954 19.3112 21.4232 21.361C21.078 22.1701 20.7236 22.8624 20.3602 23.4378C19.9968 24.0311 19.588 24.5166 19.1337 24.8942C18.6976 25.2718 18.1798 25.5505 17.5801 25.7303C16.9987 25.9101 16.3082 26 15.5087 26C15.0544 26 14.6365 25.9461 14.2549 25.8382C13.8915 25.7303 13.6644 25.6494 13.5735 25.5954L13.9279 24.139C14.0006 24.1929 14.2004 24.2649 14.5275 24.3548C14.8727 24.4627 15.2271 24.5166 15.5905 24.5166C16.0992 24.5166 16.5535 24.4627 16.9533 24.3548C17.3712 24.2469 17.7437 24.0581 18.0707 23.7884C18.3978 23.5367 18.6885 23.204 18.9429 22.7905C19.2155 22.3769 19.479 21.8555 19.7333 21.2261Z" stroke="#00C17C" stroke-width="4" mask="url(#path-1-inside-1_1105_3419)" stroke-dasharray="0,0,0,0,0,79.34008026123047"><animate attributeType="XML" attributeName="stroke-dasharray" repeatCount="indefinite" dur="3.0849015532012967s" values="0,0,0,0,0,79.34008026123047; 
          0,0,0,19.38503589580741,21.184972573808245,38.77007179161482; 
          0,0,26.446693420410156,0,52.89338684082031,79.34008026123047; 
          0,0,52.89338684082031,0,26.446693420410156,79.34008026123047; 
          0,0,66.11673355102539,13.223346710205078,0,0; 
          0,79.34008026123047,0,26.446693420410156,0,79.34008026123047" keyTimes="0; 0.16666666666666666; 0.3333; 0.6666; 0.8333; 1" begin="0.4749339074815121s"></animate></path>
<path d="M19.7333 21.2261C19.1337 20.1293 18.5523 18.9876 17.989 17.8008C17.4439 16.6141 16.926 15.4184 16.4354 14.2137C15.963 12.991 15.5269 11.7773 15.1271 10.5726C14.7274 9.34993 14.3821 8.15422 14.0914 6.98548H15.9721C16.1719 7.84855 16.4263 8.78354 16.7352 9.79046C17.0441 10.7794 17.3893 11.8043 17.7709 12.8651C18.1707 13.926 18.6068 15.0138 19.0792 16.1286C19.5516 17.2434 20.0604 18.3402 20.6055 19.4191C21.0053 18.3043 21.3596 17.2524 21.6685 16.2635C21.9774 15.2746 22.259 14.2946 22.5134 13.3237C22.786 12.3347 23.0404 11.3278 23.2766 10.3029C23.531 9.27801 23.7944 8.1722 24.067 6.98548H25.8386C25.2572 9.59267 24.5939 12.1279 23.8489 14.5913C23.104 17.0546 22.2954 19.3112 21.4232 21.361C21.078 22.1701 20.7236 22.8624 20.3602 23.4378C19.9968 24.0311 19.588 24.5166 19.1337 24.8942C18.6976 25.2718 18.1798 25.5505 17.5801 25.7303C16.9987 25.9101 16.3082 26 15.5087 26C15.0544 26 14.6365 25.9461 14.2549 25.8382C13.8915 25.7303 13.6644 25.6494 13.5735 25.5954L13.9279 24.139C14.0006 24.1929 14.2004 24.2649 14.5275 24.3548C14.8727 24.4627 15.2271 24.5166 15.5905 24.5166C16.0992 24.5166 16.5535 24.4627 16.9533 24.3548C17.3712 24.2469 17.7437 24.0581 18.0707 23.7884C18.3978 23.5367 18.6885 23.204 18.9429 22.7905C19.2155 22.3769 19.479 21.8555 19.7333 21.2261Z" stroke="#FF7A00" stroke-width="4" mask="url(#path-1-inside-1_1105_3419)" stroke-dasharray="0,0,0,0,0,79.34008026123047"><animate attributeType="XML" attributeName="stroke-dasharray" repeatCount="indefinite" dur="3.5489658088384823s" values="0,0,0,0,0,79.34008026123047; 
          0,0,0,20.176859343653934,18.809502230268663,40.35371868730787; 
          0,0,26.446693420410156,0,52.89338684082031,79.34008026123047; 
          0,0,52.89338684082031,0,26.446693420410156,79.34008026123047; 
          0,0,66.11673355102539,13.223346710205078,0,0; 
          0,79.34008026123047,0,26.446693420410156,0,79.34008026123047" keyTimes="0; 0.16666666666666666; 0.3333; 0.6666; 0.8333; 1" begin="0.8050942646853072s"></animate></path>
<path d="M19.7333 21.2261C19.1337 20.1293 18.5523 18.9876 17.989 17.8008C17.4439 16.6141 16.926 15.4184 16.4354 14.2137C15.963 12.991 15.5269 11.7773 15.1271 10.5726C14.7274 9.34993 14.3821 8.15422 14.0914 6.98548H15.9721C16.1719 7.84855 16.4263 8.78354 16.7352 9.79046C17.0441 10.7794 17.3893 11.8043 17.7709 12.8651C18.1707 13.926 18.6068 15.0138 19.0792 16.1286C19.5516 17.2434 20.0604 18.3402 20.6055 19.4191C21.0053 18.3043 21.3596 17.2524 21.6685 16.2635C21.9774 15.2746 22.259 14.2946 22.5134 13.3237C22.786 12.3347 23.0404 11.3278 23.2766 10.3029C23.531 9.27801 23.7944 8.1722 24.067 6.98548H25.8386C25.2572 9.59267 24.5939 12.1279 23.8489 14.5913C23.104 17.0546 22.2954 19.3112 21.4232 21.361C21.078 22.1701 20.7236 22.8624 20.3602 23.4378C19.9968 24.0311 19.588 24.5166 19.1337 24.8942C18.6976 25.2718 18.1798 25.5505 17.5801 25.7303C16.9987 25.9101 16.3082 26 15.5087 26C15.0544 26 14.6365 25.9461 14.2549 25.8382C13.8915 25.7303 13.6644 25.6494 13.5735 25.5954L13.9279 24.139C14.0006 24.1929 14.2004 24.2649 14.5275 24.3548C14.8727 24.4627 15.2271 24.5166 15.5905 24.5166C16.0992 24.5166 16.5535 24.4627 16.9533 24.3548C17.3712 24.2469 17.7437 24.0581 18.0707 23.7884C18.3978 23.5367 18.6885 23.204 18.9429 22.7905C19.2155 22.3769 19.479 21.8555 19.7333 21.2261Z" stroke="#FA00FF" stroke-width="4" mask="url(#path-1-inside-1_1105_3419)" stroke-dasharray="0,0,0,0,0,79.34008026123047"><animate attributeType="XML" attributeName="stroke-dasharray" repeatCount="indefinite" dur="3.1862271661089254s" values="0,0,0,0,0,79.34008026123047; 
          0,0,0,19.647491848203288,20.397604716620602,39.294983696406575; 
          0,0,26.446693420410156,0,52.89338684082031,79.34008026123047; 
          0,0,52.89338684082031,0,26.446693420410156,79.34008026123047; 
          0,0,66.11673355102539,13.223346710205078,0,0; 
          0,79.34008026123047,0,26.446693420410156,0,79.34008026123047" keyTimes="0; 0.16666666666666666; 0.3333; 0.6666; 0.8333; 1" begin="0.882530335020346s"></animate></path>
<path d="M39.88 2.07676C42.551 2.07676 44.5407 2.58022 45.849 3.58714C47.1572 4.59405 47.8114 6.02351 47.8114 7.87552C47.8114 8.93638 47.6206 9.8444 47.239 10.5996C46.8574 11.3368 46.3123 11.9391 45.6037 12.4066C44.895 12.8562 44.0228 13.1888 42.9871 13.4046C41.9696 13.6024 40.8158 13.7012 39.5257 13.7012H36.9636V20.9295H35.1102V2.58921C35.7644 2.4094 36.5275 2.28354 37.3997 2.21162C38.2901 2.12171 39.1168 2.07676 39.88 2.07676ZM39.9617 3.66805C39.2713 3.66805 38.6807 3.69502 38.1901 3.74896C37.7177 3.78492 37.3089 3.82088 36.9636 3.85685V12.11H39.3076C40.307 12.11 41.2064 12.056 42.0059 11.9481C42.8236 11.8223 43.5141 11.6065 44.0774 11.3008C44.6588 10.9772 45.104 10.5367 45.4129 9.97925C45.7218 9.42185 45.8762 8.71162 45.8762 7.84855C45.8762 7.02144 45.7036 6.33817 45.3584 5.79875C45.0313 5.25934 44.5861 4.83679 44.0228 4.53112C43.4777 4.20747 42.8508 3.98271 42.1422 3.85685C41.4336 3.73098 40.7067 3.66805 39.9617 3.66805Z" stroke="#00C17C" stroke-width="4" mask="url(#path-1-inside-1_1105_3419)" stroke-dasharray="0,0,0,0,0,88.32848358154297"><animate attributeType="XML" attributeName="stroke-dasharray" repeatCount="indefinite" dur="3.4560392906467405s" values="0,0,0,0,0,88.32848358154297; 
          0,0,0,21.684754427172344,23.274220300025927,43.36950885434469; 
          0,0,29.442827860514324,0,58.88565572102865,88.32848358154297; 
          0,0,58.88565572102865,0,29.442827860514324,88.32848358154297; 
          0,0,73.60706965128581,14.721413930257162,0,0; 
          0,88.32848358154297,0,29.442827860514324,0,88.32848358154297" keyTimes="0; 0.16666666666666666; 0.3333; 0.6666; 0.8333; 1" begin="0.7530514498658515s"></animate></path>
<path d="M39.88 2.07676C42.551 2.07676 44.5407 2.58022 45.849 3.58714C47.1572 4.59405 47.8114 6.02351 47.8114 7.87552C47.8114 8.93638 47.6206 9.8444 47.239 10.5996C46.8574 11.3368 46.3123 11.9391 45.6037 12.4066C44.895 12.8562 44.0228 13.1888 42.9871 13.4046C41.9696 13.6024 40.8158 13.7012 39.5257 13.7012H36.9636V20.9295H35.1102V2.58921C35.7644 2.4094 36.5275 2.28354 37.3997 2.21162C38.2901 2.12171 39.1168 2.07676 39.88 2.07676ZM39.9617 3.66805C39.2713 3.66805 38.6807 3.69502 38.1901 3.74896C37.7177 3.78492 37.3089 3.82088 36.9636 3.85685V12.11H39.3076C40.307 12.11 41.2064 12.056 42.0059 11.9481C42.8236 11.8223 43.5141 11.6065 44.0774 11.3008C44.6588 10.9772 45.104 10.5367 45.4129 9.97925C45.7218 9.42185 45.8762 8.71162 45.8762 7.84855C45.8762 7.02144 45.7036 6.33817 45.3584 5.79875C45.0313 5.25934 44.5861 4.83679 44.0228 4.53112C43.4777 4.20747 42.8508 3.98271 42.1422 3.85685C41.4336 3.73098 40.7067 3.66805 39.9617 3.66805Z" stroke="#FF7A00" stroke-width="4" mask="url(#path-1-inside-1_1105_3419)" stroke-dasharray="0,0,0,0,0,88.32848358154297"><animate attributeType="XML" attributeName="stroke-dasharray" repeatCount="indefinite" dur="3.4258938618244237s" values="0,0,0,0,0,88.32848358154297; 
          0,0,0,21.727790835110863,23.14511107621037,43.455581670221726; 
          0,0,29.442827860514324,0,58.88565572102865,88.32848358154297; 
          0,0,58.88565572102865,0,29.442827860514324,88.32848358154297; 
          0,0,73.60706965128581,14.721413930257162,0,0; 
          0,88.32848358154297,0,29.442827860514324,0,88.32848358154297" keyTimes="0; 0.16666666666666666; 0.3333; 0.6666; 0.8333; 1" begin="0.6653220692802813s"></animate></path>
<path d="M39.88 2.07676C42.551 2.07676 44.5407 2.58022 45.849 3.58714C47.1572 4.59405 47.8114 6.02351 47.8114 7.87552C47.8114 8.93638 47.6206 9.8444 47.239 10.5996C46.8574 11.3368 46.3123 11.9391 45.6037 12.4066C44.895 12.8562 44.0228 13.1888 42.9871 13.4046C41.9696 13.6024 40.8158 13.7012 39.5257 13.7012H36.9636V20.9295H35.1102V2.58921C35.7644 2.4094 36.5275 2.28354 37.3997 2.21162C38.2901 2.12171 39.1168 2.07676 39.88 2.07676ZM39.9617 3.66805C39.2713 3.66805 38.6807 3.69502 38.1901 3.74896C37.7177 3.78492 37.3089 3.82088 36.9636 3.85685V12.11H39.3076C40.307 12.11 41.2064 12.056 42.0059 11.9481C42.8236 11.8223 43.5141 11.6065 44.0774 11.3008C44.6588 10.9772 45.104 10.5367 45.4129 9.97925C45.7218 9.42185 45.8762 8.71162 45.8762 7.84855C45.8762 7.02144 45.7036 6.33817 45.3584 5.79875C45.0313 5.25934 44.5861 4.83679 44.0228 4.53112C43.4777 4.20747 42.8508 3.98271 42.1422 3.85685C41.4336 3.73098 40.7067 3.66805 39.9617 3.66805Z" stroke="#FA00FF" stroke-width="4" mask="url(#path-1-inside-1_1105_3419)" stroke-dasharray="0,0,0,0,0,88.32848358154297"><animate attributeType="XML" attributeName="stroke-dasharray" repeatCount="indefinite" dur="3.452705254935869s" values="0,0,0,0,0,88.32848358154297; 
          0,0,0,21.154754910574027,24.864218849820883,42.309509821148055; 
          0,0,29.442827860514324,0,58.88565572102865,88.32848358154297; 
          0,0,58.88565572102865,0,29.442827860514324,88.32848358154297; 
          0,0,73.60706965128581,14.721413930257162,0,0; 
          0,88.32848358154297,0,29.442827860514324,0,88.32848358154297" keyTimes="0; 0.16666666666666666; 0.3333; 0.6666; 0.8333; 1" begin="0.814348987644126s"></animate></path>
<path d="M55.928 6.71577C56.5095 6.71577 57.0546 6.76072 57.5634 6.85062C58.0903 6.94053 58.4537 7.03043 58.6536 7.12033L58.2993 8.6307C58.1539 8.55878 57.8541 8.48686 57.3999 8.41494C56.9638 8.32503 56.3823 8.28008 55.6555 8.28008C54.8923 8.28008 54.2745 8.33402 53.8021 8.44191C53.3478 8.54979 53.048 8.6397 52.9027 8.71162V20.9295H51.131V7.63278C51.5853 7.43499 52.2122 7.23721 53.0117 7.03942C53.8112 6.82365 54.7833 6.71577 55.928 6.71577Z" stroke="#00C17C" stroke-width="4" mask="url(#path-1-inside-1_1105_3419)" stroke-dasharray="0,0,0,0,0,42.006996154785156"><animate attributeType="XML" attributeName="stroke-dasharray" repeatCount="indefinite" dur="3.093219555464359s" values="0,0,0,0,0,42.006996154785156; 
          0,0,0,10.236685415655858,11.296939907817585,20.473370831311716; 
          0,0,14.002332051595053,0,28.004664103190105,42.006996154785156; 
          0,0,28.004664103190105,0,14.002332051595053,42.006996154785156; 
          0,0,35.00583012898763,7.001166025797526,0,0; 
          0,42.006996154785156,0,14.002332051595053,0,42.006996154785156" keyTimes="0; 0.16666666666666666; 0.3333; 0.6666; 0.8333; 1" begin="0.14855561809484114s"></animate></path>
<path d="M55.928 6.71577C56.5095 6.71577 57.0546 6.76072 57.5634 6.85062C58.0903 6.94053 58.4537 7.03043 58.6536 7.12033L58.2993 8.6307C58.1539 8.55878 57.8541 8.48686 57.3999 8.41494C56.9638 8.32503 56.3823 8.28008 55.6555 8.28008C54.8923 8.28008 54.2745 8.33402 53.8021 8.44191C53.3478 8.54979 53.048 8.6397 52.9027 8.71162V20.9295H51.131V7.63278C51.5853 7.43499 52.2122 7.23721 53.0117 7.03942C53.8112 6.82365 54.7833 6.71577 55.928 6.71577Z" stroke="#FF7A00" stroke-width="4" mask="url(#path-1-inside-1_1105_3419)" stroke-dasharray="0,0,0,0,0,42.006996154785156"><animate attributeType="XML" attributeName="stroke-dasharray" repeatCount="indefinite" dur="3.62540748535263s" values="0,0,0,0,0,42.006996154785156; 
          0,0,0,9.97589700931987,12.07930512682555,19.95179401863974; 
          0,0,14.002332051595053,0,28.004664103190105,42.006996154785156; 
          0,0,28.004664103190105,0,14.002332051595053,42.006996154785156; 
          0,0,35.00583012898763,7.001166025797526,0,0; 
          0,42.006996154785156,0,14.002332051595053,0,42.006996154785156" keyTimes="0; 0.16666666666666666; 0.3333; 0.6666; 0.8333; 1" begin="0.29656964546197095s"></animate></path>
<path d="M55.928 6.71577C56.5095 6.71577 57.0546 6.76072 57.5634 6.85062C58.0903 6.94053 58.4537 7.03043 58.6536 7.12033L58.2993 8.6307C58.1539 8.55878 57.8541 8.48686 57.3999 8.41494C56.9638 8.32503 56.3823 8.28008 55.6555 8.28008C54.8923 8.28008 54.2745 8.33402 53.8021 8.44191C53.3478 8.54979 53.048 8.6397 52.9027 8.71162V20.9295H51.131V7.63278C51.5853 7.43499 52.2122 7.23721 53.0117 7.03942C53.8112 6.82365 54.7833 6.71577 55.928 6.71577Z" stroke="#FA00FF" stroke-width="4" mask="url(#path-1-inside-1_1105_3419)" stroke-dasharray="0,0,0,0,0,42.006996154785156"><animate attributeType="XML" attributeName="stroke-dasharray" repeatCount="indefinite" dur="3.6185851782402088s" values="0,0,0,0,0,42.006996154785156; 
          0,0,0,10.163642915072135,11.516067409568754,20.32728583014427; 
          0,0,14.002332051595053,0,28.004664103190105,42.006996154785156; 
          0,0,28.004664103190105,0,14.002332051595053,42.006996154785156; 
          0,0,35.00583012898763,7.001166025797526,0,0; 
          0,42.006996154785156,0,14.002332051595053,0,42.006996154785156" keyTimes="0; 0.16666666666666666; 0.3333; 0.6666; 0.8333; 1" begin="0.5648693169777982s"></animate></path>
<path d="M73.3451 13.971C73.3451 15.0678 73.1815 16.0657 72.8545 16.9647C72.5456 17.8638 72.1004 18.6279 71.5189 19.2573C70.9557 19.8866 70.2834 20.3811 69.502 20.7407C68.7207 21.0823 67.8576 21.2531 66.9127 21.2531C65.9679 21.2531 65.1048 21.0823 64.3234 20.7407C63.5421 20.3811 62.8607 19.8866 62.2793 19.2573C61.716 18.6279 61.2708 17.8638 60.9437 16.9647C60.6348 16.0657 60.4804 15.0678 60.4804 13.971C60.4804 12.8741 60.6348 11.8762 60.9437 10.9772C61.2708 10.0781 61.716 9.31397 62.2793 8.68465C62.8607 8.03734 63.5421 7.54288 64.3234 7.20124C65.1048 6.84163 65.9679 6.66183 66.9127 6.66183C67.8576 6.66183 68.7207 6.84163 69.502 7.20124C70.2834 7.54288 70.9557 8.03734 71.5189 8.68465C72.1004 9.31397 72.5456 10.0781 72.8545 10.9772C73.1815 11.8762 73.3451 12.8741 73.3451 13.971ZM71.4644 13.971C71.4644 12.2268 71.0556 10.8423 70.2379 9.81743C69.4203 8.77455 68.3119 8.25311 66.9127 8.25311C65.5136 8.25311 64.4052 8.77455 63.5875 9.81743C62.7699 10.8423 62.361 12.2268 62.361 13.971C62.361 15.7151 62.7699 17.0996 63.5875 18.1245C64.4052 19.1494 65.5136 19.6618 66.9127 19.6618C68.3119 19.6618 69.4203 19.1494 70.2379 18.1245C71.0556 17.0996 71.4644 15.7151 71.4644 13.971Z" stroke="#00C17C" stroke-width="4" mask="url(#path-1-inside-1_1105_3419)" stroke-dasharray="0,0,0,0,0,76.542236328125"><animate attributeType="XML" attributeName="stroke-dasharray" repeatCount="indefinite" dur="3.2720640915814694s" values="0,0,0,0,0,76.542236328125; 
          0,0,0,19.5015292705112,18.037648516591403,39.0030585410224; 
          0,0,25.514078776041668,0,51.028157552083336,76.542236328125; 
          0,0,51.028157552083336,0,25.514078776041668,76.542236328125; 
          0,0,63.785196940104164,12.757039388020834,0,0; 
          0,76.542236328125,0,25.514078776041668,0,76.542236328125" keyTimes="0; 0.16666666666666666; 0.3333; 0.6666; 0.8333; 1" begin="0.9798781678508254s"></animate></path>
<path d="M73.3451 13.971C73.3451 15.0678 73.1815 16.0657 72.8545 16.9647C72.5456 17.8638 72.1004 18.6279 71.5189 19.2573C70.9557 19.8866 70.2834 20.3811 69.502 20.7407C68.7207 21.0823 67.8576 21.2531 66.9127 21.2531C65.9679 21.2531 65.1048 21.0823 64.3234 20.7407C63.5421 20.3811 62.8607 19.8866 62.2793 19.2573C61.716 18.6279 61.2708 17.8638 60.9437 16.9647C60.6348 16.0657 60.4804 15.0678 60.4804 13.971C60.4804 12.8741 60.6348 11.8762 60.9437 10.9772C61.2708 10.0781 61.716 9.31397 62.2793 8.68465C62.8607 8.03734 63.5421 7.54288 64.3234 7.20124C65.1048 6.84163 65.9679 6.66183 66.9127 6.66183C67.8576 6.66183 68.7207 6.84163 69.502 7.20124C70.2834 7.54288 70.9557 8.03734 71.5189 8.68465C72.1004 9.31397 72.5456 10.0781 72.8545 10.9772C73.1815 11.8762 73.3451 12.8741 73.3451 13.971ZM71.4644 13.971C71.4644 12.2268 71.0556 10.8423 70.2379 9.81743C69.4203 8.77455 68.3119 8.25311 66.9127 8.25311C65.5136 8.25311 64.4052 8.77455 63.5875 9.81743C62.7699 10.8423 62.361 12.2268 62.361 13.971C62.361 15.7151 62.7699 17.0996 63.5875 18.1245C64.4052 19.1494 65.5136 19.6618 66.9127 19.6618C68.3119 19.6618 69.4203 19.1494 70.2379 18.1245C71.0556 17.0996 71.4644 15.7151 71.4644 13.971Z" stroke="#FF7A00" stroke-width="4" mask="url(#path-1-inside-1_1105_3419)" stroke-dasharray="0,0,0,0,0,76.542236328125"><animate attributeType="XML" attributeName="stroke-dasharray" repeatCount="indefinite" dur="3.6359593873791796s" values="0,0,0,0,0,76.542236328125; 
          0,0,0,19.42033594545706,18.281228491753815,38.84067189091412; 
          0,0,25.514078776041668,0,51.028157552083336,76.542236328125; 
          0,0,51.028157552083336,0,25.514078776041668,76.542236328125; 
          0,0,63.785196940104164,12.757039388020834,0,0; 
          0,76.542236328125,0,25.514078776041668,0,76.542236328125" keyTimes="0; 0.16666666666666666; 0.3333; 0.6666; 0.8333; 1" begin="0.22494269137531084s"></animate></path>
<path d="M73.3451 13.971C73.3451 15.0678 73.1815 16.0657 72.8545 16.9647C72.5456 17.8638 72.1004 18.6279 71.5189 19.2573C70.9557 19.8866 70.2834 20.3811 69.502 20.7407C68.7207 21.0823 67.8576 21.2531 66.9127 21.2531C65.9679 21.2531 65.1048 21.0823 64.3234 20.7407C63.5421 20.3811 62.8607 19.8866 62.2793 19.2573C61.716 18.6279 61.2708 17.8638 60.9437 16.9647C60.6348 16.0657 60.4804 15.0678 60.4804 13.971C60.4804 12.8741 60.6348 11.8762 60.9437 10.9772C61.2708 10.0781 61.716 9.31397 62.2793 8.68465C62.8607 8.03734 63.5421 7.54288 64.3234 7.20124C65.1048 6.84163 65.9679 6.66183 66.9127 6.66183C67.8576 6.66183 68.7207 6.84163 69.502 7.20124C70.2834 7.54288 70.9557 8.03734 71.5189 8.68465C72.1004 9.31397 72.5456 10.0781 72.8545 10.9772C73.1815 11.8762 73.3451 12.8741 73.3451 13.971ZM71.4644 13.971C71.4644 12.2268 71.0556 10.8423 70.2379 9.81743C69.4203 8.77455 68.3119 8.25311 66.9127 8.25311C65.5136 8.25311 64.4052 8.77455 63.5875 9.81743C62.7699 10.8423 62.361 12.2268 62.361 13.971C62.361 15.7151 62.7699 17.0996 63.5875 18.1245C64.4052 19.1494 65.5136 19.6618 66.9127 19.6618C68.3119 19.6618 69.4203 19.1494 70.2379 18.1245C71.0556 17.0996 71.4644 15.7151 71.4644 13.971Z" stroke="#FA00FF" stroke-width="4" mask="url(#path-1-inside-1_1105_3419)" stroke-dasharray="0,0,0,0,0,76.542236328125"><animate attributeType="XML" attributeName="stroke-dasharray" repeatCount="indefinite" dur="3.074083740540651s" values="0,0,0,0,0,76.542236328125; 
          0,0,0,19.221694757243892,18.877152056393328,38.443389514487784; 
          0,0,25.514078776041668,0,51.028157552083336,76.542236328125; 
          0,0,51.028157552083336,0,25.514078776041668,76.542236328125; 
          0,0,63.785196940104164,12.757039388020834,0,0; 
          0,76.542236328125,0,25.514078776041668,0,76.542236328125" keyTimes="0; 0.16666666666666666; 0.3333; 0.6666; 0.8333; 1" begin="0.42484559749487655s"></animate></path>
<path d="M78.8516 6.98548H84.4663V8.46888H78.8516V15.8859C78.8516 16.677 78.9152 17.3243 79.0424 17.8278C79.1877 18.3133 79.3876 18.6909 79.642 18.9606C79.8964 19.2303 80.2053 19.4101 80.5687 19.5C80.9321 19.5899 81.3318 19.6349 81.7679 19.6349C82.5129 19.6349 83.1126 19.5539 83.5668 19.3921C84.0211 19.2123 84.3754 19.0505 84.6298 18.9066L85.0659 20.3631C84.8115 20.5249 84.3663 20.7137 83.7303 20.9295C83.0944 21.1272 82.4039 21.2261 81.6589 21.2261C80.7867 21.2261 80.0508 21.1183 79.4512 20.9025C78.8697 20.6687 78.3973 20.3271 78.0339 19.8776C77.6887 19.4101 77.4434 18.8347 77.298 18.1515C77.1526 17.4682 77.08 16.6591 77.08 15.7241V2.88589L78.8516 2.56224V6.98548Z" stroke="#00C17C" stroke-width="4" mask="url(#path-1-inside-1_1105_3419)" stroke-dasharray="0,0,0,0,0,61.149139404296875"><animate attributeType="XML" attributeName="stroke-dasharray" repeatCount="indefinite" dur="3.340785625869153s" values="0,0,0,0,0,61.149139404296875; 
          0,0,0,15.531282570294655,14.5552916934129,31.06256514058931; 
          0,0,20.383046468098957,0,40.766092936197914,61.149139404296875; 
          0,0,40.766092936197914,0,20.383046468098957,61.149139404296875; 
          0,0,50.9576161702474,10.191523234049479,0,0; 
          0,61.149139404296875,0,20.383046468098957,0,61.149139404296875" keyTimes="0; 0.16666666666666666; 0.3333; 0.6666; 0.8333; 1" begin="0.0050445928635649995s"></animate></path>
<path d="M78.8516 6.98548H84.4663V8.46888H78.8516V15.8859C78.8516 16.677 78.9152 17.3243 79.0424 17.8278C79.1877 18.3133 79.3876 18.6909 79.642 18.9606C79.8964 19.2303 80.2053 19.4101 80.5687 19.5C80.9321 19.5899 81.3318 19.6349 81.7679 19.6349C82.5129 19.6349 83.1126 19.5539 83.5668 19.3921C84.0211 19.2123 84.3754 19.0505 84.6298 18.9066L85.0659 20.3631C84.8115 20.5249 84.3663 20.7137 83.7303 20.9295C83.0944 21.1272 82.4039 21.2261 81.6589 21.2261C80.7867 21.2261 80.0508 21.1183 79.4512 20.9025C78.8697 20.6687 78.3973 20.3271 78.0339 19.8776C77.6887 19.4101 77.4434 18.8347 77.298 18.1515C77.1526 17.4682 77.08 16.6591 77.08 15.7241V2.88589L78.8516 2.56224V6.98548Z" stroke="#FF7A00" stroke-width="4" mask="url(#path-1-inside-1_1105_3419)" stroke-dasharray="0,0,0,0,0,61.149139404296875"><animate attributeType="XML" attributeName="stroke-dasharray" repeatCount="indefinite" dur="3.347708264728821s" values="0,0,0,0,0,61.149139404296875; 
          0,0,0,15.57236798578447,14.432035446943464,31.14473597156894; 
          0,0,20.383046468098957,0,40.766092936197914,61.149139404296875; 
          0,0,40.766092936197914,0,20.383046468098957,61.149139404296875; 
          0,0,50.9576161702474,10.191523234049479,0,0; 
          0,61.149139404296875,0,20.383046468098957,0,61.149139404296875" keyTimes="0; 0.16666666666666666; 0.3333; 0.6666; 0.8333; 1" begin="0.6476623009900261s"></animate></path>
<path d="M78.8516 6.98548H84.4663V8.46888H78.8516V15.8859C78.8516 16.677 78.9152 17.3243 79.0424 17.8278C79.1877 18.3133 79.3876 18.6909 79.642 18.9606C79.8964 19.2303 80.2053 19.4101 80.5687 19.5C80.9321 19.5899 81.3318 19.6349 81.7679 19.6349C82.5129 19.6349 83.1126 19.5539 83.5668 19.3921C84.0211 19.2123 84.3754 19.0505 84.6298 18.9066L85.0659 20.3631C84.8115 20.5249 84.3663 20.7137 83.7303 20.9295C83.0944 21.1272 82.4039 21.2261 81.6589 21.2261C80.7867 21.2261 80.0508 21.1183 79.4512 20.9025C78.8697 20.6687 78.3973 20.3271 78.0339 19.8776C77.6887 19.4101 77.4434 18.8347 77.298 18.1515C77.1526 17.4682 77.08 16.6591 77.08 15.7241V2.88589L78.8516 2.56224V6.98548Z" stroke="#FA00FF" stroke-width="4" mask="url(#path-1-inside-1_1105_3419)" stroke-dasharray="0,0,0,0,0,61.149139404296875"><animate attributeType="XML" attributeName="stroke-dasharray" repeatCount="indefinite" dur="3.664364297019965s" values="0,0,0,0,0,61.149139404296875; 
          0,0,0,15.181470908507332,15.604726678774881,30.362941817014665; 
          0,0,20.383046468098957,0,40.766092936197914,61.149139404296875; 
          0,0,40.766092936197914,0,20.383046468098957,61.149139404296875; 
          0,0,50.9576161702474,10.191523234049479,0,0; 
          0,61.149139404296875,0,20.383046468098957,0,61.149139404296875" keyTimes="0; 0.16666666666666666; 0.3333; 0.6666; 0.8333; 1" begin="0.23359921660102953s"></animate></path>
<path d="M99.749 13.971C99.749 15.0678 99.5855 16.0657 99.2584 16.9647C98.9495 17.8638 98.5044 18.6279 97.9229 19.2573C97.3596 19.8866 96.6873 20.3811 95.906 20.7407C95.1246 21.0823 94.2615 21.2531 93.3167 21.2531C92.3718 21.2531 91.5087 21.0823 90.7274 20.7407C89.9461 20.3811 89.2647 19.8866 88.6832 19.2573C88.1199 18.6279 87.6748 17.8638 87.3477 16.9647C87.0388 16.0657 86.8843 15.0678 86.8843 13.971C86.8843 12.8741 87.0388 11.8762 87.3477 10.9772C87.6748 10.0781 88.1199 9.31397 88.6832 8.68465C89.2647 8.03734 89.9461 7.54288 90.7274 7.20124C91.5087 6.84163 92.3718 6.66183 93.3167 6.66183C94.2615 6.66183 95.1246 6.84163 95.906 7.20124C96.6873 7.54288 97.3596 8.03734 97.9229 8.68465C98.5044 9.31397 98.9495 10.0781 99.2584 10.9772C99.5855 11.8762 99.749 12.8741 99.749 13.971ZM97.8684 13.971C97.8684 12.2268 97.4596 10.8423 96.6419 9.81743C95.8242 8.77455 94.7158 8.25311 93.3167 8.25311C91.9176 8.25311 90.8092 8.77455 89.9915 9.81743C89.1738 10.8423 88.765 12.2268 88.765 13.971C88.765 15.7151 89.1738 17.0996 89.9915 18.1245C90.8092 19.1494 91.9176 19.6618 93.3167 19.6618C94.7158 19.6618 95.8242 19.1494 96.6419 18.1245C97.4596 17.0996 97.8684 15.7151 97.8684 13.971Z" stroke="#00C17C" stroke-width="4" mask="url(#path-1-inside-1_1105_3419)" stroke-dasharray="0,0,0,0,0,76.54219818115234"><animate attributeType="XML" attributeName="stroke-dasharray" repeatCount="indefinite" dur="3.100314502025742s" values="0,0,0,0,0,76.54219818115234; 
          0,0,0,19.531886654658948,17.946538217175497,39.063773309317895; 
          0,0,25.514066060384113,0,51.02813212076823,76.54219818115234; 
          0,0,51.02813212076823,0,25.514066060384113,76.54219818115234; 
          0,0,63.78516515096029,12.757033030192057,0,0; 
          0,76.54219818115234,0,25.514066060384113,0,76.54219818115234" keyTimes="0; 0.16666666666666666; 0.3333; 0.6666; 0.8333; 1" begin="0.22290920088098803s"></animate></path>
<path d="M99.749 13.971C99.749 15.0678 99.5855 16.0657 99.2584 16.9647C98.9495 17.8638 98.5044 18.6279 97.9229 19.2573C97.3596 19.8866 96.6873 20.3811 95.906 20.7407C95.1246 21.0823 94.2615 21.2531 93.3167 21.2531C92.3718 21.2531 91.5087 21.0823 90.7274 20.7407C89.9461 20.3811 89.2647 19.8866 88.6832 19.2573C88.1199 18.6279 87.6748 17.8638 87.3477 16.9647C87.0388 16.0657 86.8843 15.0678 86.8843 13.971C86.8843 12.8741 87.0388 11.8762 87.3477 10.9772C87.6748 10.0781 88.1199 9.31397 88.6832 8.68465C89.2647 8.03734 89.9461 7.54288 90.7274 7.20124C91.5087 6.84163 92.3718 6.66183 93.3167 6.66183C94.2615 6.66183 95.1246 6.84163 95.906 7.20124C96.6873 7.54288 97.3596 8.03734 97.9229 8.68465C98.5044 9.31397 98.9495 10.0781 99.2584 10.9772C99.5855 11.8762 99.749 12.8741 99.749 13.971ZM97.8684 13.971C97.8684 12.2268 97.4596 10.8423 96.6419 9.81743C95.8242 8.77455 94.7158 8.25311 93.3167 8.25311C91.9176 8.25311 90.8092 8.77455 89.9915 9.81743C89.1738 10.8423 88.765 12.2268 88.765 13.971C88.765 15.7151 89.1738 17.0996 89.9915 18.1245C90.8092 19.1494 91.9176 19.6618 93.3167 19.6618C94.7158 19.6618 95.8242 19.1494 96.6419 18.1245C97.4596 17.0996 97.8684 15.7151 97.8684 13.971Z" stroke="#FF7A00" stroke-width="4" mask="url(#path-1-inside-1_1105_3419)" stroke-dasharray="0,0,0,0,0,76.54219818115234"><animate attributeType="XML" attributeName="stroke-dasharray" repeatCount="indefinite" dur="3.5930862165519604s" values="0,0,0,0,0,76.54219818115234; 
          0,0,0,19.584746566453397,17.787958481792153,39.169493132906794; 
          0,0,25.514066060384113,0,51.02813212076823,76.54219818115234; 
          0,0,51.02813212076823,0,25.514066060384113,76.54219818115234; 
          0,0,63.78516515096029,12.757033030192057,0,0; 
          0,76.54219818115234,0,25.514066060384113,0,76.54219818115234" keyTimes="0; 0.16666666666666666; 0.3333; 0.6666; 0.8333; 1" begin="1.1885045709672801s"></animate></path>
<path d="M99.749 13.971C99.749 15.0678 99.5855 16.0657 99.2584 16.9647C98.9495 17.8638 98.5044 18.6279 97.9229 19.2573C97.3596 19.8866 96.6873 20.3811 95.906 20.7407C95.1246 21.0823 94.2615 21.2531 93.3167 21.2531C92.3718 21.2531 91.5087 21.0823 90.7274 20.7407C89.9461 20.3811 89.2647 19.8866 88.6832 19.2573C88.1199 18.6279 87.6748 17.8638 87.3477 16.9647C87.0388 16.0657 86.8843 15.0678 86.8843 13.971C86.8843 12.8741 87.0388 11.8762 87.3477 10.9772C87.6748 10.0781 88.1199 9.31397 88.6832 8.68465C89.2647 8.03734 89.9461 7.54288 90.7274 7.20124C91.5087 6.84163 92.3718 6.66183 93.3167 6.66183C94.2615 6.66183 95.1246 6.84163 95.906 7.20124C96.6873 7.54288 97.3596 8.03734 97.9229 8.68465C98.5044 9.31397 98.9495 10.0781 99.2584 10.9772C99.5855 11.8762 99.749 12.8741 99.749 13.971ZM97.8684 13.971C97.8684 12.2268 97.4596 10.8423 96.6419 9.81743C95.8242 8.77455 94.7158 8.25311 93.3167 8.25311C91.9176 8.25311 90.8092 8.77455 89.9915 9.81743C89.1738 10.8423 88.765 12.2268 88.765 13.971C88.765 15.7151 89.1738 17.0996 89.9915 18.1245C90.8092 19.1494 91.9176 19.6618 93.3167 19.6618C94.7158 19.6618 95.8242 19.1494 96.6419 18.1245C97.4596 17.0996 97.8684 15.7151 97.8684 13.971Z" stroke="#FA00FF" stroke-width="4" mask="url(#path-1-inside-1_1105_3419)" stroke-dasharray="0,0,0,0,0,76.54219818115234"><animate attributeType="XML" attributeName="stroke-dasharray" repeatCount="indefinite" dur="3.2871205991728685s" values="0,0,0,0,0,76.54219818115234; 
          0,0,0,19.150422381070058,19.090931037942166,38.300844762140116; 
          0,0,25.514066060384113,0,51.02813212076823,76.54219818115234; 
          0,0,51.02813212076823,0,25.514066060384113,76.54219818115234; 
          0,0,63.78516515096029,12.757033030192057,0,0; 
          0,76.54219818115234,0,25.514066060384113,0,76.54219818115234" keyTimes="0; 0.16666666666666666; 0.3333; 0.6666; 0.8333; 1" begin="0.9834404948017887s"></animate></path>
<path d="M106.482 19.6888C107.5 19.6888 108.335 19.527 108.99 19.2033C109.662 18.8617 109.998 18.2953 109.998 17.5041C109.998 17.1266 109.934 16.8029 109.807 16.5332C109.698 16.2635 109.507 16.0207 109.235 15.805C108.962 15.5892 108.599 15.3824 108.145 15.1846C107.709 14.9869 107.163 14.7531 106.509 14.4834C105.982 14.2676 105.483 14.0519 105.01 13.8361C104.538 13.6024 104.12 13.3416 103.756 13.0539C103.393 12.7483 103.102 12.3887 102.884 11.9751C102.666 11.5615 102.557 11.0581 102.557 10.4647C102.557 9.33195 102.984 8.41494 103.838 7.71369C104.71 7.01245 105.901 6.66183 107.409 6.66183C108.372 6.66183 109.162 6.74274 109.78 6.90456C110.416 7.06639 110.861 7.21024 111.116 7.3361L110.707 8.90042C110.489 8.79253 110.116 8.64869 109.589 8.46888C109.08 8.28907 108.326 8.19917 107.327 8.19917C106.927 8.19917 106.546 8.24412 106.182 8.33403C105.837 8.40595 105.528 8.53181 105.256 8.71162C104.983 8.87344 104.765 9.08921 104.601 9.35892C104.438 9.61065 104.356 9.92531 104.356 10.3029C104.356 10.6805 104.429 11.0041 104.574 11.2739C104.72 11.5436 104.928 11.7863 105.201 12.0021C105.492 12.1999 105.837 12.3887 106.237 12.5685C106.655 12.7483 107.127 12.9461 107.654 13.1618C108.199 13.3776 108.717 13.6024 109.208 13.8361C109.716 14.0519 110.162 14.3216 110.543 14.6452C110.925 14.9509 111.234 15.3285 111.47 15.778C111.706 16.2095 111.824 16.758 111.824 17.4232C111.824 18.6819 111.343 19.6349 110.38 20.2822C109.435 20.9295 108.136 21.2531 106.482 21.2531C105.246 21.2531 104.302 21.1452 103.647 20.9295C102.993 20.7317 102.557 20.5788 102.339 20.471L102.803 18.8797C102.857 18.9156 102.975 18.9786 103.157 19.0685C103.339 19.1404 103.584 19.2303 103.893 19.3382C104.202 19.4281 104.565 19.509 104.983 19.5809C105.419 19.6528 105.919 19.6888 106.482 19.6888Z" stroke="#00C17C" stroke-width="4" mask="url(#path-1-inside-1_1105_3419)" stroke-dasharray="0,0,0,0,0,63.901451110839844"><animate attributeType="XML" attributeName="stroke-dasharray" repeatCount="indefinite" dur="3.710460158160836s" values="0,0,0,0,0,63.901451110839844; 
          0,0,0,15.129606521867997,18.51263154523585,30.259213043735993; 
          0,0,21.30048370361328,0,42.60096740722656,63.901451110839844; 
          0,0,42.60096740722656,0,21.30048370361328,63.901451110839844; 
          0,0,53.2512092590332,10.65024185180664,0,0; 
          0,63.901451110839844,0,21.30048370361328,0,63.901451110839844" keyTimes="0; 0.16666666666666666; 0.3333; 0.6666; 0.8333; 1" begin="0.3049047862872333s"></animate></path>
<path d="M106.482 19.6888C107.5 19.6888 108.335 19.527 108.99 19.2033C109.662 18.8617 109.998 18.2953 109.998 17.5041C109.998 17.1266 109.934 16.8029 109.807 16.5332C109.698 16.2635 109.507 16.0207 109.235 15.805C108.962 15.5892 108.599 15.3824 108.145 15.1846C107.709 14.9869 107.163 14.7531 106.509 14.4834C105.982 14.2676 105.483 14.0519 105.01 13.8361C104.538 13.6024 104.12 13.3416 103.756 13.0539C103.393 12.7483 103.102 12.3887 102.884 11.9751C102.666 11.5615 102.557 11.0581 102.557 10.4647C102.557 9.33195 102.984 8.41494 103.838 7.71369C104.71 7.01245 105.901 6.66183 107.409 6.66183C108.372 6.66183 109.162 6.74274 109.78 6.90456C110.416 7.06639 110.861 7.21024 111.116 7.3361L110.707 8.90042C110.489 8.79253 110.116 8.64869 109.589 8.46888C109.08 8.28907 108.326 8.19917 107.327 8.19917C106.927 8.19917 106.546 8.24412 106.182 8.33403C105.837 8.40595 105.528 8.53181 105.256 8.71162C104.983 8.87344 104.765 9.08921 104.601 9.35892C104.438 9.61065 104.356 9.92531 104.356 10.3029C104.356 10.6805 104.429 11.0041 104.574 11.2739C104.72 11.5436 104.928 11.7863 105.201 12.0021C105.492 12.1999 105.837 12.3887 106.237 12.5685C106.655 12.7483 107.127 12.9461 107.654 13.1618C108.199 13.3776 108.717 13.6024 109.208 13.8361C109.716 14.0519 110.162 14.3216 110.543 14.6452C110.925 14.9509 111.234 15.3285 111.47 15.778C111.706 16.2095 111.824 16.758 111.824 17.4232C111.824 18.6819 111.343 19.6349 110.38 20.2822C109.435 20.9295 108.136 21.2531 106.482 21.2531C105.246 21.2531 104.302 21.1452 103.647 20.9295C102.993 20.7317 102.557 20.5788 102.339 20.471L102.803 18.8797C102.857 18.9156 102.975 18.9786 103.157 19.0685C103.339 19.1404 103.584 19.2303 103.893 19.3382C104.202 19.4281 104.565 19.509 104.983 19.5809C105.419 19.6528 105.919 19.6888 106.482 19.6888Z" stroke="#FF7A00" stroke-width="4" mask="url(#path-1-inside-1_1105_3419)" stroke-dasharray="0,0,0,0,0,63.901451110839844"><animate attributeType="XML" attributeName="stroke-dasharray" repeatCount="indefinite" dur="3.366055362547911s" values="0,0,0,0,0,63.901451110839844; 
          0,0,0,15.866683247897706,16.30140136714673,31.733366495795412; 
          0,0,21.30048370361328,0,42.60096740722656,63.901451110839844; 
          0,0,42.60096740722656,0,21.30048370361328,63.901451110839844; 
          0,0,53.2512092590332,10.65024185180664,0,0; 
          0,63.901451110839844,0,21.30048370361328,0,63.901451110839844" keyTimes="0; 0.16666666666666666; 0.3333; 0.6666; 0.8333; 1" begin="0.9510844182063278s"></animate></path>
<path d="M106.482 19.6888C107.5 19.6888 108.335 19.527 108.99 19.2033C109.662 18.8617 109.998 18.2953 109.998 17.5041C109.998 17.1266 109.934 16.8029 109.807 16.5332C109.698 16.2635 109.507 16.0207 109.235 15.805C108.962 15.5892 108.599 15.3824 108.145 15.1846C107.709 14.9869 107.163 14.7531 106.509 14.4834C105.982 14.2676 105.483 14.0519 105.01 13.8361C104.538 13.6024 104.12 13.3416 103.756 13.0539C103.393 12.7483 103.102 12.3887 102.884 11.9751C102.666 11.5615 102.557 11.0581 102.557 10.4647C102.557 9.33195 102.984 8.41494 103.838 7.71369C104.71 7.01245 105.901 6.66183 107.409 6.66183C108.372 6.66183 109.162 6.74274 109.78 6.90456C110.416 7.06639 110.861 7.21024 111.116 7.3361L110.707 8.90042C110.489 8.79253 110.116 8.64869 109.589 8.46888C109.08 8.28907 108.326 8.19917 107.327 8.19917C106.927 8.19917 106.546 8.24412 106.182 8.33403C105.837 8.40595 105.528 8.53181 105.256 8.71162C104.983 8.87344 104.765 9.08921 104.601 9.35892C104.438 9.61065 104.356 9.92531 104.356 10.3029C104.356 10.6805 104.429 11.0041 104.574 11.2739C104.72 11.5436 104.928 11.7863 105.201 12.0021C105.492 12.1999 105.837 12.3887 106.237 12.5685C106.655 12.7483 107.127 12.9461 107.654 13.1618C108.199 13.3776 108.717 13.6024 109.208 13.8361C109.716 14.0519 110.162 14.3216 110.543 14.6452C110.925 14.9509 111.234 15.3285 111.47 15.778C111.706 16.2095 111.824 16.758 111.824 17.4232C111.824 18.6819 111.343 19.6349 110.38 20.2822C109.435 20.9295 108.136 21.2531 106.482 21.2531C105.246 21.2531 104.302 21.1452 103.647 20.9295C102.993 20.7317 102.557 20.5788 102.339 20.471L102.803 18.8797C102.857 18.9156 102.975 18.9786 103.157 19.0685C103.339 19.1404 103.584 19.2303 103.893 19.3382C104.202 19.4281 104.565 19.509 104.983 19.5809C105.419 19.6528 105.919 19.6888 106.482 19.6888Z" stroke="#FA00FF" stroke-width="4" mask="url(#path-1-inside-1_1105_3419)" stroke-dasharray="0,0,0,0,0,63.901451110839844"><animate attributeType="XML" attributeName="stroke-dasharray" repeatCount="indefinite" dur="3.34217959458894s" values="0,0,0,0,0,63.901451110839844; 
          0,0,0,15.682511396421573,16.853916921575124,31.365022792843146; 
          0,0,21.30048370361328,0,42.60096740722656,63.901451110839844; 
          0,0,42.60096740722656,0,21.30048370361328,63.901451110839844; 
          0,0,53.2512092590332,10.65024185180664,0,0; 
          0,63.901451110839844,0,21.30048370361328,0,63.901451110839844" keyTimes="0; 0.16666666666666666; 0.3333; 0.6666; 0.8333; 1" begin="0.22991694655584066s"></animate></path>
<path d="M126.072 20.444C125.545 20.5878 124.836 20.7497 123.946 20.9295C123.055 21.1093 121.965 21.1992 120.675 21.1992C119.621 21.1992 118.74 21.0463 118.031 20.7407C117.323 20.435 116.75 20.0035 116.314 19.4461C115.878 18.8887 115.56 18.2144 115.36 17.4232C115.178 16.6321 115.088 15.76 115.088 14.8071V6.98548H116.859V14.2407C116.859 15.2296 116.932 16.0657 117.077 16.749C117.223 17.4322 117.459 17.9896 117.786 18.4212C118.113 18.8347 118.531 19.1404 119.04 19.3382C119.567 19.518 120.203 19.6079 120.948 19.6079C121.783 19.6079 122.51 19.5629 123.128 19.473C123.746 19.3831 124.136 19.3022 124.3 19.2303V6.98548H126.072V20.444Z" stroke="#00C17C" stroke-width="4" mask="url(#path-1-inside-1_1105_3419)" stroke-dasharray="0,0,0,0,0,70.80152130126953"><animate attributeType="XML" attributeName="stroke-dasharray" repeatCount="indefinite" dur="3.4215416488686783s" values="0,0,0,0,0,70.80152130126953; 
          0,0,0,17.744416478844276,17.568271864736708,35.48883295768855; 
          0,0,23.600507100423176,0,47.20101420084635,70.80152130126953; 
          0,0,47.20101420084635,0,23.600507100423176,70.80152130126953; 
          0,0,59.001267751057945,11.800253550211588,0,0; 
          0,70.80152130126953,0,23.600507100423176,0,70.80152130126953" keyTimes="0; 0.16666666666666666; 0.3333; 0.6666; 0.8333; 1" begin="0.2847970410208154s"></animate></path>
<path d="M126.072 20.444C125.545 20.5878 124.836 20.7497 123.946 20.9295C123.055 21.1093 121.965 21.1992 120.675 21.1992C119.621 21.1992 118.74 21.0463 118.031 20.7407C117.323 20.435 116.75 20.0035 116.314 19.4461C115.878 18.8887 115.56 18.2144 115.36 17.4232C115.178 16.6321 115.088 15.76 115.088 14.8071V6.98548H116.859V14.2407C116.859 15.2296 116.932 16.0657 117.077 16.749C117.223 17.4322 117.459 17.9896 117.786 18.4212C118.113 18.8347 118.531 19.1404 119.04 19.3382C119.567 19.518 120.203 19.6079 120.948 19.6079C121.783 19.6079 122.51 19.5629 123.128 19.473C123.746 19.3831 124.136 19.3022 124.3 19.2303V6.98548H126.072V20.444Z" stroke="#FF7A00" stroke-width="4" mask="url(#path-1-inside-1_1105_3419)" stroke-dasharray="0,0,0,0,0,70.80152130126953"><animate attributeType="XML" attributeName="stroke-dasharray" repeatCount="indefinite" dur="3.1406003980055788s" values="0,0,0,0,0,70.80152130126953; 
          0,0,0,17.251434901576133,19.047216596541137,34.502869803152265; 
          0,0,23.600507100423176,0,47.20101420084635,70.80152130126953; 
          0,0,47.20101420084635,0,23.600507100423176,70.80152130126953; 
          0,0,59.001267751057945,11.800253550211588,0,0; 
          0,70.80152130126953,0,23.600507100423176,0,70.80152130126953" keyTimes="0; 0.16666666666666666; 0.3333; 0.6666; 0.8333; 1" begin="0.46590169657656344s"></animate></path>
<path d="M126.072 20.444C125.545 20.5878 124.836 20.7497 123.946 20.9295C123.055 21.1093 121.965 21.1992 120.675 21.1992C119.621 21.1992 118.74 21.0463 118.031 20.7407C117.323 20.435 116.75 20.0035 116.314 19.4461C115.878 18.8887 115.56 18.2144 115.36 17.4232C115.178 16.6321 115.088 15.76 115.088 14.8071V6.98548H116.859V14.2407C116.859 15.2296 116.932 16.0657 117.077 16.749C117.223 17.4322 117.459 17.9896 117.786 18.4212C118.113 18.8347 118.531 19.1404 119.04 19.3382C119.567 19.518 120.203 19.6079 120.948 19.6079C121.783 19.6079 122.51 19.5629 123.128 19.473C123.746 19.3831 124.136 19.3022 124.3 19.2303V6.98548H126.072V20.444Z" stroke="#FA00FF" stroke-width="4" mask="url(#path-1-inside-1_1105_3419)" stroke-dasharray="0,0,0,0,0,70.80152130126953"><animate attributeType="XML" attributeName="stroke-dasharray" repeatCount="indefinite" dur="3.565807465898155s" values="0,0,0,0,0,70.80152130126953; 
          0,0,0,17.735936714918132,17.593711156515134,35.471873429836265; 
          0,0,23.600507100423176,0,47.20101420084635,70.80152130126953; 
          0,0,47.20101420084635,0,23.600507100423176,70.80152130126953; 
          0,0,59.001267751057945,11.800253550211588,0,0; 
          0,70.80152130126953,0,23.600507100423176,0,70.80152130126953" keyTimes="0; 0.16666666666666666; 0.3333; 0.6666; 0.8333; 1" begin="0.5903290767013943s"></animate></path>
<path d="M133.658 19.6888C134.675 19.6888 135.511 19.527 136.165 19.2033C136.838 18.8617 137.174 18.2953 137.174 17.5041C137.174 17.1266 137.11 16.8029 136.983 16.5332C136.874 16.2635 136.683 16.0207 136.411 15.805C136.138 15.5892 135.775 15.3824 135.32 15.1846C134.884 14.9869 134.339 14.7531 133.685 14.4834C133.158 14.2676 132.659 14.0519 132.186 13.8361C131.714 13.6024 131.296 13.3416 130.932 13.0539C130.569 12.7483 130.278 12.3887 130.06 11.9751C129.842 11.5615 129.733 11.0581 129.733 10.4647C129.733 9.33195 130.16 8.41494 131.014 7.71369C131.886 7.01245 133.076 6.66183 134.585 6.66183C135.548 6.66183 136.338 6.74274 136.956 6.90456C137.592 7.06639 138.037 7.21024 138.291 7.3361L137.883 8.90042C137.664 8.79253 137.292 8.64869 136.765 8.46888C136.256 8.28907 135.502 8.19917 134.503 8.19917C134.103 8.19917 133.721 8.24412 133.358 8.33403C133.013 8.40595 132.704 8.53181 132.431 8.71162C132.159 8.87344 131.941 9.08921 131.777 9.35892C131.614 9.61065 131.532 9.92531 131.532 10.3029C131.532 10.6805 131.605 11.0041 131.75 11.2739C131.895 11.5436 132.104 11.7863 132.377 12.0021C132.668 12.1999 133.013 12.3887 133.413 12.5685C133.831 12.7483 134.303 12.9461 134.83 13.1618C135.375 13.3776 135.893 13.6024 136.383 13.8361C136.892 14.0519 137.337 14.3216 137.719 14.6452C138.101 14.9509 138.409 15.3285 138.646 15.778C138.882 16.2095 139 16.758 139 17.4232C139 18.6819 138.518 19.6349 137.555 20.2822C136.611 20.9295 135.311 21.2531 133.658 21.2531C132.422 21.2531 131.477 21.1452 130.823 20.9295C130.169 20.7317 129.733 20.5788 129.515 20.471L129.978 18.8797C130.033 18.9156 130.151 18.9786 130.333 19.0685C130.514 19.1404 130.76 19.2303 131.069 19.3382C131.377 19.4281 131.741 19.509 132.159 19.5809C132.595 19.6528 133.095 19.6888 133.658 19.6888Z" stroke="#00C17C" stroke-width="4" mask="url(#path-1-inside-1_1105_3419)" stroke-dasharray="0,0,0,0,0,63.900211334228516"><animate attributeType="XML" attributeName="stroke-dasharray" repeatCount="indefinite" dur="3.1037259224327958s" values="0,0,0,0,0,63.900211334228516; 
          0,0,0,15.394117769817633,17.71785802477561,30.788235539635266; 
          0,0,21.30007044474284,0,42.60014088948568,63.900211334228516; 
          0,0,42.60014088948568,0,21.30007044474284,63.900211334228516; 
          0,0,53.250176111857094,10.65003522237142,0,0; 
          0,63.900211334228516,0,21.30007044474284,0,63.900211334228516" keyTimes="0; 0.16666666666666666; 0.3333; 0.6666; 0.8333; 1" begin="0.3979744018784103s"></animate></path>
<path d="M133.658 19.6888C134.675 19.6888 135.511 19.527 136.165 19.2033C136.838 18.8617 137.174 18.2953 137.174 17.5041C137.174 17.1266 137.11 16.8029 136.983 16.5332C136.874 16.2635 136.683 16.0207 136.411 15.805C136.138 15.5892 135.775 15.3824 135.32 15.1846C134.884 14.9869 134.339 14.7531 133.685 14.4834C133.158 14.2676 132.659 14.0519 132.186 13.8361C131.714 13.6024 131.296 13.3416 130.932 13.0539C130.569 12.7483 130.278 12.3887 130.06 11.9751C129.842 11.5615 129.733 11.0581 129.733 10.4647C129.733 9.33195 130.16 8.41494 131.014 7.71369C131.886 7.01245 133.076 6.66183 134.585 6.66183C135.548 6.66183 136.338 6.74274 136.956 6.90456C137.592 7.06639 138.037 7.21024 138.291 7.3361L137.883 8.90042C137.664 8.79253 137.292 8.64869 136.765 8.46888C136.256 8.28907 135.502 8.19917 134.503 8.19917C134.103 8.19917 133.721 8.24412 133.358 8.33403C133.013 8.40595 132.704 8.53181 132.431 8.71162C132.159 8.87344 131.941 9.08921 131.777 9.35892C131.614 9.61065 131.532 9.92531 131.532 10.3029C131.532 10.6805 131.605 11.0041 131.75 11.2739C131.895 11.5436 132.104 11.7863 132.377 12.0021C132.668 12.1999 133.013 12.3887 133.413 12.5685C133.831 12.7483 134.303 12.9461 134.83 13.1618C135.375 13.3776 135.893 13.6024 136.383 13.8361C136.892 14.0519 137.337 14.3216 137.719 14.6452C138.101 14.9509 138.409 15.3285 138.646 15.778C138.882 16.2095 139 16.758 139 17.4232C139 18.6819 138.518 19.6349 137.555 20.2822C136.611 20.9295 135.311 21.2531 133.658 21.2531C132.422 21.2531 131.477 21.1452 130.823 20.9295C130.169 20.7317 129.733 20.5788 129.515 20.471L129.978 18.8797C130.033 18.9156 130.151 18.9786 130.333 19.0685C130.514 19.1404 130.76 19.2303 131.069 19.3382C131.377 19.4281 131.741 19.509 132.159 19.5809C132.595 19.6528 133.095 19.6888 133.658 19.6888Z" stroke="#FF7A00" stroke-width="4" mask="url(#path-1-inside-1_1105_3419)" stroke-dasharray="0,0,0,0,0,63.900211334228516"><animate attributeType="XML" attributeName="stroke-dasharray" repeatCount="indefinite" dur="3.1520105140427703s" values="0,0,0,0,0,63.900211334228516; 
          0,0,0,16.06670903479784,15.700084229834992,32.13341806959568; 
          0,0,21.30007044474284,0,42.60014088948568,63.900211334228516; 
          0,0,42.60014088948568,0,21.30007044474284,63.900211334228516; 
          0,0,53.250176111857094,10.65003522237142,0,0; 
          0,63.900211334228516,0,21.30007044474284,0,63.900211334228516" keyTimes="0; 0.16666666666666666; 0.3333; 0.6666; 0.8333; 1" begin="0.17734441099710907s"></animate></path>
<path d="M133.658 19.6888C134.675 19.6888 135.511 19.527 136.165 19.2033C136.838 18.8617 137.174 18.2953 137.174 17.5041C137.174 17.1266 137.11 16.8029 136.983 16.5332C136.874 16.2635 136.683 16.0207 136.411 15.805C136.138 15.5892 135.775 15.3824 135.32 15.1846C134.884 14.9869 134.339 14.7531 133.685 14.4834C133.158 14.2676 132.659 14.0519 132.186 13.8361C131.714 13.6024 131.296 13.3416 130.932 13.0539C130.569 12.7483 130.278 12.3887 130.06 11.9751C129.842 11.5615 129.733 11.0581 129.733 10.4647C129.733 9.33195 130.16 8.41494 131.014 7.71369C131.886 7.01245 133.076 6.66183 134.585 6.66183C135.548 6.66183 136.338 6.74274 136.956 6.90456C137.592 7.06639 138.037 7.21024 138.291 7.3361L137.883 8.90042C137.664 8.79253 137.292 8.64869 136.765 8.46888C136.256 8.28907 135.502 8.19917 134.503 8.19917C134.103 8.19917 133.721 8.24412 133.358 8.33403C133.013 8.40595 132.704 8.53181 132.431 8.71162C132.159 8.87344 131.941 9.08921 131.777 9.35892C131.614 9.61065 131.532 9.92531 131.532 10.3029C131.532 10.6805 131.605 11.0041 131.75 11.2739C131.895 11.5436 132.104 11.7863 132.377 12.0021C132.668 12.1999 133.013 12.3887 133.413 12.5685C133.831 12.7483 134.303 12.9461 134.83 13.1618C135.375 13.3776 135.893 13.6024 136.383 13.8361C136.892 14.0519 137.337 14.3216 137.719 14.6452C138.101 14.9509 138.409 15.3285 138.646 15.778C138.882 16.2095 139 16.758 139 17.4232C139 18.6819 138.518 19.6349 137.555 20.2822C136.611 20.9295 135.311 21.2531 133.658 21.2531C132.422 21.2531 131.477 21.1452 130.823 20.9295C130.169 20.7317 129.733 20.5788 129.515 20.471L129.978 18.8797C130.033 18.9156 130.151 18.9786 130.333 19.0685C130.514 19.1404 130.76 19.2303 131.069 19.3382C131.377 19.4281 131.741 19.509 132.159 19.5809C132.595 19.6528 133.095 19.6888 133.658 19.6888Z" stroke="#FA00FF" stroke-width="4" mask="url(#path-1-inside-1_1105_3419)" stroke-dasharray="0,0,0,0,0,63.900211334228516"><animate attributeType="XML" attributeName="stroke-dasharray" repeatCount="indefinite" dur="3.5720144951695816s" values="0,0,0,0,0,63.900211334228516; 
          0,0,0,15.346590877920123,17.860438700468144,30.693181755840246; 
          0,0,21.30007044474284,0,42.60014088948568,63.900211334228516; 
          0,0,42.60014088948568,0,21.30007044474284,63.900211334228516; 
          0,0,53.250176111857094,10.65003522237142,0,0; 
          0,63.900211334228516,0,21.30007044474284,0,63.900211334228516" keyTimes="0; 0.16666666666666666; 0.3333; 0.6666; 0.8333; 1" begin="0.7150143141072487s"></animate></path>
<setting>{"type":"delay","speed":20,"random":0.8,"shift":0.5,"size":0.8,"rupture":29}</setting></svg>